<?xml version="1.0" standalone="no"?>
<!DOCTYPE svg PUBLIC "-//W3C//DTD SVG 1.1//EN" "http://www.w3.org/Graphics/SVG/1.1/DTD/svg11.dtd" >
<svg xmlns="http://www.w3.org/2000/svg" xmlns:xlink="http://www.w3.org/1999/xlink" version="1.1">
<metadata></metadata>
<defs>
<font id="amxmedium" horiz-adv-x="1050" >
<font-face units-per-em="2048" ascent="1520" descent="-528" />
<missing-glyph horiz-adv-x="401" />
<glyph horiz-adv-x="0" />
<glyph horiz-adv-x="682" />
<glyph unicode=" "  horiz-adv-x="401" />
<glyph unicode="&#x09;" horiz-adv-x="401" />
<glyph unicode="&#xa0;" horiz-adv-x="401" />
<glyph unicode="!" horiz-adv-x="587" d="M143 117q0 65 38 102t112 37q76 0 113.5 -37t37.5 -102q0 -66 -38.5 -104t-112.5 -38t-112 38t-38 104zM170 1413h246l-27 -1038h-192z" />
<glyph unicode="&#x22;" horiz-adv-x="782" d="M96 1348v147h203v-147l-35 -441h-135zM483 1348v147h203v-147l-35 -441h-135z" />
<glyph unicode="#" horiz-adv-x="1447" d="M125 412l25 149h221l61 373h-221l25 149h221l67 412h168l-67 -412h309l67 412h168l-67 -412h221l-25 -149h-221l-61 -373h221l-25 -149h-221l-67 -412h-168l67 412h-309l-68 -412h-167l67 412h-221zM539 561h309l61 373h-309z" />
<glyph unicode="$" horiz-adv-x="1064" d="M115 78v215q82 -53 184 -87t188 -34q104 0 164 53.5t60 145.5t-61.5 147t-190.5 115q-147 70 -235.5 159t-88.5 246q0 152 89 253.5t241 131.5v219h160v-204q147 -6 254 -58v-204q-66 29 -143 47t-140 18q-96 0 -158.5 -48t-62.5 -136q0 -53 25.5 -91t72.5 -66t137 -71 q160 -74 250 -170t90 -264q0 -166 -94 -273.5t-256 -135.5v-217h-160v208q-90 6 -176 33t-149 68z" />
<glyph unicode="%" horiz-adv-x="1613" d="M41 1061q0 158 90 261t240 103t239.5 -103t89.5 -261q0 -160 -90 -263.5t-239 -103.5q-150 0 -240 103.5t-90 263.5zM154 0l1151 1413h153l-1151 -1413h-153zM190 1061q0 -109 45.5 -179.5t135.5 -70.5t136 70.5t46 179.5t-46 178.5t-136 69.5t-135.5 -70t-45.5 -178z M911 354q0 160 90.5 262.5t241.5 102.5q150 0 240 -103.5t90 -261.5q0 -160 -90 -263t-240 -103q-152 0 -242 103.5t-90 262.5zM1063 354q0 -108 45 -179t135 -71q88 0 134 71t46 179q0 109 -45 178.5t-135 69.5t-135 -69.5t-45 -178.5z" />
<glyph unicode="&#x26;" horiz-adv-x="1409" d="M117 375q0 141 79.5 249.5t213.5 176.5q-117 147 -117 289q0 98 51 177t151.5 125t241.5 46q139 0 271 -37v-197q-52 17 -125.5 29t-130.5 12q-109 0 -165.5 -45t-56.5 -125q0 -51 26 -103t79 -114l379 -448q18 80 24 175t6 234h213q0 -340 -131 -540l236 -279h-270 l-138 160q-78 -86 -182 -135.5t-223 -49.5t-217.5 48.5t-156.5 139.5t-58 212zM340 410q0 -107 71.5 -181.5t190.5 -74.5q74 0 141.5 29.5t120.5 82.5l-360 422q-74 -53 -119 -124.5t-45 -153.5z" />
<glyph unicode="'" horiz-adv-x="393" d="M96 1348v147h203v-147l-35 -441h-135z" />
<glyph unicode="(" horiz-adv-x="698" d="M152 543q0 252 65.5 497.5t208.5 454.5h178q-108 -199 -167.5 -463t-59.5 -489t59.5 -489.5t167.5 -463.5h-178q-143 209 -208.5 455t-65.5 498z" />
<glyph unicode=")" horiz-adv-x="698" d="M94 -410q109 199 168.5 463t59.5 490q0 225 -59.5 489t-168.5 463h178q144 -209 209.5 -454.5t65.5 -497.5t-65.5 -498t-209.5 -455h-178z" />
<glyph unicode="*" horiz-adv-x="929" d="M74 944l280 141l-280 142l73 127l263 -172l-19 313h148l-19 -313l262 172l74 -127l-281 -142l281 -141l-74 -127l-262 172l19 -313h-148l19 313l-263 -172z" />
<glyph unicode="+" horiz-adv-x="1327" d="M137 606v199h422v426h209v-426h422v-199h-422v-426h-209v426h-422z" />
<glyph unicode="," horiz-adv-x="575" d="M137 119q0 66 39 103.5t115 37.5q150 0 149 -158q0 -96 -46 -228t-113 -226h-119q78 187 96 332q-59 8 -90 43.5t-31 95.5z" />
<glyph unicode="-" horiz-adv-x="806" d="M88 453v157h631v-157h-631z" />
<glyph unicode="." horiz-adv-x="581" d="M137 119q0 68 39 106.5t115 38.5t114.5 -39t38.5 -106q0 -68 -38.5 -106t-114.5 -38t-115 38t-39 106z" />
<glyph unicode="/" horiz-adv-x="722" d="M0 -352l524 1847h199l-524 -1847h-199z" />
<glyph unicode="0" horiz-adv-x="1308" d="M117 707q0 346 140 538.5t398 192.5t398.5 -192.5t140.5 -538.5t-140.5 -539t-398.5 -193t-398 192.5t-140 539.5zM354 707q0 -547 301 -547q152 0 226.5 140t74.5 407q0 266 -74.5 406t-226.5 140q-301 0 -301 -546z" />
<glyph unicode="1" horiz-adv-x="817" d="M27 1042v187l370 184h178v-1413h-235v1200z" />
<glyph unicode="2" horiz-adv-x="1077" d="M102 0v197l377 434q106 127 157.5 214t51.5 185q0 106 -64.5 164.5t-187.5 58.5q-70 0 -151.5 -19.5t-153.5 -53.5v190q82 33 176 50.5t180 17.5q205 0 323 -99.5t118 -279.5q0 -137 -70 -254t-225 -289l-266 -307v-21h598v-188h-863z" />
<glyph unicode="3" d="M109 -25v185q283 0 437 68.5t154 224.5q0 211 -292 211q-76 0 -185 -15v166q436 63 436 266q0 80 -61 126t-172 46q-74 0 -161 -18t-156 -51v182q77 35 170.5 53.5t183.5 18.5q197 0 315.5 -86t118.5 -230q0 -113 -72.5 -196.5t-201.5 -134.5v-5q150 -25 233.5 -115.5 t83.5 -236.5q0 -240 -221 -349.5t-610 -109.5z" />
<glyph unicode="4" horiz-adv-x="1134" d="M68 326v163l454 924h230l-449 -905h381l80 401h141v-401h187l-17 -182h-170v-326h-233l16 326h-620z" />
<glyph unicode="5" horiz-adv-x="1073" d="M150 -25v185q279 0 430 67.5t151 218.5q0 111 -78 163.5t-215 52.5q-57 0 -138 -9.5t-150 -21.5v782h765v-188h-573v-398q86 12 168 13q215 0 337 -96.5t122 -282.5q0 -248 -216 -367t-603 -119z" />
<glyph unicode="6" horiz-adv-x="1216" d="M117 616q0 270 114.5 457t311 280t442.5 93v-186q-268 0 -442 -137.5t-189 -420.5h13q59 80 157.5 128.5t212.5 48.5q115 0 207 -51.5t145.5 -149.5t53.5 -229q0 -143 -61.5 -250t-173 -165.5t-257.5 -58.5q-166 0 -285.5 77t-184 221.5t-64.5 342.5zM352 532 q10 -176 85 -277t216 -101q119 0 192 72.5t73 203.5q0 123 -68 195.5t-188 72.5q-94 0 -175 -44t-135 -122z" />
<glyph unicode="7" horiz-adv-x="1054" d="M84 1212v201h885v-123q-129 -176 -215 -355t-136.5 -409.5t-50.5 -525.5h-239q0 387 89 666.5t255 521.5v24h-588z" />
<glyph unicode="8" horiz-adv-x="1239" d="M117 338q0 119 76.5 208t212.5 140v10q-244 129 -244 355q0 113 57 200.5t162.5 137t245.5 49.5q131 0 232.5 -44t158.5 -123t57 -177q0 -111 -67.5 -201t-182.5 -143v-9q143 -63 220 -148t77 -218q0 -188 -141 -294t-367 -106q-145 0 -257.5 45.5t-176 128t-63.5 189.5z M338 367q0 -99 77 -163.5t203 -64.5q127 0 205 62.5t78 154.5q0 84 -67.5 142.5t-182.5 99.5l-90 33q-104 -41 -163.5 -109.5t-59.5 -154.5zM373 1071q0 -160 270 -260l39 -14q82 45 132 111.5t50 150.5q0 96 -67.5 155.5t-175.5 59.5q-109 0 -178.5 -57.5t-69.5 -145.5z " />
<glyph unicode="9" horiz-adv-x="1216" d="M74 969q0 141 61.5 246.5t172 164t255.5 58.5q168 0 289 -79t184.5 -224.5t63.5 -341.5q0 -268 -115 -453.5t-311.5 -279t-440.5 -93.5v187q264 0 438.5 134t190.5 417h-10q-59 -72 -157.5 -117t-209.5 -45q-119 0 -212 51t-146 147.5t-53 227.5zM301 987 q0 -123 66.5 -194.5t187.5 -71.5q94 0 174 41t135 112q-6 178 -80.5 282t-220.5 104q-119 0 -190.5 -72t-71.5 -201z" />
<glyph unicode=":" horiz-adv-x="581" d="M137 119q0 68 39 106.5t115 38.5t114.5 -39t38.5 -106q0 -68 -38.5 -106t-114.5 -38t-115 38t-39 106zM137 932q0 68 39 106.5t115 38.5t114.5 -39t38.5 -106q0 -68 -38.5 -106t-114.5 -38t-115 38t-39 106z" />
<glyph unicode=";" horiz-adv-x="581" d="M137 932q0 68 39 106.5t115 38.5t114.5 -39t38.5 -106q0 -68 -38.5 -106t-114.5 -38t-115 38t-39 106zM141 119q0 66 39 103.5t115 37.5q150 0 149 -158q0 -96 -46 -228t-113 -226h-119q78 187 96 332q-59 8 -90 43.5t-31 95.5z" />
<glyph unicode="&#x3c;" horiz-adv-x="1267" d="M102 590v233l1047 391v-204l-836 -293v-21l836 -293v-204z" />
<glyph unicode="=" horiz-adv-x="1327" d="M137 350v199h1053v-199h-1053zM137 864v199h1053v-199h-1053z" />
<glyph unicode="&#x3e;" horiz-adv-x="1267" d="M119 199v204l835 295v17l-835 295v204l1046 -391v-233z" />
<glyph unicode="?" horiz-adv-x="948" d="M80 1176v204q63 25 152.5 41.5t170.5 16.5q199 0 323 -96.5t124 -264.5q0 -106 -48 -180t-143 -164q-88 -86 -131 -150.5t-43 -152.5v-55h-202v74q0 88 27.5 156.5t65.5 115.5t99 108q68 63 100.5 110.5t32.5 109.5q0 94 -64.5 143t-166.5 49q-72 0 -149.5 -18.5 t-147.5 -46.5zM233 119q0 66 38 103.5t114 37.5t115 -38t39 -103q0 -66 -39 -105t-115 -39q-74 0 -113 39t-39 105z" />
<glyph unicode="@" horiz-adv-x="2054" d="M111 504q0 268 123.5 477t344 325.5t496.5 116.5q260 0 457 -101t304.5 -283.5t107.5 -417.5q0 -182 -63.5 -310.5t-171 -192t-239.5 -63.5q-125 0 -199.5 57.5t-107.5 151.5h-16q-47 -86 -129 -147.5t-178 -61.5q-115 0 -184.5 89t-69.5 245q0 141 58 272.5t170 213 t261 81.5q82 0 173 -22.5t165 -54.5l-67 -410q-6 -43 -7 -84q0 -94 41 -148.5t127 -54.5q82 0 148.5 48.5t106.5 143.5t40 230q0 203 -90 359.5t-257 244.5t-386 88q-236 0 -422 -100t-290.5 -280.5t-104.5 -411.5q0 -236 107.5 -417t296 -280.5t419.5 -99.5q319 0 559 189 v-136q-108 -82 -254.5 -131t-316.5 -49q-260 0 -478 115t-346 325.5t-128 483.5zM786 401q0 -88 35 -139t94 -51q76 0 144.5 90t95.5 219l43 256q-84 23 -143 23q-90 0 -150.5 -65.5t-89.5 -159t-29 -173.5z" />
<glyph unicode="A" horiz-adv-x="1265" d="M43 0l422 1413h336l424 -1413h-240l-113 373h-487l-113 -373h-229zM430 561h399l-190 619h-21z" />
<glyph unicode="B" horiz-adv-x="1230" d="M178 0v1413h531q178 0 281.5 -92t103.5 -252q0 -117 -54.5 -197.5t-140.5 -117.5v-13q121 -33 186.5 -125t65.5 -225q0 -180 -116.5 -285.5t-311.5 -105.5h-545zM414 172h254q123 0 187.5 60.5t64.5 175.5t-64.5 175t-185.5 60h-256v-471zM414 805h235q109 0 166 57.5 t57 161.5t-57 160.5t-168 56.5h-233v-436z" />
<glyph unicode="C" horiz-adv-x="1134" d="M90 707q0 221 74 385.5t218 255t347 90.5q74 0 154 -12.5t141 -36.5v-209q-57 24 -138 39.5t-153 15.5q-199 0 -299 -141.5t-100 -386.5q0 -248 100.5 -388.5t300.5 -140.5q66 0 151 13.5t138 33.5v-209q-61 -18 -141 -29.5t-150 -11.5q-207 0 -351 90.5t-218 255 t-74 386.5z" />
<glyph unicode="D" horiz-adv-x="1386" d="M178 0v1413h508q293 0 451.5 -188.5t158.5 -517.5q0 -330 -159.5 -518.5t-450.5 -188.5h-508zM416 197h268q190 0 280.5 135t90.5 375t-90.5 375t-280.5 135h-268v-1020z" />
<glyph unicode="E" horiz-adv-x="1089" d="M178 0v1413h836v-190h-598v-410h442v-190h-442v-433h598v-190h-836z" />
<glyph unicode="F" horiz-adv-x="1056" d="M178 0v1413h807v-194h-567v-461h440v-195h-440v-563h-240z" />
<glyph unicode="G" horiz-adv-x="1318" d="M90 707q0 223 80 386.5t236.5 254t384.5 90.5q178 0 319 -45v-205q-61 20 -150.5 35.5t-166.5 15.5q-231 0 -345 -140.5t-114 -391.5q0 -254 104.5 -393.5t327.5 -139.5q70 0 164 12v490h225v-651q-84 -23 -197.5 -36.5t-197.5 -13.5q-330 0 -500 197t-170 535z" />
<glyph unicode="H" horiz-adv-x="1394" d="M178 0v1413h240v-596h559v596h240v-1413h-240v623h-559v-623h-240z" />
<glyph unicode="I" horiz-adv-x="595" d="M178 0v1413h240v-1413h-240z" />
<glyph unicode="J" horiz-adv-x="790" d="M14 -6v203q31 -9 81 -16t83 -7q104 0 154.5 61.5t50.5 174.5v1003h240v-1007q0 -201 -107.5 -316t-314.5 -115q-90 0 -187 19z" />
<glyph unicode="K" horiz-adv-x="1269" d="M178 0v1413h240v-680h14l502 680h248l-402 -565l426 -848h-260l-340 682h-12l-176 -248v-434h-240z" />
<glyph unicode="L" horiz-adv-x="1034" d="M178 0v1413h240v-1218h536v-195h-776z" />
<glyph unicode="M" horiz-adv-x="1992" d="M137 0l160 1413h332l356 -1171h27l356 1171h328l162 -1413h-242l-74 762q-20 195 -29 391h-20l-363 -1153h-288l-365 1153h-20q-12 -199 -31 -385l-76 -768h-213z" />
<glyph unicode="N" horiz-adv-x="1394" d="M178 0v1413h228l612 -1087h14q-33 248 -33 510v577h218v-1413h-228l-614 1087h-13q33 -248 33 -509v-578h-217z" />
<glyph unicode="O" horiz-adv-x="1388" d="M90 707q0 342 156.5 536.5t449.5 194.5q291 0 446.5 -194.5t155.5 -536.5t-155.5 -537t-446.5 -195q-293 0 -449.5 195t-156.5 537zM334 707q0 -252 87 -392.5t273 -140.5q188 0 275.5 139.5t87.5 393.5t-87 393t-276 139q-186 0 -273 -140.5t-87 -391.5z" />
<glyph unicode="P" horiz-adv-x="1161" d="M178 0v1413h461q209 0 330 -126t121 -341t-121 -341t-330 -126h-221v-479h-240zM418 668h184q256 0 256 278q0 279 -256 279h-184v-557z" />
<glyph unicode="Q" horiz-adv-x="1388" d="M90 707q0 342 156.5 536.5t449.5 194.5q291 0 446.5 -194.5t155.5 -536.5q0 -324 -138 -516.5t-400 -213.5q29 -106 106.5 -164.5t192.5 -58.5q135 0 239 35v-192q-51 -14 -119.5 -22.5t-127.5 -8.5q-131 0 -235.5 55t-167 150.5t-73.5 214.5q-238 39 -361.5 227 t-123.5 494zM334 707q0 -252 87 -392.5t273 -140.5q189 0 276 139.5t87 393.5t-87 393t-276 139q-186 0 -273 -140.5t-87 -391.5z" />
<glyph unicode="R" horiz-adv-x="1218" d="M178 0v1413h506q188 0 295.5 -102.5t107.5 -288.5q0 -139 -62 -238.5t-167 -140.5v-14l289 -629h-256l-238 551h-237v-551h-238zM416 723h200q121 0 183.5 68.5t62.5 195.5q0 250 -246 250h-200v-514z" />
<glyph unicode="S" horiz-adv-x="1105" d="M94 78v215q96 -53 217 -87t221 -34q111 0 174.5 51t63.5 146q0 84 -51 133t-166 92l-125 47q-156 59 -235.5 150.5t-79.5 238.5q0 195 135 301.5t356 106.5q86 0 175 -15.5t161 -42.5v-204q-90 29 -185.5 47t-166.5 18q-106 0 -170 -48t-64 -142q0 -82 48.5 -127 t154.5 -86l141 -54q150 -57 232 -152t82 -243q0 -190 -133.5 -302t-352.5 -112q-111 0 -230.5 29t-201.5 74z" />
<glyph unicode="T" horiz-adv-x="1101" d="M66 1219v194h970v-194h-366v-1219h-240v1219h-364z" />
<glyph unicode="U" horiz-adv-x="1351" d="M170 471v942h240v-934q0 -141 66.5 -223t199.5 -82t199.5 82t66.5 223v934h240v-942q0 -231 -133.5 -363.5t-372.5 -132.5q-240 0 -373 132.5t-133 363.5z" />
<glyph unicode="V" horiz-adv-x="1259" d="M59 1413h244l324 -1173h20l324 1173h229l-399 -1413h-342z" />
<glyph unicode="W" horiz-adv-x="2093" d="M59 1413h244l285 -1186h24l277 1186h344l274 -1186h25l285 1186h217l-355 -1413h-329l-283 1192h-29l-282 -1192h-340z" />
<glyph unicode="X" horiz-adv-x="1249" d="M43 0l385 717l-369 696h256l308 -557h16l301 557h248l-369 -690l385 -723h-256l-330 596h-4l-321 -596h-250z" />
<glyph unicode="Y" horiz-adv-x="1224" d="M43 1413h264l297 -692h27l295 692h256l-449 -936v-477h-239v477z" />
<glyph unicode="Z" horiz-adv-x="1206" d="M102 0v147l701 1080l-692 -10v196h979v-147l-701 -1080l715 11v-197h-1002z" />
<glyph unicode="[" horiz-adv-x="741" d="M205 -410v1905h413v-180h-192v-1544h192v-181h-413z" />
<glyph unicode="\" horiz-adv-x="722" d="M0 1495h199l524 -1847h-199z" />
<glyph unicode="]" horiz-adv-x="741" d="M123 -229h192v1544h-192v180h414v-1905h-414v181z" />
<glyph unicode="^" horiz-adv-x="1021" d="M27 707l368 706h232l368 -706h-198l-281 542h-8l-283 -542h-198z" />
<glyph unicode="_" horiz-adv-x="870" d="M0 -197h870v-157h-870v157z" />
<glyph unicode="`" horiz-adv-x="475" d="M23 1501v19h227l98 -344h-149z" />
<glyph unicode="a" d="M74 289q0 164 106.5 245.5t298.5 81.5q88 0 176 -12v94q0 94 -53 144.5t-156 50.5q-72 0 -153.5 -20.5t-140.5 -51.5v185q68 33 154.5 52t176.5 19q195 0 301.5 -95t106.5 -275v-445l37 -262h-191l-41 115h-14q-59 -66 -137 -103t-166 -37q-137 0 -221 83t-84 231z M281 295q0 -80 42 -124t117 -44q115 0 217 94l-2 6v244q-76 6 -143 6q-231 0 -231 -182z" />
<glyph unicode="b" horiz-adv-x="1191" d="M166 53v1442h235v-569h21q43 70 115.5 110.5t167.5 40.5q117 0 205.5 -63.5t139 -185t50.5 -289.5q0 -270 -135.5 -417t-389.5 -147q-106 0 -218.5 22.5t-190.5 55.5zM401 188q97 -28 183 -28q278 0 278 363q0 179 -59.5 274.5t-171.5 95.5q-102 0 -166 -77t-64 -202 v-426z" />
<glyph unicode="c" horiz-adv-x="913" d="M90 526q0 252 131 401.5t367 149.5q102 0 215 -35v-196q-41 18 -99.5 30.5t-107.5 12.5q-129 0 -195.5 -93.5t-66.5 -267.5q0 -176 67.5 -270t202.5 -94q47 0 102.5 12t96.5 33v-193q-102 -41 -217 -41q-231 0 -363.5 149.5t-132.5 401.5z" />
<glyph unicode="d" horiz-adv-x="1187" d="M90 508q0 180 62.5 309t172 194.5t248.5 65.5q123 0 215 -53v471h236v-1233l37 -262h-225l-25 141h-20q-49 -74 -126 -120t-178 -46q-119 0 -209 64.5t-139 185.5t-49 283zM330 522q0 -172 58 -267t173 -95q102 0 164.5 75.5t62.5 202.5v402q-92 53 -196 53 q-131 0 -196.5 -97.5t-65.5 -273.5z" />
<glyph unicode="e" horiz-adv-x="1071" d="M90 532q0 250 120 397.5t333 147.5q205 0 321.5 -138t116.5 -386q0 -49 -6 -96h-660q6 -145 80 -225t223 -80q74 0 152 16t145 47v-178q-69 -29 -158 -45.5t-165 -16.5q-244 0 -373 150.5t-129 406.5zM315 602h453v14q0 131 -56.5 213t-164.5 82q-121 0 -173 -93 t-59 -216z" />
<glyph unicode="f" horiz-adv-x="731" d="M53 858v125l117 31v180q0 152 86 239t252 87q96 0 207 -31v-197q-43 16 -97.5 27.5t-93.5 11.5q-131 0 -131 -153v-144h312v-176h-299v-858h-236v858h-117z" />
<glyph unicode="g" d="M68 692q0 178 113.5 281.5t295.5 103.5q119 0 272.5 -18.5t251.5 -40.5v-187q-82 51 -245 99v-21q63 -37 97 -102.5t34 -155.5q0 -162 -109.5 -256t-296.5 -94q-57 0 -98 8q-27 -37 -27 -80t30 -67.5t87 -24.5h234q143 0 221 -64.5t78 -181.5q0 -156 -136.5 -240.5 t-377.5 -84.5q-195 0 -414 69v164q96 -37 208.5 -57.5t221.5 -20.5q135 0 210 37t75 103q0 41 -30 65.5t-83 24.5h-266q-125 0 -190.5 55t-65.5 144q0 61 30.5 110t79.5 82v12q-96 41 -148 129t-52 209zM285 686q0 -104 51 -165.5t143 -61.5t144.5 61.5t52.5 165.5 t-52.5 168t-144.5 64q-90 0 -142 -62.5t-52 -169.5zM686 936h4h-4z" />
<glyph unicode="h" horiz-adv-x="1193" d="M166 0v1495h235v-549h11q68 59 151.5 95t173.5 36q135 0 217 -83t82 -230v-764h-235v686q0 86 -47 135t-129 49q-59 0 -117.5 -25.5t-106.5 -68.5v-776h-235z" />
<glyph unicode="i" horiz-adv-x="567" d="M145 1348q0 57 36 91t104 34t102.5 -34t34.5 -91t-35 -91t-102 -34q-70 0 -105 32.5t-35 92.5zM166 0v1053h235v-1053h-235z" />
<glyph unicode="j" horiz-adv-x="567" d="M35 -248q65 0 98 42t33 120v1139h235v-1159q0 -154 -74.5 -240t-220.5 -88q-35 0 -71 6v180zM145 1348q0 57 36 91t104 34t102.5 -34t34.5 -91t-35 -91t-102 -34q-70 0 -105 32.5t-35 92.5z" />
<glyph unicode="k" horiz-adv-x="1107" d="M166 0v1495h235v-877h17l393 435h233l-294 -340l315 -713h-240l-250 551h-14l-160 -178v-373h-235z" />
<glyph unicode="l" horiz-adv-x="567" d="M166 0v1495h235v-1495h-235z" />
<glyph unicode="m" horiz-adv-x="1783" d="M129 1053h225l23 -129h20q59 68 143.5 110.5t178.5 42.5q92 0 159.5 -42t102.5 -120h18q61 72 147.5 117t184.5 45q133 0 213 -88t80 -235v-754h-235v686q0 88 -43 136t-121 48q-113 0 -211 -92v-24v-754h-236v686q0 88 -44 136t-122 48q-113 0 -211 -92v-778h-235v791z " />
<glyph unicode="n" horiz-adv-x="1193" d="M129 1053h225l23 -129h20q63 68 149.5 110.5t182.5 42.5q139 0 223 -88t84 -235v-754h-235v686q0 86 -47 135t-129 49q-59 0 -117.5 -25.5t-106.5 -68.5v-776h-235v791z" />
<glyph unicode="o" horiz-adv-x="1148" d="M90 526q0 252 128 401.5t357 149.5t356.5 -149.5t127.5 -401.5t-127 -401.5t-357 -149.5q-229 0 -357 149.5t-128 401.5zM330 526q0 -174 59.5 -270t183.5 -96q127 0 186.5 96t59.5 270t-60.5 270.5t-185.5 96.5t-184 -96.5t-59 -270.5z" />
<glyph unicode="p" horiz-adv-x="1189" d="M129 1053h225l25 -142h20q51 74 127 120t179 46q117 0 206.5 -65.5t139 -186t49.5 -282.5q0 -180 -62.5 -308.5t-172 -194t-249.5 -65.5q-121 0 -215 54v-439h-235v1201zM401 211q97 -51 197 -51q131 0 196.5 97t65.5 271t-58.5 269.5t-172.5 95.5q-102 0 -165 -76 t-63 -203v-403z" />
<glyph unicode="q" horiz-adv-x="1191" d="M90 514q0 270 136 416.5t390 146.5q104 0 217 -22.5t193 -55.5v-1409h-235v535h-21q-45 -68 -117.5 -109t-167.5 -41q-115 0 -205 63.5t-140 185.5t-50 290zM330 526q0 -178 59.5 -272t171.5 -94q102 0 166 76.5t64 201.5v426q-100 29 -185 29q-276 0 -276 -367z" />
<glyph unicode="r" horiz-adv-x="800" d="M129 1053h225l27 -144h16q53 78 128 123t157 45q23 0 59 -4v-233q-43 14 -94 14q-70 0 -134 -33t-112 -88v-733h-235v791z" />
<glyph unicode="s" horiz-adv-x="905" d="M82 43v193q78 -41 170 -68t168 -27q86 0 132 37t46 101q0 57 -35 85.5t-123 63.5l-88 33q-123 45 -191.5 113.5t-68.5 191.5q0 152 109.5 231.5t294.5 79.5q66 0 141.5 -9t120.5 -24v-190q-57 25 -136 41t-135 16q-76 0 -124 -32.5t-48 -94.5q0 -53 34 -83.5t108 -59.5 l88 -33q135 -47 207.5 -114.5t72.5 -194.5q0 -152 -106.5 -238t-298.5 -86q-86 0 -181.5 18.5t-156.5 49.5z" />
<glyph unicode="t" horiz-adv-x="759" d="M49 877v135l129 26l72 285h156v-270h303v-176h-303v-568q0 -66 30.5 -104.5t87.5 -38.5q92 0 185 43v-191q-49 -20 -116 -31.5t-126 -11.5q-139 0 -218 80t-79 213v609h-121z" />
<glyph unicode="u" horiz-adv-x="1171" d="M158 299v754h235v-686q0 -88 44 -137.5t122 -49.5q113 0 211 92v781h236v-791l36 -262h-225l-22 129h-21q-59 -68 -143 -111t-178 -43q-135 0 -215 88.5t-80 235.5z" />
<glyph unicode="v" horiz-adv-x="1024" d="M27 1053h243l236 -852h26l238 852h227l-323 -1053h-324z" />
<glyph unicode="w" horiz-adv-x="1708" d="M27 1053h241l209 -852h25l203 852h323l197 -852h24l209 852h221l-297 -1053h-311l-207 856h-22l-207 -856h-309z" />
<glyph unicode="x" horiz-adv-x="972" d="M16 0l308 545l-291 508h241l218 -391l223 391h225l-293 -516l309 -537h-243l-226 410h-10l-233 -410h-228z" />
<glyph unicode="y" horiz-adv-x="1021" d="M-10 -211q45 -16 102.5 -25.5t100.5 -9.5q98 0 157.5 58.5t110.5 197.5h-113l-321 1043h243l236 -852h26l238 852h225l-338 -1082q-55 -188 -165.5 -296.5t-286.5 -108.5q-49 0 -109.5 8t-105.5 23v192z" />
<glyph unicode="z" horiz-adv-x="870" d="M35 0v143l512 740l-506 -6v176h758v-144l-512 -739l528 6v-176h-780z" />
<glyph unicode="{" horiz-adv-x="776" d="M141 457v172h11q172 0 172 186q0 53 -21 201q-20 147 -20 198q0 141 90 211t221 70h59v-176h-24q-55 0 -88 -35t-33 -98q0 -47 18 -162q2 -14 12.5 -85t10.5 -116q0 -98 -49 -168.5t-133 -103.5v-16q84 -33 133 -104t49 -169q0 -45 -10.5 -115.5t-12.5 -85.5 q-18 -115 -18 -161q0 -63 32.5 -98t88.5 -35h24v-177h-59q-131 0 -221 70t-90 211q0 51 20 199q20 147 21 200q0 186 -172 187h-11z" />
<glyph unicode="|" horiz-adv-x="565" d="M170 -410v1905h225v-1905h-225z" />
<glyph unicode="}" horiz-adv-x="776" d="M125 -233h22q55 0 88 34.5t33 98.5q0 47 -18 161q-2 14 -12.5 85t-10.5 116q0 96 50.5 168t132.5 105v16q-82 33 -132.5 104.5t-50.5 167.5q0 45 10.5 116t12.5 85q18 115 18 162q0 63 -32.5 98t-88.5 35h-22v176h57q131 0 221.5 -69.5t90.5 -211.5q0 -51 -21 -198 q-20 -147 -20 -201q0 -186 172 -186h12v-172h-12q-172 0 -172 -187q0 -53 20 -200t21 -199q0 -141 -90.5 -211t-221.5 -70h-57v177z" />
<glyph unicode="~" horiz-adv-x="1327" d="M137 584v182q57 43 131 66.5t150 23.5q66 0 122 -15.5t128 -43.5q72 -29 126 -43.5t117 -14.5q78 0 151 23.5t128 66.5v-184q-60 -43 -133.5 -66.5t-149.5 -23.5q-66 0 -118 14.5t-132 44.5q-70 29 -125 44.5t-118 15.5q-78 0 -151 -23.5t-126 -66.5z" />
<glyph unicode="&#xa1;" horiz-adv-x="587" d="M143 936q0 65 38 103t112 38t112.5 -38t38.5 -103q0 -66 -37.5 -102.5t-113.5 -36.5t-113 36.5t-37 102.5zM170 -360l27 1038h192l27 -1038h-246z" />
<glyph unicode="&#xa2;" horiz-adv-x="954" d="M111 750q0 201 85 338t242 186v221h160v-197h10q109 0 215 -32v-197q-43 16 -101 29.5t-106 13.5q-129 0 -195.5 -93t-66.5 -269t67.5 -270.5t203.5 -94.5q47 0 102 12.5t96 32.5v-190q-94 -41 -217 -41h-8v-199h-160v223q-156 49 -241.5 187.5t-85.5 339.5z" />
<glyph unicode="&#xa3;" horiz-adv-x="1128" d="M129 0v145q92 86 140 190.5t48 207.5q0 35 -8 88h-180v131h135l-20 45q-37 76 -56.5 136.5t-19.5 131.5q0 172 119 267.5t323 95.5q86 0 178.5 -17.5t172.5 -50.5v-190q-70 35 -151 54t-151 19q-123 0 -188 -55t-65 -156q0 -51 15 -101t44 -120l24 -59h371v-131h-332 q8 -35 9 -80q0 -184 -195 -363h664v-188h-877z" />
<glyph unicode="&#xa4;" horiz-adv-x="1298" d="M117 244l190 190q-72 104 -71 230q0 123 69 229l-188 188l114 115l189 -188q106 70 231 69q121 0 228 -69l188 188l115 -115l-189 -190q70 -100 70 -227q0 -123 -70 -230l189 -190l-115 -113l-188 188q-106 -70 -228 -69q-125 -1 -231 69l-189 -188zM387 664 q0 -70 36 -131.5t96.5 -97.5t131.5 -36q70 0 129.5 36t95 97.5t35.5 131.5t-35.5 130t-95 96t-129.5 36q-72 0 -132 -36t-96 -96.5t-36 -129.5z" />
<glyph unicode="&#xa5;" horiz-adv-x="1245" d="M53 1413h264l297 -692h27l295 692h256l-387 -807h227v-133h-289v-151h289v-134h-289v-188h-239v188h-283v134h283v151h-283v133h221z" />
<glyph unicode="&#xa6;" horiz-adv-x="565" d="M170 285h225v-695h-225v695zM170 801v694h225v-694h-225z" />
<glyph unicode="&#xa7;" horiz-adv-x="1089" d="M94 825q0 168 83 308.5t229.5 222.5t328.5 82q94 0 193 -19v-202q-106 25 -191 24q-100 0 -156.5 -52t-56.5 -128q0 -70 45 -135.5t140 -167.5q92 -102 148 -176t97 -172.5t41 -214.5q0 -158 -77.5 -302.5t-223 -235.5t-342.5 -91q-106 0 -209 14v203q109 -20 203 -21 q106 0 161.5 52.5t55.5 126.5q0 70 -44 135t-138 170q-92 102 -148.5 178t-97.5 178.5t-41 222.5zM233 858q0 -102 36 -191t87.5 -158t137.5 -165q106 -121 157 -202t51 -177q0 -117 -88 -205h19q113 76 168 176.5t55 217.5q0 100 -36 188t-87 155.5t-137 161.5 q-106 119 -158.5 201t-52.5 178q0 115 82 203h-21q-213 -139 -213 -383z" />
<glyph unicode="&#xa8;" horiz-adv-x="870" d="M115 1348q0 57 32.5 91t96.5 34q63 0 96 -34t33 -91q0 -59 -33 -92t-96 -33q-64 0 -96.5 32.5t-32.5 92.5zM504 1348q0 57 33.5 91t97.5 34q63 0 96 -34t33 -91t-33 -91t-96 -34t-97 33.5t-34 91.5z" />
<glyph unicode="&#xa9;" horiz-adv-x="1660" d="M104 707q0 198 97.5 366t264.5 266.5t363 98.5q197 0 364 -98.5t264 -266.5t97 -366q0 -199 -97 -367t-264 -266.5t-364 -98.5t-363.5 98.5t-264 266.5t-97.5 367zM236 707q0 -175 76.5 -313t211.5 -215t305 -77q172 0 307.5 77t211 215t75.5 313q0 174 -75.5 312 t-211 215t-307.5 77q-170 0 -305 -77t-211.5 -215t-76.5 -312zM510 707q0 186 94 294.5t266 108.5q88 0 162 -29v-133q-31 13 -76 23t-84 10q-104 0 -155 -72.5t-51 -199.5q0 -131 52 -204t156 -73q33 0 80 8.5t78 18.5v-133q-68 -20 -160 -21q-174 0 -268 107.5t-94 294.5z " />
<glyph unicode="&#xaa;" horiz-adv-x="712" d="M55 918q0 106 69 159t193 53q59 0 115 -6v54q0 57 -33.5 87.5t-97.5 30.5q-47 0 -100.5 -13t-91.5 -34v133q45 20 102 32.5t115 12.5q133 0 204.5 -62t71.5 -181v-283l23 -176h-136l-28 74h-10q-84 -90 -195 -90q-90 0 -145.5 55t-55.5 154zM205 920q0 -50 24.5 -76.5 t71.5 -26.5q70 0 131 57v154l-88 4q-139 0 -139 -112z" />
<glyph unicode="&#xab;" horiz-adv-x="1042" d="M92 475v100l301 363h211l-336 -406v-12l336 -405h-211zM454 475v100l301 363h211l-336 -406v-12l336 -405h-211z" />
<glyph unicode="&#xac;" horiz-adv-x="1327" d="M137 606v199h1053v-529h-209v330h-844z" />
<glyph unicode="&#xad;" horiz-adv-x="806" d="M88 453v157h631v-157h-631z" />
<glyph unicode="&#xae;" horiz-adv-x="1662" d="M104 707q0 198 97.5 366t265.5 266.5t364 98.5q199 0 366 -98.5t264.5 -266.5t97.5 -366q0 -199 -97.5 -367t-264.5 -266.5t-366 -98.5q-197 0 -364.5 98.5t-265 266.5t-97.5 367zM238 707q0 -175 75.5 -313t212 -216t305.5 -78q170 0 306.5 78t212 216t75.5 313 q0 174 -75.5 312t-212 216t-306.5 78t-306 -78t-211.5 -216t-75.5 -312zM592 319v777h297q104 0 163.5 -57.5t59.5 -159.5q0 -76 -34 -129.5t-89 -77.5v-4l158 -349h-164l-123 291h-115v-291h-153zM745 719h101q59 0 91 34.5t32 100.5q0 129 -123 129h-101v-264z" />
<glyph unicode="&#xaf;" horiz-adv-x="708" d="M104 1274v149h498v-149h-498z" />
<glyph unicode="&#xb0;" horiz-adv-x="798" d="M102 1141q0 80 40 148.5t108.5 108.5t148.5 40t148.5 -40t108.5 -108.5t40 -148.5t-40 -148.5t-108.5 -108.5t-148.5 -40t-148.5 40t-108.5 108.5t-40 148.5zM227 1141q0 -72 51.5 -124t120.5 -52q70 0 121 52t51 124t-51 124t-121 52t-121 -52.5t-51 -123.5z" />
<glyph unicode="&#xb1;" horiz-adv-x="1331" d="M137 752v188h426v309h199v-309h428v-188h-428v-310h-199v310h-426zM141 133v182h1053v-182h-1053z" />
<glyph unicode="&#xb4;" horiz-adv-x="475" d="M127 1176l98 344h228v-19l-174 -325h-152z" />
<glyph unicode="&#xb6;" horiz-adv-x="1284" d="M74 946q0 215 119.5 341t328.5 126h232v-1591h-166v657h-66q-209 0 -328.5 126t-119.5 341zM940 -178v1591h166v-1591h-166z" />
<glyph unicode="&#xb7;" horiz-adv-x="663" d="M178 707q0 66 40 104.5t114 38.5t113.5 -39t39.5 -104q0 -66 -39.5 -105t-113.5 -39t-114 39t-40 105z" />
<glyph unicode="&#xb8;" horiz-adv-x="454" d="M57 -279q47 -6 82 -6q41 0 66.5 13.5t25.5 38.5q0 47 -79 47q-41 0 -74 -9v105q49 10 108 10q90 0 142.5 -39t52.5 -108q0 -74 -57.5 -119t-159.5 -45q-47 0 -107 6v106z" />
<glyph unicode="&#xba;" horiz-adv-x="765" d="M61 1067q0 166 85 263t237 97t237 -97t85 -263q0 -164 -85 -261t-237 -97t-237 97t-85 261zM233 1069q0 -227 150 -227t149 227q0 227 -149 227q-150 0 -150 -227z" />
<glyph unicode="&#xbb;" horiz-adv-x="1042" d="M76 115l334 403v17l-334 403h209l303 -363v-100l-303 -360h-209zM438 115l334 403v17l-334 403h209l303 -363v-100l-303 -360h-209z" />
<glyph unicode="&#xbc;" horiz-adv-x="1257" d="M-90 0l1151 1413h154l-1151 -1413h-154zM16 1205v116l191 93h115v-707h-146v575zM691 160v104l225 443h153l-233 -433h174l51 191h84v-191h94l-10 -114h-84v-160h-147l12 160h-319z" />
<glyph unicode="&#xbd;" horiz-adv-x="1255" d="M-90 0l1151 1413h154l-1151 -1413h-154zM16 1205v116l191 93h115v-707h-146v575zM737 0v123l191 199q53 53 77.5 94t24.5 84q0 47 -30.5 74.5t-90.5 27.5q-78 0 -155 -39v123q94 33 190 33q109 0 172.5 -50.5t63.5 -142.5q0 -74 -40 -134t-122 -138l-127 -125v-8h305 v-121h-459z" />
<glyph unicode="&#xbe;" horiz-adv-x="1347" d="M-2 0l1151 1413h154l-1151 -1413h-154zM55 695v114q145 0 221 31t76 98q0 86 -129 86q-61 0 -108 -8v103q113 16 165 42.5t52 73.5q0 37 -28 56.5t-77 19.5q-39 0 -86 -9t-86 -26v115q93 35 191 35q106 0 169.5 -43t63.5 -115q0 -57 -38 -99t-103 -67v-6q78 -14 121 -58 t43 -116q0 -227 -447 -227zM779 160v104l225 443h153l-233 -433h174l51 191h84v-191h94l-10 -114h-84v-160h-147l12 160h-319z" />
<glyph unicode="&#xbf;" horiz-adv-x="948" d="M98 -27q0 109 48.5 182.5t142.5 163.5q88 86 131 149.5t43 152.5v57h203v-76q0 -88 -28 -156.5t-65.5 -115.5t-99.5 -107q-70 -70 -101.5 -116t-31.5 -105q0 -92 64.5 -141t166.5 -49q72 0 152 18t145 47v-205q-63 -25 -152 -41t-171 -16q-201 0 -324 95t-123 263z M412 934q0 68 38.5 105.5t112.5 37.5q76 0 115 -38t39 -105q0 -66 -39 -103.5t-115 -37.5t-113.5 37.5t-37.5 103.5z" />
<glyph unicode="&#xc0;" horiz-adv-x="1265" d="M43 0l422 1413h336l424 -1413h-240l-113 373h-487l-113 -373h-229zM408 1861v19h227l98 -344h-149zM430 561h399l-190 619h-21z" />
<glyph unicode="&#xc1;" horiz-adv-x="1265" d="M43 0l422 1413h336l424 -1413h-240l-113 373h-487l-113 -373h-229zM430 561h399l-190 619h-21zM539 1536l98 344h228v-19l-174 -325h-152z" />
<glyph unicode="&#xc2;" horiz-adv-x="1265" d="M43 0l422 1413h336l424 -1413h-240l-113 373h-487l-113 -373h-229zM353 1536v18l184 326h192l185 -326v-18h-119l-162 190l-160 -190h-120zM430 561h399l-190 619h-21z" />
<glyph unicode="&#xc3;" horiz-adv-x="1265" d="M43 0l422 1413h336l424 -1413h-240l-113 373h-487l-113 -373h-229zM376 1599v145q60 72 142 72q29 0 57.5 -9t54.5 -22q61 -31 109 -30q74 0 123 61h12v-145q-59 -72 -139 -72q-29 0 -57.5 9t-55.5 22q-61 31 -108 30q-74 0 -123 -61h-15zM430 561h399l-190 619h-21z" />
<glyph unicode="&#xc4;" horiz-adv-x="1265" d="M43 0l422 1413h336l424 -1413h-240l-113 373h-487l-113 -373h-229zM314 1708q0 57 32.5 91t96.5 34q63 0 96 -34t33 -91q0 -59 -33 -92t-96 -33q-64 0 -96.5 32.5t-32.5 92.5zM430 561h399l-190 619h-21zM703 1708q0 57 33.5 91t97.5 34q63 0 96 -34t33 -91t-33 -91 t-96 -34t-97 33.5t-34 91.5z" />
<glyph unicode="&#xc5;" horiz-adv-x="1265" d="M43 0l422 1413h336l424 -1413h-240l-113 373h-487l-113 -373h-229zM430 561h399l-190 619h-21zM454 1708q0 76 51.5 120.5t137.5 44.5q84 0 135 -45t51 -120q0 -76 -51 -121t-135 -45q-86 0 -137.5 45t-51.5 121zM573 1708q0 -31 18.5 -48.5t51.5 -17.5t51 18.5t18 47.5 t-18 47t-51 18t-51.5 -17.5t-18.5 -47.5z" />
<glyph unicode="&#xc6;" horiz-adv-x="1751" d="M10 0l707 1413h958v-190h-598v-410h443v-190h-443v-433h598v-190h-827v373h-420l-186 -373h-232zM514 561h334v619h-23z" />
<glyph unicode="&#xc7;" horiz-adv-x="1134" d="M90 707q0 221 74 385.5t218 255t347 90.5q74 0 154 -12.5t141 -36.5v-209q-57 24 -138 39.5t-153 15.5q-199 0 -299 -141.5t-100 -386.5q0 -248 100.5 -388.5t300.5 -140.5q66 0 151 13.5t138 33.5v-209q-61 -18 -141 -29.5t-150 -11.5q-207 0 -351 90.5t-218 255 t-74 386.5zM475 -279q47 -6 82 -6q41 0 66.5 13.5t25.5 38.5q0 47 -79 47q-41 0 -74 -9v105q49 10 108 10q90 0 142.5 -39t52.5 -108q0 -74 -57.5 -119t-159.5 -45q-47 0 -107 6v106z" />
<glyph unicode="&#xc8;" horiz-adv-x="1089" d="M178 0v1413h836v-190h-598v-410h442v-190h-442v-433h598v-190h-836zM371 1861v19h227l98 -344h-149z" />
<glyph unicode="&#xc9;" horiz-adv-x="1089" d="M178 0v1413h836v-190h-598v-410h442v-190h-442v-433h598v-190h-836zM504 1536l98 344h228v-19l-174 -325h-152z" />
<glyph unicode="&#xca;" horiz-adv-x="1089" d="M178 0v1413h836v-190h-598v-410h442v-190h-442v-433h598v-190h-836zM318 1536v18l184 326h192l185 -326v-18h-119l-162 190l-160 -190h-120z" />
<glyph unicode="&#xcb;" horiz-adv-x="1089" d="M178 0v1413h836v-190h-598v-410h442v-190h-442v-433h598v-190h-836zM279 1708q0 57 32.5 91t96.5 34q63 0 96 -34t33 -91q0 -59 -33 -92t-96 -33q-64 0 -96.5 32.5t-32.5 92.5zM668 1708q0 57 33.5 91t97.5 34q63 0 96 -34t33 -91t-33 -91t-96 -34t-97 33.5t-34 91.5z " />
<glyph unicode="&#xcc;" horiz-adv-x="595" d="M72 1861v19h227l98 -344h-149zM178 0v1413h240v-1413h-240z" />
<glyph unicode="&#xcd;" horiz-adv-x="595" d="M178 0v1413h240v-1413h-240zM203 1536l98 344h228v-19l-174 -325h-152z" />
<glyph unicode="&#xce;" horiz-adv-x="595" d="M17 1536v18l184 326h192l185 -326v-18h-119l-162 190l-160 -190h-120zM178 0v1413h240v-1413h-240z" />
<glyph unicode="&#xcf;" horiz-adv-x="595" d="M-22 1708q0 57 32.5 91t96.5 34q63 0 96 -34t33 -91q0 -59 -33 -92t-96 -33q-64 0 -96.5 32.5t-32.5 92.5zM178 0v1413h240v-1413h-240zM367 1708q0 57 33.5 91t97.5 34q63 0 96 -34t33 -91t-33 -91t-96 -34t-97 33.5t-34 91.5z" />
<glyph unicode="&#xd0;" horiz-adv-x="1386" d="M51 635v145h127v633h508q293 0 451.5 -188.5t158.5 -517.5q0 -330 -159.5 -518.5t-450.5 -188.5h-508v635h-127zM416 197h268q190 0 280.5 135t90.5 375t-90.5 375t-280.5 135h-268v-437h317v-145h-317v-438z" />
<glyph unicode="&#xd1;" horiz-adv-x="1394" d="M178 0v1413h228l612 -1087h14q-33 248 -33 510v577h218v-1413h-228l-614 1087h-13q33 -248 33 -509v-578h-217zM442 1599v145q60 72 142 72q29 0 57.5 -9t54.5 -22q61 -31 109 -30q74 0 123 61h12v-145q-59 -72 -139 -72q-29 0 -57.5 9t-55.5 22q-61 31 -108 30 q-74 0 -123 -61h-15z" />
<glyph unicode="&#xd2;" horiz-adv-x="1388" d="M90 707q0 342 156.5 536.5t449.5 194.5q291 0 446.5 -194.5t155.5 -536.5t-155.5 -537t-446.5 -195q-293 0 -449.5 195t-156.5 537zM334 707q0 -252 87 -392.5t273 -140.5q188 0 275.5 139.5t87.5 393.5t-87 393t-276 139q-186 0 -273 -140.5t-87 -391.5zM467 1861v19 h227l98 -344h-149z" />
<glyph unicode="&#xd3;" horiz-adv-x="1388" d="M90 707q0 342 156.5 536.5t449.5 194.5q291 0 446.5 -194.5t155.5 -536.5t-155.5 -537t-446.5 -195q-293 0 -449.5 195t-156.5 537zM334 707q0 -252 87 -392.5t273 -140.5q188 0 275.5 139.5t87.5 393.5t-87 393t-276 139q-186 0 -273 -140.5t-87 -391.5zM600 1536 l98 344h228v-19l-174 -325h-152z" />
<glyph unicode="&#xd4;" horiz-adv-x="1388" d="M90 707q0 342 156.5 536.5t449.5 194.5q291 0 446.5 -194.5t155.5 -536.5t-155.5 -537t-446.5 -195q-293 0 -449.5 195t-156.5 537zM334 707q0 -252 87 -392.5t273 -140.5q188 0 275.5 139.5t87.5 393.5t-87 393t-276 139q-186 0 -273 -140.5t-87 -391.5zM414 1536v18 l184 326h192l185 -326v-18h-119l-162 190l-160 -190h-120z" />
<glyph unicode="&#xd5;" horiz-adv-x="1388" d="M90 707q0 342 156.5 536.5t449.5 194.5q291 0 446.5 -194.5t155.5 -536.5t-155.5 -537t-446.5 -195q-293 0 -449.5 195t-156.5 537zM334 707q0 -252 87 -392.5t273 -140.5q188 0 275.5 139.5t87.5 393.5t-87 393t-276 139q-186 0 -273 -140.5t-87 -391.5zM438 1599v145 q60 72 142 72q29 0 57.5 -9t54.5 -22q61 -31 109 -30q74 0 123 61h12v-145q-59 -72 -139 -72q-29 0 -57.5 9t-55.5 22q-61 31 -108 30q-74 0 -123 -61h-15z" />
<glyph unicode="&#xd6;" horiz-adv-x="1388" d="M90 707q0 342 156.5 536.5t449.5 194.5q291 0 446.5 -194.5t155.5 -536.5t-155.5 -537t-446.5 -195q-293 0 -449.5 195t-156.5 537zM334 707q0 -252 87 -392.5t273 -140.5q188 0 275.5 139.5t87.5 393.5t-87 393t-276 139q-186 0 -273 -140.5t-87 -391.5zM375 1708 q0 57 32.5 91t96.5 34q63 0 96 -34t33 -91q0 -59 -33 -92t-96 -33q-64 0 -96.5 32.5t-32.5 92.5zM764 1708q0 57 33.5 91t97.5 34q63 0 96 -34t33 -91t-33 -91t-96 -34t-97 33.5t-34 91.5z" />
<glyph unicode="&#xd7;" horiz-adv-x="1136" d="M125 403l305 306l-301 301l135 135l301 -301l305 305l142 -141l-305 -306l301 -301l-136 -135l-301 301l-305 -305z" />
<glyph unicode="&#xd8;" horiz-adv-x="1388" d="M90 707q0 342 156.5 536.5t449.5 194.5q166 0 291 -66l72 127h160l-117 -209q96 -94 146 -242.5t50 -340.5q0 -342 -155.5 -537t-446.5 -195q-168 0 -293 66l-71 -127h-162l119 211q-98 94 -148.5 242.5t-50.5 339.5zM334 707q0 -240 74 -369l477 850q-80 51 -191 51 q-186 0 -273 -140.5t-87 -391.5zM506 225q79 -51 188 -51q188 0 275.5 139.5t87.5 393.5q0 238 -74 370z" />
<glyph unicode="&#xd9;" horiz-adv-x="1351" d="M170 471v942h240v-934q0 -141 66.5 -223t199.5 -82t199.5 82t66.5 223v934h240v-942q0 -231 -133.5 -363.5t-372.5 -132.5q-240 0 -373 132.5t-133 363.5zM449 1861v19h227l98 -344h-149z" />
<glyph unicode="&#xda;" horiz-adv-x="1351" d="M170 471v942h240v-934q0 -141 66.5 -223t199.5 -82t199.5 82t66.5 223v934h240v-942q0 -231 -133.5 -363.5t-372.5 -132.5q-240 0 -373 132.5t-133 363.5zM582 1536l98 344h228v-19l-174 -325h-152z" />
<glyph unicode="&#xdb;" horiz-adv-x="1351" d="M170 471v942h240v-934q0 -141 66.5 -223t199.5 -82t199.5 82t66.5 223v934h240v-942q0 -231 -133.5 -363.5t-372.5 -132.5q-240 0 -373 132.5t-133 363.5zM396 1536v18l184 326h192l185 -326v-18h-119l-162 190l-160 -190h-120z" />
<glyph unicode="&#xdc;" horiz-adv-x="1351" d="M170 471v942h240v-934q0 -141 66.5 -223t199.5 -82t199.5 82t66.5 223v934h240v-942q0 -231 -133.5 -363.5t-372.5 -132.5q-240 0 -373 132.5t-133 363.5zM357 1708q0 57 32.5 91t96.5 34q63 0 96 -34t33 -91q0 -59 -33 -92t-96 -33q-64 0 -96.5 32.5t-32.5 92.5z M746 1708q0 57 33.5 91t97.5 34q63 0 96 -34t33 -91t-33 -91t-96 -34t-97 33.5t-34 91.5z" />
<glyph unicode="&#xdd;" horiz-adv-x="1224" d="M43 1413h264l297 -692h27l295 692h256l-449 -936v-477h-239v477zM518 1536l98 344h228v-19l-174 -325h-152z" />
<glyph unicode="&#xde;" horiz-adv-x="1179" d="M178 0v1413h240v-239h221q209 0 330 -126t121 -341t-121 -341t-330 -126h-221v-240h-240zM418 428h184q256 0 256 279t-256 278h-184v-557z" />
<glyph unicode="&#xdf;" horiz-adv-x="1236" d="M158 0v1081q0 203 109.5 321t316.5 118q118 0 209.5 -40t141.5 -111t50 -159q0 -74 -31.5 -126t-93.5 -117q-47 -51 -70.5 -87t-23.5 -77q0 -51 37 -85t121 -83q78 -45 127 -84t84.5 -101.5t35.5 -152.5q0 -150 -96 -236t-262 -86q-72 0 -146.5 18.5t-125.5 49.5v193 q53 -39 130 -67t134 -28q66 0 103.5 38t37.5 97q0 63 -43 106.5t-131 96.5q-72 45 -115 79t-72.5 85t-29.5 119t27.5 118t83.5 117q47 59 69.5 98.5t22.5 86.5q0 66 -47 107.5t-125 41.5q-92 0 -142.5 -65.5t-50.5 -184.5v-1081h-235z" />
<glyph unicode="&#xe0;" d="M74 289q0 164 106.5 245.5t298.5 81.5q88 0 176 -12v94q0 94 -53 144.5t-156 50.5q-72 0 -153.5 -20.5t-140.5 -51.5v185q68 33 154.5 52t176.5 19q195 0 301.5 -95t106.5 -275v-445l37 -262h-191l-41 115h-14q-59 -66 -137 -103t-166 -37q-137 0 -221 83t-84 231z M277 1501v19h227l98 -344h-149zM281 295q0 -80 42 -124t117 -44q115 0 217 94l-2 6v244q-76 6 -143 6q-231 0 -231 -182z" />
<glyph unicode="&#xe1;" d="M74 289q0 164 106.5 245.5t298.5 81.5q88 0 176 -12v94q0 94 -53 144.5t-156 50.5q-72 0 -153.5 -20.5t-140.5 -51.5v185q68 33 154.5 52t176.5 19q195 0 301.5 -95t106.5 -275v-445l37 -262h-191l-41 115h-14q-59 -66 -137 -103t-166 -37q-137 0 -221 83t-84 231z M281 295q0 -80 42 -124t117 -44q115 0 217 94l-2 6v244q-76 6 -143 6q-231 0 -231 -182zM408 1176l98 344h228v-19l-174 -325h-152z" />
<glyph unicode="&#xe2;" d="M74 289q0 164 106.5 245.5t298.5 81.5q88 0 176 -12v94q0 94 -53 144.5t-156 50.5q-72 0 -153.5 -20.5t-140.5 -51.5v185q68 33 154.5 52t176.5 19q195 0 301.5 -95t106.5 -275v-445l37 -262h-191l-41 115h-14q-59 -66 -137 -103t-166 -37q-137 0 -221 83t-84 231z M222 1176v18l184 326h192l185 -326v-18h-119l-162 190l-160 -190h-120zM281 295q0 -80 42 -124t117 -44q115 0 217 94l-2 6v244q-76 6 -143 6q-231 0 -231 -182z" />
<glyph unicode="&#xe3;" d="M74 289q0 164 106.5 245.5t298.5 81.5q88 0 176 -12v94q0 94 -53 144.5t-156 50.5q-72 0 -153.5 -20.5t-140.5 -51.5v185q68 33 154.5 52t176.5 19q195 0 301.5 -95t106.5 -275v-445l37 -262h-191l-41 115h-14q-59 -66 -137 -103t-166 -37q-137 0 -221 83t-84 231z M245 1239v145q60 72 142 72q29 0 57.5 -9t54.5 -22q61 -31 109 -30q74 0 123 61h12v-145q-59 -72 -139 -72q-29 0 -57.5 9t-55.5 22q-61 31 -108 30q-74 0 -123 -61h-15zM281 295q0 -80 42 -124t117 -44q115 0 217 94l-2 6v244q-76 6 -143 6q-231 0 -231 -182z" />
<glyph unicode="&#xe4;" d="M74 289q0 164 106.5 245.5t298.5 81.5q88 0 176 -12v94q0 94 -53 144.5t-156 50.5q-72 0 -153.5 -20.5t-140.5 -51.5v185q68 33 154.5 52t176.5 19q195 0 301.5 -95t106.5 -275v-445l37 -262h-191l-41 115h-14q-59 -66 -137 -103t-166 -37q-137 0 -221 83t-84 231z M183 1348q0 57 32.5 91t96.5 34q63 0 96 -34t33 -91q0 -59 -33 -92t-96 -33q-64 0 -96.5 32.5t-32.5 92.5zM281 295q0 -80 42 -124t117 -44q115 0 217 94l-2 6v244q-76 6 -143 6q-231 0 -231 -182zM572 1348q0 57 33.5 91t97.5 34q63 0 96 -34t33 -91t-33 -91t-96 -34 t-97 33.5t-34 91.5z" />
<glyph unicode="&#xe5;" d="M74 289q0 164 106.5 245.5t298.5 81.5q88 0 176 -12v94q0 94 -53 144.5t-156 50.5q-72 0 -153.5 -20.5t-140.5 -51.5v185q68 33 154.5 52t176.5 19q195 0 301.5 -95t106.5 -275v-445l37 -262h-191l-41 115h-14q-59 -66 -137 -103t-166 -37q-137 0 -221 83t-84 231z M281 295q0 -80 42 -124t117 -44q115 0 217 94l-2 6v244q-76 6 -143 6q-231 0 -231 -182zM323 1348q0 76 51.5 120.5t137.5 44.5q84 0 135 -45t51 -120q0 -76 -51 -121t-135 -45q-86 0 -137.5 45t-51.5 121zM442 1348q0 -31 18.5 -48.5t51.5 -17.5t51 18.5t18 47.5t-18 47 t-51 18t-51.5 -17.5t-18.5 -47.5z" />
<glyph unicode="&#xe6;" horiz-adv-x="1636" d="M74 295q0 160 106.5 240.5t298.5 80.5q88 0 176 -12v94q0 95 -53 145t-156 50q-72 0 -153.5 -20.5t-140.5 -51.5v185q68 33 154.5 52t174.5 19q219 0 320 -129q117 129 311 129q201 0 317.5 -138t116.5 -388q0 -47 -6 -94h-659q6 -145 79.5 -225t223.5 -80q74 0 151.5 16 t145.5 47v-178q-70 -29 -158 -45.5t-164 -16.5q-254 0 -379 170q-76 -76 -172 -123t-205 -47q-145 0 -237 84t-92 236zM281 297q0 -80 46 -125t128 -45q78 0 143.5 39t114.5 102q-35 92 -41 201q-74 8 -160 8q-111 0 -171 -44t-60 -136zM881 602h452v14q0 131 -56 213 t-165 82q-121 0 -173 -93t-58 -216z" />
<glyph unicode="&#xe7;" horiz-adv-x="913" d="M90 526q0 252 131 401.5t367 149.5q102 0 215 -35v-196q-41 18 -99.5 30.5t-107.5 12.5q-129 0 -195.5 -93.5t-66.5 -267.5q0 -176 67.5 -270t202.5 -94q47 0 102.5 12t96.5 33v-193q-102 -41 -217 -41q-231 0 -363.5 149.5t-132.5 401.5zM362 -279q47 -6 82 -6 q41 0 66.5 13.5t25.5 38.5q0 47 -79 47q-41 0 -74 -9v105q49 10 108 10q90 0 142.5 -39t52.5 -108q0 -74 -57.5 -119t-159.5 -45q-47 0 -107 6v106z" />
<glyph unicode="&#xe8;" horiz-adv-x="1071" d="M90 532q0 250 120 397.5t333 147.5q205 0 321.5 -138t116.5 -386q0 -49 -6 -96h-660q6 -145 80 -225t223 -80q74 0 152 16t145 47v-178q-69 -29 -158 -45.5t-165 -16.5q-244 0 -373 150.5t-129 406.5zM308 1501v19h227l98 -344h-149zM315 602h453v14q0 131 -56.5 213 t-164.5 82q-121 0 -173 -93t-59 -216z" />
<glyph unicode="&#xe9;" horiz-adv-x="1071" d="M90 532q0 250 120 397.5t333 147.5q205 0 321.5 -138t116.5 -386q0 -49 -6 -96h-660q6 -145 80 -225t223 -80q74 0 152 16t145 47v-178q-69 -29 -158 -45.5t-165 -16.5q-244 0 -373 150.5t-129 406.5zM315 602h453v14q0 131 -56.5 213t-164.5 82q-121 0 -173 -93 t-59 -216zM438 1176l98 344h228v-19l-174 -325h-152z" />
<glyph unicode="&#xea;" horiz-adv-x="1071" d="M90 532q0 250 120 397.5t333 147.5q205 0 321.5 -138t116.5 -386q0 -49 -6 -96h-660q6 -145 80 -225t223 -80q74 0 152 16t145 47v-178q-69 -29 -158 -45.5t-165 -16.5q-244 0 -373 150.5t-129 406.5zM252 1176v18l184 326h192l185 -326v-18h-119l-162 190l-160 -190 h-120zM315 602h453v14q0 131 -56.5 213t-164.5 82q-121 0 -173 -93t-59 -216z" />
<glyph unicode="&#xeb;" horiz-adv-x="1071" d="M90 532q0 250 120 397.5t333 147.5q205 0 321.5 -138t116.5 -386q0 -49 -6 -96h-660q6 -145 80 -225t223 -80q74 0 152 16t145 47v-178q-69 -29 -158 -45.5t-165 -16.5q-244 0 -373 150.5t-129 406.5zM213 1348q0 57 32.5 91t96.5 34q63 0 96 -34t33 -91q0 -59 -33 -92 t-96 -33q-64 0 -96.5 32.5t-32.5 92.5zM315 602h453v14q0 131 -56.5 213t-164.5 82q-121 0 -173 -93t-59 -216zM602 1348q0 57 33.5 91t97.5 34q63 0 96 -34t33 -91t-33 -91t-96 -34t-97 33.5t-34 91.5z" />
<glyph unicode="&#xec;" horiz-adv-x="567" d="M58 1501v19h227l98 -344h-149zM166 0v1053h235v-1053h-235z" />
<glyph unicode="&#xed;" horiz-adv-x="567" d="M166 0v1053h235v-1053h-235zM188 1176l98 344h228v-19l-174 -325h-152z" />
<glyph unicode="&#xee;" horiz-adv-x="567" d="M3 1176v18l184 326h192l185 -326v-18h-119l-162 190l-160 -190h-120zM166 0v1053h235v-1053h-235z" />
<glyph unicode="&#xef;" horiz-adv-x="567" d="M6 1397q0 55 30.5 90t88.5 35q59 0 89.5 -35t30.5 -90q0 -57 -30.5 -92t-89.5 -35q-58 0 -88.5 34.5t-30.5 92.5zM166 0v1053h235v-1053h-235zM323 1397q0 55 31 90t88 35q59 0 90 -35t31 -90q0 -57 -31 -92t-90 -35q-57 0 -88 34.5t-31 92.5z" />
<glyph unicode="&#xf0;" horiz-adv-x="1208" d="M90 440q0 133 56.5 232.5t154.5 153t219 53.5q111 0 201 -45.5t147 -120.5h11q-14 242 -142 432l-260 -127l-45 104l232 115q-131 143 -332 240v18h276q133 -78 230 -174l225 111l43 -105l-191 -94q203 -258 203 -612q0 -301 -142 -473.5t-394 -172.5q-145 0 -257 57.5 t-173.5 163t-61.5 244.5zM317 426q0 -127 73 -199.5t192 -72.5q141 0 215.5 103t83.5 280q-51 76 -128 118.5t-169 42.5q-123 0 -195 -73.5t-72 -198.5z" />
<glyph unicode="&#xf1;" horiz-adv-x="1193" d="M129 1053h225l23 -129h20q63 68 149.5 110.5t182.5 42.5q139 0 223 -88t84 -235v-754h-235v686q0 86 -47 135t-129 49q-59 0 -117.5 -25.5t-106.5 -68.5v-776h-235v791zM340 1239v145q60 72 142 72q29 0 57.5 -9t54.5 -22q61 -31 109 -30q74 0 123 61h12v-145 q-59 -72 -139 -72q-29 0 -57.5 9t-55.5 22q-61 31 -108 30q-74 0 -123 -61h-15z" />
<glyph unicode="&#xf2;" horiz-adv-x="1148" d="M90 526q0 252 128 401.5t357 149.5t356.5 -149.5t127.5 -401.5t-127 -401.5t-357 -149.5q-229 0 -357 149.5t-128 401.5zM330 526q0 -174 59.5 -270t183.5 -96q127 0 186.5 96t59.5 270t-60.5 270.5t-185.5 96.5t-184 -96.5t-59 -270.5zM349 1501v19h227l98 -344h-149z " />
<glyph unicode="&#xf3;" horiz-adv-x="1148" d="M90 526q0 252 128 401.5t357 149.5t356.5 -149.5t127.5 -401.5t-127 -401.5t-357 -149.5q-229 0 -357 149.5t-128 401.5zM330 526q0 -174 59.5 -270t183.5 -96q127 0 186.5 96t59.5 270t-60.5 270.5t-185.5 96.5t-184 -96.5t-59 -270.5zM479 1176l98 344h228v-19 l-174 -325h-152z" />
<glyph unicode="&#xf4;" horiz-adv-x="1148" d="M90 526q0 252 128 401.5t357 149.5t356.5 -149.5t127.5 -401.5t-127 -401.5t-357 -149.5q-229 0 -357 149.5t-128 401.5zM293 1176v18l184 326h192l185 -326v-18h-119l-162 190l-160 -190h-120zM330 526q0 -174 59.5 -270t183.5 -96q127 0 186.5 96t59.5 270t-60.5 270.5 t-185.5 96.5t-184 -96.5t-59 -270.5z" />
<glyph unicode="&#xf5;" horiz-adv-x="1148" d="M90 526q0 252 128 401.5t357 149.5t356.5 -149.5t127.5 -401.5t-127 -401.5t-357 -149.5q-229 0 -357 149.5t-128 401.5zM317 1239v145q60 72 142 72q29 0 57.5 -9t54.5 -22q61 -31 109 -30q74 0 123 61h12v-145q-59 -72 -139 -72q-29 0 -57.5 9t-55.5 22q-61 31 -108 30 q-74 0 -123 -61h-15zM330 526q0 -174 59.5 -270t183.5 -96q127 0 186.5 96t59.5 270t-60.5 270.5t-185.5 96.5t-184 -96.5t-59 -270.5z" />
<glyph unicode="&#xf6;" horiz-adv-x="1148" d="M90 526q0 252 128 401.5t357 149.5t356.5 -149.5t127.5 -401.5t-127 -401.5t-357 -149.5q-229 0 -357 149.5t-128 401.5zM254 1348q0 57 32.5 91t96.5 34q63 0 96 -34t33 -91q0 -59 -33 -92t-96 -33q-64 0 -96.5 32.5t-32.5 92.5zM330 526q0 -174 59.5 -270t183.5 -96 q127 0 186.5 96t59.5 270t-60.5 270.5t-185.5 96.5t-184 -96.5t-59 -270.5zM643 1348q0 57 33.5 91t97.5 34q63 0 96 -34t33 -91t-33 -91t-96 -34t-97 33.5t-34 91.5z" />
<glyph unicode="&#xf7;" horiz-adv-x="1327" d="M137 606v199h1053v-199h-1053zM522 268q0 60 36 94.5t106 34.5t104.5 -34.5t34.5 -94.5q0 -61 -35 -96t-104 -35q-70 0 -106 35t-36 96zM522 1145q0 61 36 95t106 34t104.5 -34t34.5 -95t-35 -96t-104 -35q-70 0 -106 34.5t-36 96.5z" />
<glyph unicode="&#xf8;" horiz-adv-x="1148" d="M88 -86l137 203q-66 74 -100.5 178t-34.5 231q0 252 128 401.5t357 149.5q139 0 250 -61l82 123h154l-137 -203q66 -74 100.5 -178.5t34.5 -231.5q0 -252 -127 -401.5t-357 -149.5q-145 1 -249 62l-84 -123h-154zM330 526q-1 -133 32 -217l357 535q-59 49 -146 49 q-125 0 -184 -96.5t-59 -270.5zM432 207q57 -47 141 -47q127 0 186.5 96t59.5 270q0 129 -33 215z" />
<glyph unicode="&#xf9;" horiz-adv-x="1171" d="M158 299v754h235v-686q0 -88 44 -137.5t122 -49.5q113 0 211 92v781h236v-791l36 -262h-225l-22 129h-21q-59 -68 -143 -111t-178 -43q-135 0 -215 88.5t-80 235.5zM357 1501v19h227l98 -344h-149z" />
<glyph unicode="&#xfa;" horiz-adv-x="1171" d="M158 299v754h235v-686q0 -88 44 -137.5t122 -49.5q113 0 211 92v781h236v-791l36 -262h-225l-22 129h-21q-59 -68 -143 -111t-178 -43q-135 0 -215 88.5t-80 235.5zM487 1176l98 344h228v-19l-174 -325h-152z" />
<glyph unicode="&#xfb;" horiz-adv-x="1171" d="M158 299v754h235v-686q0 -88 44 -137.5t122 -49.5q113 0 211 92v781h236v-791l36 -262h-225l-22 129h-21q-59 -68 -143 -111t-178 -43q-135 0 -215 88.5t-80 235.5zM302 1176v18l184 326h192l185 -326v-18h-119l-162 190l-160 -190h-120z" />
<glyph unicode="&#xfc;" horiz-adv-x="1171" d="M158 299v754h235v-686q0 -88 44 -137.5t122 -49.5q113 0 211 92v781h236v-791l36 -262h-225l-22 129h-21q-59 -68 -143 -111t-178 -43q-135 0 -215 88.5t-80 235.5zM262 1348q0 57 32.5 91t96.5 34q63 0 96 -34t33 -91q0 -59 -33 -92t-96 -33q-64 0 -96.5 32.5 t-32.5 92.5zM651 1348q0 57 33.5 91t97.5 34q63 0 96 -34t33 -91t-33 -91t-96 -34t-97 33.5t-34 91.5z" />
<glyph unicode="&#xfd;" horiz-adv-x="1021" d="M-10 -211q45 -16 102.5 -25.5t100.5 -9.5q98 0 157.5 58.5t110.5 197.5h-113l-321 1043h243l236 -852h26l238 852h225l-338 -1082q-55 -188 -165.5 -296.5t-286.5 -108.5q-49 0 -109.5 8t-105.5 23v192zM416 1176l98 344h228v-19l-174 -325h-152z" />
<glyph unicode="&#xfe;" horiz-adv-x="1189" d="M166 -410v1905h235v-575h11q39 68 115.5 112.5t177.5 44.5q117 0 206.5 -65.5t139 -186t49.5 -282.5q0 -180 -62.5 -308.5t-172 -194t-249.5 -65.5q-121 0 -215 54v-439h-235zM401 211q97 -51 197 -51q131 0 196.5 97t65.5 271t-58.5 269.5t-172.5 95.5q-102 0 -165 -76 t-63 -203v-403z" />
<glyph unicode="&#xff;" horiz-adv-x="1021" d="M-10 -211q45 -16 102.5 -25.5t100.5 -9.5q98 0 157.5 58.5t110.5 197.5h-113l-321 1043h243l236 -852h26l238 852h225l-338 -1082q-55 -188 -165.5 -296.5t-286.5 -108.5q-49 0 -109.5 8t-105.5 23v192zM191 1348q0 57 32.5 91t96.5 34q63 0 96 -34t33 -91q0 -59 -33 -92 t-96 -33q-64 0 -96.5 32.5t-32.5 92.5zM580 1348q0 57 33.5 91t97.5 34q63 0 96 -34t33 -91t-33 -91t-96 -34t-97 33.5t-34 91.5z" />
<glyph unicode="&#x152;" horiz-adv-x="1759" d="M90 707q0 338 156.5 534.5t449.5 196.5q98 0 181 -25h804v-190h-598v-410h445v-190h-445v-433h598v-190h-804q-82 -25 -181 -25q-293 0 -449.5 197t-156.5 535zM334 707q0 -252 89 -392.5t279 -140.5q74 0 144 27v1011q-70 27 -144 27q-190 0 -279 -140.5t-89 -391.5z " />
<glyph unicode="&#x153;" horiz-adv-x="1800" d="M90 526q0 250 127 400.5t350 150.5q121 0 213 -46t150 -134q55 88 143 134t203 46q203 0 318.5 -138t115.5 -386q0 -49 -6 -96h-660q6 -145 80 -225t224 -80q74 0 151.5 16t145.5 47v-178q-70 -29 -158 -45.5t-164 -16.5q-131 0 -229.5 49.5t-159.5 139.5 q-57 -90 -150.5 -139.5t-216.5 -49.5q-147 0 -254.5 69t-165 193.5t-57.5 288.5zM330 526q0 -174 59.5 -270t183.5 -96q127 0 186.5 96t59.5 270t-60.5 270.5t-185.5 96.5t-184 -96.5t-59 -270.5zM1044 602h453v14q0 131 -55.5 213t-165.5 82q-119 0 -172 -93t-60 -216z" />
<glyph unicode="&#x178;" horiz-adv-x="1224" d="M43 1413h264l297 -692h27l295 692h256l-449 -936v-477h-239v477zM293 1708q0 57 32.5 91t96.5 34q63 0 96 -34t33 -91q0 -59 -33 -92t-96 -33q-64 0 -96.5 32.5t-32.5 92.5zM682 1708q0 57 33.5 91t97.5 34q63 0 96 -34t33 -91t-33 -91t-96 -34t-97 33.5t-34 91.5z" />
<glyph unicode="&#x2c6;" horiz-adv-x="778" d="M109 1176v18l184 326h192l185 -326v-18h-119l-162 190l-160 -190h-120z" />
<glyph unicode="&#x2dc;" horiz-adv-x="708" d="M104 1239v145q60 72 142 72q29 0 57.5 -9t54.5 -22q61 -31 109 -30q74 0 123 61h12v-145q-59 -72 -139 -72q-29 0 -57.5 9t-55.5 22q-61 31 -108 30q-74 0 -123 -61h-15z" />
<glyph unicode="&#x2000;" horiz-adv-x="940" />
<glyph unicode="&#x2001;" horiz-adv-x="1880" />
<glyph unicode="&#x2002;" horiz-adv-x="940" />
<glyph unicode="&#x2003;" horiz-adv-x="1880" />
<glyph unicode="&#x2004;" horiz-adv-x="626" />
<glyph unicode="&#x2005;" horiz-adv-x="470" />
<glyph unicode="&#x2006;" horiz-adv-x="313" />
<glyph unicode="&#x2007;" horiz-adv-x="313" />
<glyph unicode="&#x2008;" horiz-adv-x="235" />
<glyph unicode="&#x2009;" horiz-adv-x="376" />
<glyph unicode="&#x200a;" horiz-adv-x="104" />
<glyph unicode="&#x2010;" horiz-adv-x="806" d="M88 453v157h631v-157h-631z" />
<glyph unicode="&#x2011;" horiz-adv-x="806" d="M88 453v157h631v-157h-631z" />
<glyph unicode="&#x2012;" horiz-adv-x="806" d="M88 453v157h631v-157h-631z" />
<glyph unicode="&#x2013;" horiz-adv-x="870" d="M0 453v157h870v-157h-870z" />
<glyph unicode="&#x2014;" horiz-adv-x="1460" d="M0 453v157h1460v-157h-1460z" />
<glyph unicode="&#x2018;" horiz-adv-x="575" d="M137 1055q0 96 45 228t113 226h119q-77 -173 -97 -333q61 -8 92 -44t31 -96q0 -66 -40 -102.5t-115 -36.5q-76 0 -112 39t-36 119z" />
<glyph unicode="&#x2019;" horiz-adv-x="575" d="M137 1379q0 66 39 103.5t115 37.5q150 0 149 -158q0 -96 -46 -228t-113 -226h-119q78 187 96 332q-59 8 -90 43.5t-31 95.5z" />
<glyph unicode="&#x201a;" horiz-adv-x="575" d="M137 119q0 66 39 103.5t115 37.5q150 0 149 -158q0 -96 -46 -228t-113 -226h-119q78 187 96 332q-59 8 -90 43.5t-31 95.5z" />
<glyph unicode="&#x201c;" horiz-adv-x="980" d="M137 1041q0 96 45 228t113 226h119q-77 -173 -97 -333q61 -8 92 -44t31 -96q0 -66 -40 -102.5t-115 -36.5q-76 0 -112 39t-36 119zM540 1041q0 96 45 228t113 226h119q-77 -173 -97 -333q61 -8 92 -44t31 -96q0 -66 -40 -102.5t-115 -36.5q-76 0 -112 39t-36 119z" />
<glyph unicode="&#x201d;" horiz-adv-x="980" d="M137 1379q0 66 39 103.5t115 37.5q150 0 149 -158q0 -96 -46 -228t-113 -226h-119q78 187 96 332q-59 8 -90 43.5t-31 95.5zM540 1379q0 66 39 103.5t115 37.5q150 0 149 -158q0 -96 -46 -228t-113 -226h-119q78 187 96 332q-59 8 -90 43.5t-31 95.5z" />
<glyph unicode="&#x201e;" horiz-adv-x="980" d="M137 119q0 66 39 103.5t115 37.5q150 0 149 -158q0 -96 -46 -228t-113 -226h-119q78 187 96 332q-59 8 -90 43.5t-31 95.5zM540 119q0 66 39 103.5t115 37.5q150 0 149 -158q0 -96 -46 -228t-113 -226h-119q78 187 96 332q-59 8 -90 43.5t-31 95.5z" />
<glyph unicode="&#x2022;" horiz-adv-x="796" d="M178 707q0 94 57.5 150t163.5 56q104 0 161.5 -56t57.5 -150q0 -92 -57 -149.5t-162 -57.5q-106 0 -163.5 57t-57.5 150z" />
<glyph unicode="&#x2026;" horiz-adv-x="1624" d="M137 119q0 68 39 106.5t115 38.5t114.5 -39t38.5 -106q0 -68 -38.5 -106t-114.5 -38t-115 38t-39 106zM657 119q0 68 39 106.5t115 38.5t114.5 -39t38.5 -106q0 -68 -38.5 -106t-114.5 -38t-115 38t-39 106zM1179 119q0 68 39 106.5t115 38.5t114.5 -39t38.5 -106 q0 -68 -38.5 -106t-114.5 -38t-115 38t-39 106z" />
<glyph unicode="&#x202f;" horiz-adv-x="376" />
<glyph unicode="&#x2039;" horiz-adv-x="679" d="M92 475v100l301 363h211l-336 -406v-12l336 -405h-211z" />
<glyph unicode="&#x203a;" horiz-adv-x="679" d="M76 115l334 403v17l-334 403h209l303 -363v-100l-303 -360h-209z" />
<glyph unicode="&#x205f;" horiz-adv-x="470" />
<glyph unicode="&#x20ac;" horiz-adv-x="1175" d="M111 707q0 221 73.5 385.5t218 255t347.5 90.5q74 0 153.5 -12.5t140.5 -36.5v-209q-57 24 -138 39.5t-152 15.5q-154 0 -247 -83t-130 -237h399v-133h-420q-2 -25 -2 -75q0 -51 2 -76h420v-133h-399q37 -154 131 -237t248 -83q66 0 150.5 13.5t137.5 33.5v-209 q-61 -18 -141 -29.5t-149 -11.5q-207 0 -351.5 90.5t-218 255t-73.5 386.5z" />
<glyph unicode="&#x2122;" horiz-adv-x="1718" d="M43 1290v123h549v-123h-199v-653h-153v653h-197zM662 637l88 776h211l180 -625h16l180 625h207l90 -776h-155l-37 405q-8 90 -12 203h-15l-180 -608h-188l-185 608h-12q-8 -135 -14 -201l-39 -407h-135z" />
<glyph unicode="&#x25fc;" horiz-adv-x="1054" d="M0 0v1055h1055v-1055h-1055z" />
</font>
</defs>
</svg>
