<svg width="110" height="32" viewBox="0 0 110 32" fill="none" xmlns="http://www.w3.org/2000/svg">
<path d="M54.92 17.4962C52.8555 17.4962 51.1728 19.0488 51.1728 21.1925C51.1728 23.3362 52.8555 24.8888 54.92 24.8888C56.9845 24.8888 58.6708 23.3212 58.6708 21.1925C58.6708 19.0525 56.9882 17.4962 54.92 17.4962ZM54.92 23.4297C53.7894 23.4297 52.8139 22.5057 52.8139 21.1888C52.8139 19.8718 53.7894 18.9478 54.92 18.9478C56.0505 18.9478 57.026 19.8569 57.026 21.1888C57.026 22.5206 56.0505 23.4297 54.92 23.4297ZM46.7414 17.4962C44.6768 17.4962 42.9942 19.0488 42.9942 21.1925C42.9942 23.3362 44.6768 24.8888 46.7414 24.8888C48.8059 24.8888 50.4922 23.3212 50.4922 21.1925C50.4922 19.0638 48.8096 17.4962 46.7414 17.4962ZM46.7414 23.4297C45.6108 23.4297 44.6353 22.5057 44.6353 21.1888C44.6353 19.8718 45.6108 18.9478 46.7414 18.9478C47.8719 18.9478 48.8474 19.8569 48.8474 21.1888C48.8474 22.5057 47.8719 23.4297 46.7414 23.4297ZM37.0125 18.6298V20.1973H40.805C40.6915 21.0803 40.3966 21.7237 39.9429 22.1689C39.3908 22.7152 38.5287 23.3175 37.0163 23.3175C34.6833 23.3175 32.857 21.4544 32.857 19.1461C32.857 16.8377 34.6833 14.9746 37.0163 14.9746C38.2754 14.9746 39.1942 15.4647 39.8748 16.0932L40.994 14.9858C40.045 14.0917 38.7858 13.4033 37.02 13.4033C33.8212 13.4033 31.1366 15.9773 31.1366 19.1423C31.1366 22.3074 33.825 24.8813 37.02 24.8813C38.7442 24.8813 40.0487 24.3201 41.0659 23.2726C42.1132 22.2363 42.4384 20.781 42.4384 19.6062C42.4384 19.2433 42.4119 18.9066 42.3514 18.626H37.02L37.0125 18.6298ZM76.7976 19.8457C76.4876 19.0189 75.5385 17.4924 73.5988 17.4924C71.6591 17.4924 70.0748 18.9889 70.0748 21.1888C70.0748 23.2614 71.6591 24.8851 73.7803 24.8851C75.4931 24.8851 76.4838 23.8487 76.8921 23.2464L75.6179 22.4046C75.1944 23.0219 74.6121 23.426 73.7765 23.426C72.9409 23.426 72.3472 23.0481 71.9653 22.3074L76.9602 20.2647L76.7901 19.8457H76.7976ZM71.7044 21.0803C71.6628 19.6511 72.8236 18.9253 73.6555 18.9253C74.3058 18.9253 74.8579 19.2471 75.0432 19.7072L71.7044 21.0803ZM67.6435 24.6606H69.2845V13.7999H67.6435V24.6606ZM64.9551 18.3193H64.8984C64.5316 17.8853 63.8245 17.4924 62.9322 17.4924C61.0643 17.4924 59.3514 19.1161 59.3514 21.2037C59.3514 23.2913 61.0643 24.8851 62.9322 24.8851C63.8245 24.8851 64.5316 24.4922 64.8984 24.047H64.9551V24.5783C64.9551 25.9925 64.1913 26.7482 62.9624 26.7482C61.9567 26.7482 61.3365 26.0336 61.0794 25.4313L59.6502 26.0186C60.0585 26.9988 61.1475 28.2035 62.9624 28.2035C64.887 28.2035 66.5129 27.0849 66.5129 24.3538V17.7207H64.9551V18.323V18.3193ZM63.0759 23.4297C61.9453 23.4297 60.9962 22.4907 60.9962 21.2037C60.9962 19.9167 61.9453 18.9515 63.0759 18.9515C64.2064 18.9515 65.0685 19.9018 65.0685 21.2037C65.0685 22.5057 64.1913 23.4297 63.0759 23.4297ZM84.4847 13.7999H80.5599V24.6606H82.1971V20.5453H84.4847C86.2996 20.5453 88.0881 19.2433 88.0881 17.1707C88.0881 15.0981 86.3034 13.7961 84.4885 13.7961L84.4847 13.7999ZM84.5263 19.0338H82.1971V15.3113H84.5263C85.7514 15.3113 86.4471 16.314 86.4471 17.1744C86.4471 18.0349 85.7514 19.0338 84.5263 19.0338ZM94.6522 17.4775C93.4649 17.4775 92.236 17.9938 91.7293 19.1386L93.1851 19.7372C93.4951 19.1386 94.0736 18.9403 94.6824 18.9403C95.5294 18.9403 96.3915 19.4416 96.4066 20.3358V20.448C96.1117 20.2796 95.4727 20.029 94.6975 20.029C93.1284 20.029 91.5327 20.882 91.5327 22.4757C91.5327 23.931 92.8183 24.8663 94.2589 24.8663C95.3592 24.8663 95.968 24.3763 96.3499 23.8038H96.4066V24.6419H97.9871V20.4779C97.9871 18.5512 96.5314 17.4737 94.6559 17.4737L94.6522 17.4775ZM94.4555 23.4297C93.9186 23.4297 93.17 23.1641 93.17 22.5057C93.17 21.6676 94.1039 21.3459 94.9093 21.3459C95.6277 21.3459 95.968 21.4993 96.4066 21.7088C96.278 22.7152 95.4046 23.4297 94.4555 23.4297ZM103.746 17.7132L101.867 22.4233H101.81L99.8588 17.7132H98.093L101.016 24.2939L99.3483 27.9566H101.057L105.565 17.7132H103.742H103.746ZM88.9918 24.6606H90.629V13.7999H88.9918V24.6606Z" fill="#1D1D1B"/>
<path fill-rule="evenodd" clip-rule="evenodd" d="M17.7929 10.9603L7.67459 5.154C7.2927 4.92578 6.84652 4.79858 6.3701 4.79858C5.387 4.79858 4.52112 5.38969 4.1052 6.21276L4.18082 6.28758L13.3501 15.3562L17.7929 10.9603ZM3.8443 7.18921C3.8443 7.22662 3.8443 7.26403 3.8443 7.2977V24.6456C3.8443 24.683 3.8443 24.7205 3.8443 24.7541L12.7262 15.9698L3.8443 7.18547V7.18921ZM4.1052 25.7306C4.52112 26.5574 5.387 27.1448 6.3701 27.1448C6.83518 27.1448 7.27379 27.0213 7.65191 26.8006L7.68216 26.7819L17.8118 20.998L13.3501 16.5834L4.18082 25.652L4.1052 25.7268V25.7306ZM18.5945 20.5528L22.7197 18.1958C23.5138 17.7731 24.0507 16.9462 24.0507 15.9922C24.0507 15.0382 23.5213 14.2227 22.7349 13.7999L22.7273 13.7924L18.5794 11.413L13.9702 15.9735L18.5983 20.5528H18.5945Z" fill="#1D1D1B"/>
<path d="M31.5222 9.9689V4.5105H33.3447C34.0442 4.5105 34.6152 4.72749 35.0538 5.15772C35.4924 5.5917 35.7117 6.1454 35.7117 6.8263V7.6531C35.7117 8.33774 35.4924 8.89144 35.0538 9.32168C34.6152 9.75192 34.0442 9.96516 33.3447 9.96516H31.5222V9.9689ZM32.441 5.24003V9.24311H33.3447C33.7871 9.24311 34.1388 9.09347 34.3997 8.79791C34.6606 8.50236 34.7891 8.12075 34.7891 7.65684V6.82256C34.7891 6.36239 34.6606 5.98453 34.3997 5.68898C34.1388 5.39342 33.7871 5.24377 33.3447 5.24377H32.441V5.24003Z" fill="#1D1D1B"/>
<path d="M37.6099 4.91829H36.691V4.11768H37.6099V4.91829ZM37.6099 9.96891H36.691V5.90971H37.6099V9.96891Z" fill="#1D1D1B"/>
<path d="M40.9448 8.85785C40.9448 8.71942 40.8843 8.60345 40.7633 8.50992C40.6423 8.41639 40.4155 8.33782 40.0827 8.263C39.5987 8.16573 39.232 8.01982 38.9748 7.83276C38.7177 7.64196 38.5929 7.38756 38.5929 7.06956C38.5929 6.72911 38.7366 6.44104 39.0278 6.19786C39.3189 5.95468 39.7008 5.83496 40.1772 5.83496C40.6537 5.83496 41.062 5.95842 41.3607 6.20908C41.6595 6.45974 41.8031 6.75904 41.7918 7.10697L41.7842 7.12941H40.9032C40.9032 6.9648 40.839 6.82264 40.7066 6.69918C40.5743 6.57946 40.4003 6.51586 40.181 6.51586C39.9617 6.51586 39.7878 6.56449 39.6744 6.66551C39.5571 6.76652 39.5004 6.88624 39.5004 7.03214C39.5004 7.17057 39.5534 7.27906 39.663 7.36137C39.7727 7.44368 39.9958 7.5185 40.3323 7.5821C40.8352 7.68311 41.2133 7.82902 41.4704 8.02356C41.7275 8.2181 41.8523 8.47625 41.8523 8.80173C41.8523 9.16837 41.701 9.46392 41.3948 9.69588C41.0885 9.92783 40.6877 10.0438 40.1924 10.0438C39.6592 10.0438 39.2395 9.90913 38.9295 9.63976C38.6232 9.37039 38.4757 9.05987 38.4909 8.7082L38.4984 8.68575H39.3567C39.3681 8.92145 39.4551 9.09354 39.6139 9.1983C39.7765 9.30679 39.9731 9.35917 40.2037 9.35917C40.4344 9.35917 40.6196 9.31427 40.752 9.22074C40.8805 9.12721 40.9486 9.0075 40.9486 8.85411L40.9448 8.85785Z" fill="#1D1D1B"/>
<path d="M46.2687 8.07594C46.2687 8.66705 46.1288 9.14218 45.849 9.50508C45.5692 9.86797 45.1798 10.0475 44.6769 10.0475C44.4424 10.0475 44.2382 10.0064 44.0605 9.92409C43.8828 9.84178 43.7278 9.72206 43.5992 9.56119V11.5291H42.6804V5.90979H43.4555L43.5463 6.41859C43.6786 6.22779 43.8374 6.08562 44.0227 5.98461C44.208 5.8836 44.4235 5.83496 44.6693 5.83496C45.176 5.83496 45.5692 6.03324 45.849 6.42981C46.1288 6.82638 46.2725 7.3464 46.2725 7.99363V8.0722L46.2687 8.07594ZM45.3499 7.99737C45.3499 7.5821 45.2705 7.24165 45.1117 6.97977C44.9529 6.71414 44.7185 6.5832 44.4046 6.5832C44.2118 6.5832 44.0492 6.62435 43.9168 6.70292C43.7807 6.78522 43.6749 6.89746 43.5955 7.04337V8.87655C43.6786 9.01872 43.7845 9.12722 43.9168 9.20578C44.0492 9.2806 44.2156 9.31802 44.4122 9.31802C44.726 9.31802 44.9604 9.20578 45.1155 8.97382C45.2705 8.74561 45.3499 8.44632 45.3499 8.0722V7.99363V7.99737Z" fill="#1D1D1B"/>
<path d="M46.9001 7.90376C46.9001 7.29769 47.0665 6.80385 47.403 6.41851C47.7396 6.03317 48.1971 5.83862 48.7756 5.83862C49.3541 5.83862 49.8268 6.03317 50.1595 6.41851C50.496 6.80385 50.6624 7.30143 50.6624 7.90376V7.98233C50.6624 8.59214 50.496 9.08972 50.1595 9.47132C49.823 9.85667 49.3655 10.0475 48.7832 10.0475C48.2009 10.0475 47.7358 9.85293 47.403 9.46758C47.0665 9.08224 46.9001 8.5884 46.9001 7.97859V7.90002V7.90376ZM47.8227 7.98233C47.8227 8.3789 47.9022 8.70064 48.0572 8.9513C48.2122 9.19822 48.458 9.32168 48.7832 9.32168C49.1083 9.32168 49.3465 9.19822 49.5054 8.94756C49.6642 8.6969 49.7473 8.37515 49.7473 7.98233V7.90376C49.7473 7.51468 49.6679 7.19668 49.5054 6.94602C49.3465 6.69536 49.1008 6.56816 48.7756 6.56816C48.4504 6.56816 48.216 6.69536 48.0572 6.94602C47.8984 7.19668 47.819 7.51842 47.819 7.90376V7.98233H47.8227Z" fill="#1D1D1B"/>
<path d="M52.3034 5.90974L52.3563 6.49337C52.4887 6.2876 52.6588 6.12299 52.863 6.00701C53.0672 5.89103 53.2941 5.83118 53.5512 5.83118C53.9785 5.83118 54.3112 5.96212 54.5494 6.22026C54.7876 6.4784 54.9086 6.88619 54.9086 7.43989V9.9652H53.9898V7.45111C53.9898 7.13685 53.9293 6.91238 53.8045 6.7777C53.6797 6.64676 53.4945 6.57942 53.2449 6.57942C53.0483 6.57942 52.8781 6.61683 52.7345 6.69165C52.5908 6.76648 52.4736 6.86749 52.3904 6.99843V9.96894H51.4716V5.90974H52.3147H52.3034Z" fill="#1D1D1B"/>
<path d="M56.8483 4.91829H55.9295V4.11768H56.8483V4.91829ZM56.8483 9.96891H55.9295V5.90971H56.8483V9.96891Z" fill="#1D1D1B"/>
<path d="M61.4764 8.07591C61.4764 8.67076 61.3365 9.14589 61.0567 9.50878C60.7769 9.87168 60.3837 10.0513 59.877 10.0513C59.6199 10.0513 59.3968 9.99888 59.2077 9.89413C59.0187 9.78937 58.8599 9.63598 58.7351 9.4377L58.6254 9.97269H57.8768V4.12146H58.7994V6.3774C58.9241 6.20531 59.0754 6.07062 59.2531 5.98083C59.4308 5.8873 59.635 5.84241 59.8694 5.84241C60.3837 5.84241 60.7769 6.04069 61.0567 6.43352C61.3365 6.83009 61.4764 7.35011 61.4764 8.00108V8.07965V8.07591ZM60.5576 7.99734C60.5576 7.57458 60.482 7.23414 60.3383 6.97225C60.1908 6.71037 59.9602 6.58317 59.6426 6.58317C59.4384 6.58317 59.2645 6.62806 59.1283 6.71785C58.9922 6.80764 58.8826 6.9311 58.7994 7.09197V8.79421C58.8788 8.95883 58.9846 9.08229 59.1245 9.17208C59.2644 9.26186 59.4384 9.30676 59.6463 9.30676C59.964 9.30676 60.1946 9.19452 60.3383 8.97379C60.482 8.75306 60.5538 8.45377 60.5538 8.07591V7.99734H60.5576Z" fill="#1D1D1B"/>
<path d="M63.2573 9.96891H62.3347V4.11768H63.2573V9.96891Z" fill="#1D1D1B"/>
<path d="M66.0251 10.0475C65.4277 10.0475 64.9589 9.86046 64.6223 9.48634C64.2858 9.11222 64.1157 8.62961 64.1157 8.03476V7.88511C64.1157 7.29026 64.2858 6.80016 64.6223 6.41482C64.9589 6.02948 65.3937 5.83493 65.9268 5.83868C66.4789 5.83868 66.8948 6.00703 67.1784 6.34374C67.462 6.68044 67.6019 7.12939 67.6019 7.69057V8.18066H65.0685L65.0609 8.19937C65.0723 8.53234 65.1593 8.8017 65.3256 9.01121C65.492 9.21698 65.7453 9.32173 66.0781 9.32173C66.3276 9.32173 66.5469 9.2918 66.7284 9.23194C66.9099 9.17208 67.0801 9.08603 67.2389 8.9738L67.5376 9.56865C67.3788 9.70333 67.1746 9.81557 66.9175 9.9091C66.6604 10.0026 66.3617 10.0475 66.0251 10.0475ZM65.9268 6.56821C65.6886 6.56821 65.4958 6.65426 65.3521 6.82635C65.2084 6.99845 65.1177 7.22292 65.0836 7.49602L65.0912 7.51473H66.6944V7.44365C66.6944 7.18551 66.6339 6.97226 66.5129 6.81139C66.3919 6.65052 66.1953 6.56821 65.9306 6.56821H65.9268Z" fill="#1D1D1B"/>
<path d="M72.022 10.0475C71.4246 10.0475 70.9557 9.86046 70.6192 9.48634C70.2827 9.11222 70.1125 8.62961 70.1125 8.03476V7.88511C70.1125 7.29026 70.2827 6.80016 70.6192 6.41482C70.9557 6.02948 71.3906 5.83493 71.9237 5.83868C72.4758 5.83868 72.8917 6.00703 73.1753 6.34374C73.4589 6.68044 73.5988 7.12939 73.5988 7.69057V8.18066H71.0654L71.0578 8.19937C71.0692 8.53234 71.1561 8.8017 71.3225 9.01121C71.4889 9.21698 71.7422 9.32173 72.075 9.32173C72.3245 9.32173 72.5438 9.2918 72.7253 9.23194C72.9068 9.17208 73.077 9.08603 73.2358 8.9738L73.5345 9.56865C73.3757 9.70333 73.1715 9.81557 72.9144 9.9091C72.6573 10.0026 72.3585 10.0475 72.022 10.0475ZM71.9237 6.56821C71.6855 6.56821 71.4927 6.65426 71.349 6.82635C71.2053 6.99845 71.1146 7.22292 71.0805 7.49602L71.0881 7.51473H72.6913V7.44365C72.6913 7.18551 72.6308 6.97226 72.5098 6.81139C72.3888 6.65052 72.1922 6.56821 71.9275 6.56821H71.9237Z" fill="#1D1D1B"/>
<path d="M75.1793 5.90974L75.2322 6.49337C75.3645 6.2876 75.5347 6.12299 75.7389 6.00701C75.943 5.89103 76.1699 5.83118 76.427 5.83118C76.8543 5.83118 77.187 5.96212 77.4253 6.22026C77.6635 6.4784 77.7845 6.88619 77.7845 7.43989V9.9652H76.8657V7.45111C76.8657 7.13685 76.8051 6.91238 76.6804 6.7777C76.5556 6.64676 76.3703 6.57942 76.1208 6.57942C75.9241 6.57942 75.754 6.61683 75.6103 6.69165C75.4666 6.76648 75.3494 6.86749 75.2662 6.99843V9.96894H74.3474V5.90974H75.1906H75.1793Z" fill="#1D1D1B"/>
</svg>
