<svg width="110" height="32" viewBox="0 0 110 32" fill="none" xmlns="http://www.w3.org/2000/svg">
<path d="M74.1719 15.7117V17.702H72.9261V19.0077H74.1719V23.4447C74.1719 24.9599 74.8565 25.566 76.5812 25.566C76.8843 25.566 77.1723 25.5286 77.4267 25.4874V24.1967C77.2098 24.2192 77.0713 24.2341 76.8356 24.2341C76.065 24.2341 75.7245 23.875 75.7245 23.0519V19.0114H77.4267V17.7057H75.7245V15.7154H74.1719V15.7117Z" fill="#1D1D1B"/>
<path d="M81.8152 25.6707C84.1085 25.6707 85.5152 24.1331 85.5152 21.5891C85.5152 19.045 84.1011 17.5149 81.8152 17.5149C79.5293 17.5149 78.1077 19.0563 78.1077 21.5891C78.1077 24.1218 79.5144 25.6707 81.8152 25.6707ZM81.8152 24.2939C80.4684 24.2939 79.7089 23.3063 79.7089 21.5891C79.7089 19.8718 80.4646 18.8917 81.8152 18.8917C83.1658 18.8917 83.9215 19.8868 83.9215 21.5891C83.9215 23.2913 83.1583 24.2939 81.8152 24.2939Z" fill="#1D1D1B"/>
<path d="M86.7199 25.5212H88.2688V20.8858C88.2688 19.7822 89.0993 19.0414 90.2741 19.0414C90.5472 19.0414 91.0111 19.09 91.1383 19.1349V17.6085C90.9737 17.5636 90.6781 17.5449 90.4462 17.5449C89.4211 17.5449 88.5494 18.1061 88.3249 18.8805H88.2089V17.6759H86.7162V25.5286L86.7199 25.5212Z" fill="#1D1D1B"/>
<path d="M94.9917 18.8355C96.1402 18.8355 96.8885 19.6362 96.9259 20.8707H92.9602C93.0463 19.6436 93.8469 18.8355 94.9954 18.8355H94.9917ZM96.9147 23.3998C96.6266 24.0134 95.9831 24.3501 95.0478 24.3501C93.8057 24.3501 93.0051 23.4784 92.9565 22.1016V22.0156H98.5047V21.4731C98.5047 19.0076 97.184 17.5149 94.9992 17.5149C92.8143 17.5149 91.3777 19.1086 91.3777 21.619C91.3777 24.1293 92.7544 25.6707 95.0066 25.6707C96.8024 25.6707 98.0557 24.8065 98.4111 23.3998H96.9184H96.9147Z" fill="#1D1D1B"/>
<path d="M64.0034 22.6217C64.1231 24.5522 65.7318 25.783 68.1224 25.783C70.6777 25.783 72.2789 24.4886 72.2789 22.4272C72.2789 20.8035 71.3661 19.9093 69.155 19.3931L67.9653 19.1013C66.5586 18.772 65.9937 18.3306 65.9937 17.5599C65.9937 16.5872 66.8766 15.9512 68.1973 15.9512C69.5179 15.9512 70.3185 16.5722 70.4756 17.5674H72.1031C72.0058 15.7491 70.4046 14.4734 68.216 14.4734C65.8628 14.4734 64.2914 15.7529 64.2914 17.6721C64.2914 19.2584 65.1819 20.1974 67.131 20.6538L68.5227 20.9906C69.9519 21.3273 70.5767 21.8211 70.5767 22.6442C70.5767 23.6019 69.589 24.294 68.2459 24.294C66.8018 24.294 65.8029 23.6431 65.6607 22.618H63.9996L64.0034 22.6217Z" fill="#1D1D1B"/>
<path d="M47.9424 17.5374C46.8761 17.5374 45.9521 18.0723 45.4769 18.9665H45.361V17.6683H43.8682V28.1324H45.4208V24.3314H45.5443C45.9558 25.1619 46.8425 25.652 47.9611 25.652C49.9439 25.652 51.2047 24.0882 51.2047 21.5928C51.2047 19.0974 49.9439 17.5411 47.9461 17.5411L47.9424 17.5374ZM47.5009 24.2565C46.2027 24.2565 45.3872 23.2315 45.3872 21.5966C45.3872 19.9616 46.2027 18.9291 47.5084 18.9291C48.8141 18.9291 49.6072 19.9317 49.6072 21.5891C49.6072 23.2464 48.8216 24.2565 47.5009 24.2565Z" fill="#1D1D1B"/>
<path d="M56.6295 17.5374C55.5632 17.5374 54.6391 18.0723 54.164 18.9665H54.048V17.6683H52.5553V28.1324H54.1042V24.3314H54.2276C54.6391 25.1619 55.5258 25.652 56.6444 25.652C58.6273 25.652 59.8918 24.0882 59.8918 21.5928C59.8918 19.0974 58.631 17.5411 56.6332 17.5411L56.6295 17.5374ZM56.188 24.2565C54.8898 24.2565 54.0742 23.2315 54.0742 21.5966C54.0742 19.9616 54.8898 18.9291 56.1955 18.9291C57.5012 18.9291 58.2943 19.9317 58.2943 21.5891C58.2943 23.2464 57.5086 24.2565 56.188 24.2565Z" fill="#1D1D1B"/>
<path d="M41.0848 25.5211H42.8656L38.971 14.7352H37.1715L33.2769 25.5211H34.9979L35.993 22.6591H40.1046L41.0923 25.5211H41.0848ZM37.9833 16.6919H38.1105L39.6744 21.2524H36.4158L37.9871 16.6919H37.9833Z" fill="#1D1D1B"/>
<path d="M24.8592 16.6657C24.8779 15.2066 25.6636 13.8224 26.9057 13.0592C26.12 11.9368 24.8069 11.226 23.4376 11.1848C21.9785 11.0314 20.5643 12.0565 19.8198 12.0565C19.0753 12.0565 17.9193 11.1998 16.6847 11.226C15.0797 11.2784 13.5795 12.1912 12.7976 13.5979C11.1178 16.5086 12.3711 20.781 13.9798 23.1342C14.7842 24.2865 15.727 25.5735 16.9578 25.5248C18.1625 25.4762 18.6114 24.7579 20.0668 24.7579C21.5221 24.7579 21.9299 25.5248 23.1869 25.4987C24.4814 25.4762 25.2932 24.3426 26.0714 23.1791C26.6513 22.3598 27.0965 21.4507 27.392 20.4929C25.8731 19.8494 24.8592 18.3193 24.8555 16.6694L24.8592 16.6657Z" fill="#1D1D1B"/>
<path d="M22.4872 9.6397C23.1943 8.79419 23.5385 7.7055 23.4562 6.60559C22.3788 6.71783 21.3836 7.23411 20.669 8.04969C19.9694 8.84283 19.6065 9.91281 19.6776 10.9716C20.7551 10.9828 21.8138 10.4815 22.491 9.64344L22.4872 9.6397Z" fill="#1D1D1B"/>
<path d="M34.6162 10.403V4.94458H36.4195C37.1116 4.94458 37.6765 5.16157 38.1105 5.59181C38.5445 6.02579 38.7615 6.57948 38.7615 7.26038V8.08719C38.7615 8.77183 38.5445 9.32552 38.1105 9.75576C37.6765 10.186 37.1116 10.3992 36.4195 10.3992H34.6162V10.403ZM35.5253 5.67411V9.67719H36.4195C36.8572 9.67719 37.2051 9.52755 37.4595 9.23199C37.7177 8.93644 37.8449 8.55484 37.8449 8.09093V7.25664C37.8449 6.79647 37.7177 6.41861 37.4595 6.12306C37.2014 5.8275 36.8534 5.67786 36.4195 5.67786H35.5253V5.67411Z" fill="#1D1D1B"/>
<path d="M40.6359 5.35237H39.723V4.55176H40.6359V5.35237ZM40.6359 10.403H39.723V6.34379H40.6359V10.403Z" fill="#1D1D1B"/>
<path d="M43.9393 9.29181C43.9393 9.15338 43.8795 9.03741 43.7598 8.94388C43.64 8.85035 43.4156 8.77178 43.0863 8.69696C42.6075 8.59969 42.2446 8.45378 41.9902 8.26672C41.7395 8.07592 41.6123 7.82152 41.6123 7.50352C41.6123 7.16307 41.7545 6.875 42.0425 6.63182C42.3306 6.38864 42.7085 6.26892 43.1799 6.26892C43.6513 6.26892 44.0553 6.39238 44.3509 6.64304C44.6464 6.8937 44.7886 7.193 44.7774 7.54093L44.7699 7.56337H43.8944C43.8944 7.39876 43.8308 7.2566 43.6999 7.13314C43.569 7.01342 43.3969 6.94982 43.1799 6.94982C42.9629 6.94982 42.7908 6.99845 42.6786 7.09947C42.5663 7.20048 42.5065 7.3202 42.5065 7.4661C42.5065 7.60453 42.5588 7.71302 42.6673 7.79533C42.7758 7.87764 42.9966 7.95246 43.3333 8.01606C43.8308 8.11707 44.205 8.26298 44.4594 8.45752C44.71 8.65206 44.8372 8.91021 44.8372 9.23569C44.8372 9.60233 44.6876 9.89788 44.3845 10.1298C44.0815 10.3618 43.6849 10.4778 43.1948 10.4778C42.6673 10.4778 42.2521 10.3431 41.9453 10.0737C41.6422 9.80435 41.4963 9.49383 41.5113 9.14216L41.5188 9.11971H42.368C42.3793 9.35541 42.4616 9.5275 42.6224 9.63226C42.7833 9.74075 42.9778 9.79313 43.2061 9.79313C43.4343 9.79313 43.6176 9.74823 43.7485 9.6547C43.8757 9.56117 43.9431 9.44146 43.9431 9.28807L43.9393 9.29181Z" fill="#1D1D1B"/>
<path d="M49.2069 8.50611C49.2069 9.09722 49.0685 9.57235 48.7916 9.93525C48.5148 10.2981 48.1257 10.4777 47.6319 10.4777C47.4036 10.4777 47.1979 10.4366 47.0221 10.3543C46.8462 10.272 46.6928 10.1522 46.5656 9.99137V11.9592H45.6528V6.33996H46.4235L46.5132 6.84876C46.6442 6.65796 46.8013 6.5158 46.9846 6.41478C47.168 6.31377 47.3812 6.26514 47.6244 6.26514C48.1257 6.26514 48.5148 6.46342 48.7916 6.85999C49.0685 7.25655 49.2106 7.77658 49.2106 8.42381V8.50237L49.2069 8.50611ZM48.2978 8.42755C48.2978 8.01228 48.2192 7.67183 48.0621 7.40994C47.905 7.14432 47.673 7.01338 47.3625 7.01338C47.1717 7.01338 47.0108 7.05453 46.8799 7.13309C46.7489 7.2154 46.6404 7.32764 46.5619 7.47354V9.30673C46.6404 9.44889 46.7489 9.55739 46.8799 9.63595C47.0146 9.71078 47.1754 9.74819 47.37 9.74819C47.6805 9.74819 47.9125 9.63595 48.0658 9.404C48.2192 9.17579 48.2978 8.87649 48.2978 8.50237V8.42381V8.42755Z" fill="#1D1D1B"/>
<path d="M49.8317 8.33406C49.8317 7.72799 49.9963 7.23415 50.3292 6.84881C50.6622 6.46346 51.1149 6.26892 51.6873 6.26892C52.2597 6.26892 52.7273 6.46346 53.0566 6.84881C53.3895 7.23415 53.5542 7.73173 53.5542 8.33406V8.41263C53.5542 9.02244 53.3895 9.52002 53.0566 9.90162C52.7236 10.287 52.2709 10.4778 51.6948 10.4778C51.1186 10.4778 50.6585 10.2832 50.3292 9.89788C49.9963 9.51254 49.8317 9.0187 49.8317 8.40889V8.33032V8.33406ZM50.7445 8.41263C50.7445 8.80919 50.8231 9.13094 50.9765 9.3816C51.1336 9.62852 51.373 9.75198 51.6948 9.75198C52.0165 9.75198 52.2522 9.62852 52.4093 9.37786C52.5665 9.1272 52.6488 8.80545 52.6488 8.41263V8.33406C52.6488 7.94498 52.5702 7.62698 52.4093 7.37631C52.2522 7.12565 52.009 6.99845 51.6873 6.99845C51.3656 6.99845 51.1336 7.12565 50.9765 7.37631C50.8193 7.62698 50.7408 7.94872 50.7408 8.33406V8.41263H50.7445Z" fill="#1D1D1B"/>
<path d="M55.1741 6.3437L55.2265 6.92733C55.3574 6.72156 55.5258 6.55695 55.7278 6.44097C55.9298 6.32499 56.1543 6.26514 56.4087 6.26514C56.8314 6.26514 57.1607 6.39608 57.3964 6.65422C57.6321 6.91236 57.7518 7.32015 57.7518 7.87385V10.3992H56.8389V7.88507C56.8389 7.57081 56.7791 7.34634 56.6556 7.21166C56.5322 7.07698 56.3488 7.01338 56.1019 7.01338C55.9074 7.01338 55.739 7.05079 55.5969 7.12561C55.4547 7.20044 55.3387 7.30145 55.2564 7.43239V10.4029H54.3473V6.3437H55.1778H55.1741Z" fill="#1D1D1B"/>
<path d="M59.671 5.35237H58.7582V4.55176H59.671V5.35237ZM59.671 10.403H58.7582V6.34379H59.671V10.403Z" fill="#1D1D1B"/>
<path d="M64.254 8.5062C64.254 9.10105 64.1156 9.57619 63.8388 9.93908C63.5619 10.302 63.1728 10.4816 62.6715 10.4816C62.4171 10.4816 62.1964 10.4292 62.0093 10.3244C61.8223 10.2197 61.6651 10.0663 61.5417 9.868L61.4332 10.403H60.6962V4.55176H61.609V6.8077C61.7325 6.63561 61.8821 6.50092 62.058 6.41113C62.2338 6.3176 62.4358 6.27271 62.6678 6.27271C63.1766 6.27271 63.5657 6.47099 63.8425 6.86382C64.1194 7.26038 64.2578 7.78041 64.2578 8.43138V8.50994L64.254 8.5062ZM63.3449 8.42764C63.3449 8.00488 63.2701 7.66443 63.1279 7.40255C62.982 7.14067 62.7538 7.01347 62.4396 7.01347C62.2375 7.01347 62.0692 7.05836 61.9308 7.14815C61.7961 7.23794 61.6876 7.3614 61.6053 7.52227V9.22451C61.6838 9.38913 61.7886 9.51259 61.927 9.60237C62.0654 9.69216 62.2375 9.73706 62.4471 9.73706C62.7613 9.73706 62.9895 9.62482 63.1317 9.40409C63.2739 9.18336 63.3449 8.88406 63.3449 8.5062V8.42764Z" fill="#1D1D1B"/>
<path d="M66.0123 10.403H65.0995V4.55176H66.0123V10.403Z" fill="#1D1D1B"/>
<path d="M68.7547 10.4815C68.1636 10.4815 67.6996 10.2944 67.3667 9.9203C67.0337 9.54618 66.8654 9.06357 66.8654 8.46872V8.31907C66.8654 7.72422 67.03 7.23412 67.3667 6.84878C67.6996 6.46344 68.1299 6.26889 68.6574 6.27264C69.2036 6.27264 69.6151 6.44099 69.8957 6.7777C70.1763 7.1144 70.3147 7.56335 70.3147 8.12453V8.61462H67.8044L67.7969 8.63333C67.8081 8.9663 67.8942 9.23566 68.0588 9.44517C68.2234 9.65468 68.4741 9.75569 68.807 9.75569C69.054 9.75569 69.2672 9.72576 69.4505 9.6659C69.6301 9.60604 69.7985 9.51999 69.9556 9.40776L70.2511 10.0026C70.0978 10.1373 69.892 10.2495 69.6376 10.3431C69.3832 10.4366 69.0876 10.4815 68.7584 10.4815H68.7547ZM68.6574 7.00217C68.418 7.00217 68.2309 7.08822 68.0887 7.26031C67.9466 7.43241 67.8568 7.65688 67.8231 7.92999L67.8306 7.94869H69.4168V7.87761C69.4168 7.61947 69.357 7.40622 69.2373 7.24535C69.1176 7.08448 68.923 7.00217 68.6611 7.00217H68.6574Z" fill="#1D1D1B"/>
<path d="M74.6882 10.4815C74.0971 10.4815 73.6332 10.2944 73.3002 9.9203C72.9672 9.54618 72.7989 9.06357 72.7989 8.46872V8.31907C72.7989 7.72422 72.9672 7.23412 73.3002 6.84878C73.6332 6.46344 74.0634 6.26889 74.5909 6.27264C75.1371 6.27264 75.5487 6.44099 75.8293 6.7777C76.1099 7.1144 76.2483 7.56335 76.2483 8.12453V8.61462H73.7417L73.7342 8.63333C73.7454 8.9663 73.8315 9.23566 73.9961 9.44517C74.1607 9.65468 74.4076 9.75569 74.7406 9.75569C74.9875 9.75569 75.2045 9.72576 75.3841 9.6659C75.5636 9.60604 75.732 9.51999 75.8891 9.40776L76.1847 10.0026C76.0275 10.1373 75.8255 10.2495 75.5711 10.3431C75.3167 10.4366 75.0212 10.4815 74.6882 10.4815ZM74.5909 7.00217C74.3552 7.00217 74.1644 7.08822 74.0223 7.26031C73.8801 7.43241 73.7903 7.65688 73.7566 7.92999L73.7641 7.94869H75.3504V7.87761C75.3504 7.61947 75.2905 7.40622 75.1671 7.24535C75.0473 7.08448 74.8528 7.00217 74.5909 7.00217Z" fill="#1D1D1B"/>
<path d="M77.8121 6.3437L77.8645 6.92733C77.9954 6.72156 78.1638 6.55695 78.3658 6.44097C78.5678 6.32499 78.7923 6.26514 79.0467 6.26514C79.4694 6.26514 79.7987 6.39608 80.0344 6.65422C80.2701 6.91236 80.3898 7.32015 80.3898 7.87385V10.3992H79.4769V7.88507C79.4769 7.57081 79.4171 7.34634 79.2936 7.21166C79.1701 7.08072 78.9868 7.01338 78.7399 7.01338C78.5454 7.01338 78.377 7.05079 78.2348 7.12561C78.0927 7.20044 77.9767 7.30145 77.8944 7.43239V10.4029H76.9853V6.3437H77.8158H77.8121Z" fill="#1D1D1B"/>
</svg>
