<svg width="329" height="109" viewBox="0 0 329 109" fill="none" xmlns="http://www.w3.org/2000/svg">
<path d="M33.3462 19.4286C31.575 18.9902 29.855 18.7693 28.1829 18.7693C24.8866 18.7693 22.2194 19.7956 20.178 21.8483C18.1366 23.9009 16.6868 26.3477 15.8251 29.182C14.9634 32.0163 14.5326 34.7554 14.5326 37.3925C14.5326 44.0398 17.4835 47.3634 23.3854 47.3634C24.8592 47.3634 26.6065 47.2071 28.624 46.8876C30.6415 46.5716 32.2623 46.1672 33.4933 45.6778L31.3527 57.9222C28.2034 58.8024 24.6882 59.2408 20.8038 59.2408C14.1154 59.2408 8.97599 57.4804 5.38559 53.9597C1.7952 50.4457 0 45.3855 0 38.7859C0 33.3586 1.1797 28.2033 3.54252 23.3164C5.90193 18.4295 9.32135 14.4704 13.7974 11.439C18.2734 8.40763 23.512 6.89195 29.5131 6.89195C33.4488 6.89195 36.9161 7.52745 39.915 8.79844L37.7744 21.0428C36.5947 20.4073 35.1175 19.8704 33.3497 19.4286H33.3462Z" fill="#E42838"/>
<path d="M65.4888 58.364L64.6784 48.597H50.8092L46.5315 58.364H32.7342L55.0117 8.06438H75.2992L79.7273 58.364H65.4888ZM64.4562 37.4503L62.979 20.9681H62.2404L54.9365 37.4503H64.4562Z" fill="#E42838"/>
<path d="M110.971 0L109.791 6.9667C112.937 7.25896 115.792 7.96923 118.35 9.0941L116.356 20.9001C114.486 20.1185 112.605 19.483 110.711 18.9936C108.816 18.5042 107.158 18.2596 105.732 18.2596C104.156 18.2596 102.853 18.5654 101.824 19.1771C100.791 19.7888 100.275 20.7302 100.275 22.0012C100.275 23.2722 100.743 24.2883 101.677 25.1889C102.61 26.0929 104.06 27.2041 106.03 28.5261C108.095 29.9432 109.767 31.2142 111.046 32.3391C112.325 33.464 113.429 34.9049 114.366 36.6652C115.3 38.4256 115.768 40.502 115.768 42.8979C115.768 47.2478 114.281 50.8773 111.306 53.7863C108.331 56.6954 104.333 58.4421 99.3172 59.0301L98.1375 66.1429H89.5069L90.8336 58.8839C86.5559 58.347 83.0886 57.392 80.4317 56.0225L82.6441 43.4858C84.8565 44.8044 87.3287 45.8681 90.0574 46.6735C92.7861 47.4789 95.084 47.8833 96.9544 47.8833C98.3803 47.8833 99.5258 47.5911 100.384 47.0032C101.246 46.4152 101.677 45.5384 101.677 44.3626C101.677 43.0916 101.208 42.0041 100.275 41.1001C99.3411 40.1962 97.8639 39.0611 95.8499 37.6916C93.8324 36.373 92.174 35.1632 90.8712 34.0621C89.5684 32.961 88.4469 31.5439 87.5133 29.8107C86.5798 28.0775 86.1114 26.0113 86.1114 23.6154C86.1114 19.5102 87.4621 16.0404 90.1702 13.2028C92.875 10.3685 96.4893 8.462 101.017 7.48326L102.343 0.00339839H110.974L110.971 0Z" fill="#E42838"/>
<path d="M137.557 8.06438L134.165 27.0988H146.854L150.246 8.06438H164.413L155.413 58.364H141.246L144.789 38.5378H132.174L128.632 58.364H114.465L123.393 8.06438H137.56H137.557Z" fill="#E42838"/>
<path d="M167.685 7.77212H190.407C194.34 7.77212 197.465 8.6523 199.776 10.4127C202.088 12.173 203.244 14.715 203.244 18.0387C203.244 20.8729 202.406 23.4523 200.734 25.7734C199.062 28.0945 196.897 29.8922 194.24 31.1632V31.6016C196.405 32.2881 198.063 33.4606 199.219 35.1224C200.375 36.7842 200.953 38.9116 200.953 41.5012C200.953 44.5325 200.142 47.343 198.518 49.9326C196.894 52.5255 194.61 54.5782 191.659 56.0905C188.708 57.6061 185.312 58.364 181.479 58.364H158.757L167.685 7.77212ZM180.597 48.5392C182.614 48.5392 184.235 47.8663 185.466 46.524C186.694 45.1816 187.309 43.6048 187.309 41.7934C187.309 40.3763 186.878 39.2888 186.017 38.531C185.155 37.7731 183.962 37.3959 182.44 37.3959H176.316L174.322 48.5392H180.597ZM183.103 28.1557C185.169 28.1557 186.793 27.5813 187.973 26.4327C189.152 25.284 189.744 23.8533 189.744 22.1439C189.744 19.1126 188.195 17.5969 185.097 17.5969H179.858L177.94 28.1557H183.103Z" fill="#E42838"/>
<path d="M229.731 58.364L228.92 48.597H215.051L210.773 58.364H196.976L219.257 8.06438H239.544L243.973 58.364H229.731ZM228.698 37.4503L227.224 20.9681H226.486L219.182 37.4503H228.698Z" fill="#E42838"/>
<path d="M272.008 36.3764L274.108 46.5818L274.081 46.609C273.588 46.7075 273.072 46.8027 272.521 46.891C270.504 47.2105 268.76 47.3668 267.283 47.3668C261.381 47.3668 258.43 44.0432 258.43 37.3959C258.43 34.7554 258.861 32.0197 259.722 29.1854C260.584 26.3511 262.034 23.9077 264.075 21.8517C266.117 19.799 268.784 18.7727 272.08 18.7727C273.752 18.7727 275.472 18.9936 277.244 19.432C279.015 19.8704 280.489 20.4108 281.672 21.0463L283.812 8.80185C280.81 7.53085 277.343 6.89535 273.41 6.89535C267.409 6.89535 262.171 8.41103 257.695 11.4424C253.219 14.4738 249.803 18.4329 247.44 23.3198C245.08 28.2067 243.897 33.3654 243.897 38.7893C243.897 45.3889 245.693 50.4457 249.283 53.9665C252.873 57.4872 258.013 59.2476 264.701 59.2476C268.586 59.2476 272.104 58.8092 275.25 57.929V57.912C275.712 57.7965 275.972 57.7217 275.972 57.7217L278.307 66.9993L285.31 48.9063L272.005 36.3798L272.008 36.3764Z" fill="#E42838"/>
<path d="M329 8.06438H314.392L298.533 28.8931H298.017L301.778 8.06438H287.615L281.306 42.7314L287.307 48.5766L283.665 58.364H292.778L295.213 44.8044L300.598 37.5896H301.337L306.131 58.364H320.739L313.804 27.6901L329 8.06438Z" fill="#E42838"/>
<path d="M27.3007 108.358L25.3516 101.238H14.8437L12.8946 108.358H2.60217L12.6758 71.4274H27.9504L38.024 108.358H27.3007ZM23.6727 93.0038L20.3695 80.9565H19.8292L16.5261 93.0038H23.6761H23.6727Z" fill="#E42838"/>
<path d="M52.9737 71.4274V99.9059H65.3247V108.358H42.3051V71.4274H52.9771H52.9737Z" fill="#E42838"/>
<path d="M92.027 71.4274V108.358H81.3549V71.4274H92.027Z" fill="#E42838"/>
<path d="M99.3924 71.4274H109.685L121.602 94.9511H121.981C121.15 90.2205 120.736 85.9012 120.736 81.9896V71.4274H130.27V108.358H119.977L108.006 84.9394H107.681C108.474 89.4219 108.874 93.7073 108.874 97.7955V108.358H99.3958V71.4274H99.3924Z" fill="#E42838"/>
<path d="M137.851 76.1376C139.116 74.3262 140.867 72.9431 143.106 71.9915C145.346 71.04 147.928 70.5642 150.851 70.5642C154.172 70.5642 157.533 71.1012 160.925 72.1784V80.8987C158.901 80.3618 156.89 79.9132 154.886 79.553C152.882 79.1961 151.286 79.016 150.092 79.016C147.781 79.016 146.625 79.8248 146.625 81.4391C146.625 82.2275 146.912 82.8562 147.49 83.3218C148.068 83.7873 149.008 84.2563 150.308 84.7219L154.804 86.3905C160.33 88.4737 163.093 92.0251 163.093 97.0479C163.093 99.4879 162.477 101.615 161.25 103.427C160.022 105.238 158.306 106.621 156.104 107.573C153.901 108.524 151.337 109 148.413 109C146.283 109 144.006 108.776 141.588 108.327C139.167 107.879 137.201 107.314 135.683 106.631V97.4251C137.741 98.3596 139.988 99.1141 142.426 99.685C144.864 100.259 146.929 100.545 148.629 100.545C149.784 100.545 150.704 100.358 151.392 99.9807C152.075 99.6035 152.421 99.002 152.421 98.1761C152.421 97.4591 152.113 96.8474 151.501 96.3444C150.886 95.8414 149.856 95.3385 148.413 94.8355L144.46 93.381C141.786 92.3751 139.701 91.0225 138.203 89.3165C136.705 87.6139 135.956 85.3778 135.956 82.6149C135.956 80.1035 136.589 77.9421 137.851 76.1274V76.1376Z" fill="#E42838"/>
<path d="M194.346 79.8792H185.247V108.358H174.575V79.8792H165.531V71.4274H194.346V79.8792Z" fill="#E42838"/>
<path d="M218.559 108.358L216.61 101.238H206.102L204.153 108.358H193.861L203.935 71.4274H219.209L229.283 108.358H218.559ZM214.928 93.0038L211.625 80.9565H211.085L207.781 93.0038H214.931H214.928Z" fill="#E42838"/>
<path d="M233.56 71.4274H243.853L255.77 94.9511H256.149C255.318 90.2205 254.904 85.9012 254.904 81.9896V71.4274H264.438V108.358H254.145L242.174 84.9394H241.849C242.642 89.4219 243.042 93.7073 243.042 97.7955V108.358H233.564V71.4274H233.56Z" fill="#E42838"/>
<path d="M297.64 79.8792H288.541V108.358H277.869V79.8792H268.825V71.4274H297.64V79.8792Z" fill="#E42838"/>
<path d="M325.697 71.2133V79.3966H312.59V85.4798H321.853V93.6631H312.59V100.178H325.697V108.361H302.028V71.2167H325.697V71.2133Z" fill="#E42838"/>
</svg>
