<svg width="16" height="22" viewBox="0 0 16 22" fill="none" xmlns="http://www.w3.org/2000/svg">
<g clip-path="url(#clip0_1_243)">
<path d="M8.25934 -1.71418e-05C8.68132 0.187217 8.83956 0.523387 8.83077 0.953174C8.83077 1.03828 8.83077 1.12339 8.83077 1.21275C8.83077 7.09786 8.83077 12.983 8.83077 18.8723C8.83077 18.9702 8.8044 19.0723 8.86154 19.1659C8.96264 19.1489 9.00659 19.0681 9.06374 19.0085C10.8659 17.2638 12.6725 15.5191 14.4703 13.7745C14.6725 13.5787 14.8923 13.4468 15.1912 13.4553C15.789 13.4723 16.1714 14.0638 15.9121 14.5915C15.8462 14.7276 15.7407 14.8383 15.6308 14.9447C13.3275 17.1745 11.0242 19.4042 8.72088 21.634C8.21978 22.1191 7.76703 22.1191 7.26593 21.634C4.96264 19.4042 2.65934 17.1745 0.356044 14.9447C0.158242 14.7532 0 14.5489 0 14.2553C0 13.9404 0.136264 13.6979 0.417582 13.5489C0.707692 13.4 1.0022 13.4085 1.27912 13.583C1.38462 13.6468 1.47253 13.7362 1.56044 13.8213C3.34066 15.5447 5.12088 17.2723 6.9011 19C6.96264 19.0596 7.0022 19.1404 7.06813 19.2383C7.16923 19.0851 7.14286 18.9915 7.14286 18.9021C7.14286 12.9362 7.14286 6.97445 7.14286 1.00849C7.14286 0.553174 7.27472 0.195728 7.72747 -0.00427246H8.25934V-1.71418e-05Z" fill="white"/>
</g>
<defs>
<clipPath id="clip0_1_243">
<rect width="16" height="22" fill="white"/>
</clipPath>
</defs>
</svg>
