<svg width="92" height="96" viewBox="0 0 92 96" fill="none" xmlns="http://www.w3.org/2000/svg">
<path d="M51.02 76.74H44.02V79.19H51.02V76.74Z" fill="white"/>
<path d="M73.33 36.48C71.33 36.48 69.42 36.83 67.63 37.45V30.67L76.36 19.79L78.89 21.92L78.34 15.46L76.03 15.66L75.96 15.61L75.91 15.67L71.88 16.01L74.11 17.89L67.63 25.87V19.89C67.63 16.09 64.57 13 60.81 13H32.82C29.06 13 26 16.09 26 19.89V77.96C26 79.57 26.78 81.29 28.15 82.67C29.52 84.06 31.22 84.85 32.82 84.85H60.81C64.19 84.85 67.63 81.37 67.63 77.96V70.63C69.42 71.25 71.33 71.6 73.33 71.6C83.01 71.6 90.88 63.72 90.88 54.04C90.88 44.36 83.01 36.48 73.33 36.48ZM28.45 19.89C28.45 17.44 30.41 15.45 32.82 15.45H60.81C63.22 15.45 65.1801 17.44 65.1801 19.89V21.5H28.45V19.89ZM65.1801 23.95V28.89L60.67 34.45L54.88 34.89L47.52 48.94H39.62L34.54 54.24H28.45V23.95H65.1801ZM65.1801 77.97C65.1801 80 62.81 82.41 60.81 82.41H32.82C31.89 82.41 30.79 81.87 29.89 80.96C28.99 80.04 28.45 78.93 28.45 77.97V73.53H65.1801V77.97ZM65.1801 71.08H28.45V57.19H35.8L40.88 51.89H49.31L56.7401 37.71L62.33 37.29L65.19 33.73V38.51C59.6 41.45 55.78 47.31 55.78 54.05C55.78 60.79 59.6 66.65 65.19 69.59V71.08H65.1801ZM73.33 69.15C71.31 69.15 69.39 68.75 67.63 68.03C66.77 67.68 65.9501 67.25 65.1801 66.75C61.0001 64.06 58.22 59.37 58.22 54.04C58.22 48.71 61.0001 44.03 65.1801 41.33C65.9501 40.83 66.77 40.4 67.63 40.05C69.39 39.33 71.31 38.93 73.33 38.93C81.66 38.93 88.4301 45.71 88.4301 54.04C88.4301 62.37 81.65 69.15 73.33 69.15Z" fill="white"/>
<path d="M71.41 47.2701H74.67C75.69 47.2701 76.52 48.1101 76.52 49.1401H79.33C79.33 46.5601 77.24 44.4701 74.67 44.4701H74.44V40.9701H71.63V44.4701H71.4C68.83 44.4701 66.7401 46.5701 66.7401 49.1401V50.0501C66.7401 52.0601 68.02 53.8401 69.92 54.4801L75.2401 56.2601C76.0001 56.5101 76.51 57.2201 76.51 58.0301V58.9401C76.51 59.9701 75.68 60.8101 74.66 60.8101H71.4C70.38 60.8101 69.55 59.9701 69.55 58.9401H66.7401C66.7401 61.5201 68.83 63.6101 71.4 63.6101H71.63V67.1101H74.44V63.6101H74.67C77.24 63.6101 79.33 61.5101 79.33 58.9401V58.0301C79.33 56.0201 78.05 54.2401 76.15 53.6001L70.83 51.8201C70.07 51.5601 69.56 50.8501 69.56 50.0501V49.1401C69.56 48.1101 70.39 47.2701 71.41 47.2701Z" fill="white"/>
<path d="M31.54 59.63H32.2401C32.4601 59.63 32.64 59.81 32.64 60.03H33.25C33.25 59.47 32.8001 59.02 32.2401 59.02H32.19V58.26H31.58V59.02H31.53C30.97 59.02 30.52 59.47 30.52 60.03V60.23C30.52 60.67 30.8 61.05 31.21 61.19L32.36 61.57C32.52 61.62 32.63 61.78 32.63 61.95V62.15C32.63 62.37 32.45 62.55 32.23 62.55H31.53C31.31 62.55 31.13 62.37 31.13 62.15H30.52C30.52 62.71 30.97 63.16 31.53 63.16H31.58V63.92H32.19V63.16H32.2401C32.8001 63.16 33.25 62.71 33.25 62.15V61.95C33.25 61.51 32.97 61.13 32.56 60.99L31.41 60.61C31.25 60.55 31.14 60.4 31.14 60.23V60.03C31.14 59.81 31.32 59.63 31.54 59.63Z" fill="white"/>
<path d="M45.63 56.08H46.6801C47.0101 56.08 47.28 56.35 47.28 56.68H48.19C48.19 55.85 47.5101 55.17 46.6801 55.17H46.61V54.04H45.7V55.17H45.63C44.8 55.17 44.12 55.85 44.12 56.68V56.97C44.12 57.62 44.53 58.2 45.15 58.4L46.87 58.98C47.12 59.06 47.28 59.29 47.28 59.55V59.84C47.28 60.17 47.0101 60.44 46.6801 60.44H45.63C45.3 60.44 45.03 60.17 45.03 59.84H44.12C44.12 60.67 44.8 61.35 45.63 61.35H45.7V62.48H46.61V61.35H46.6801C47.5101 61.35 48.19 60.67 48.19 59.84V59.55C48.19 58.9 47.78 58.32 47.16 58.12L45.44 57.55C45.19 57.47 45.03 57.24 45.03 56.98V56.69C45.03 56.36 45.3 56.09 45.63 56.09V56.08Z" fill="white"/>
</svg>
