<svg width="92" height="96" viewBox="0 0 92 96" fill="none" xmlns="http://www.w3.org/2000/svg">
<path d="M68.91 15.73H41.67C38.02 15.73 35.06 18.71 35.06 22.38V33.34H37.39V26.28H73.19V71.91H37.39V42.93H35.06V78.56C35.06 81.85 38.4 85.21 41.67 85.21H68.91C72.19 85.21 75.52 81.86 75.52 78.56V22.38C75.52 18.71 72.55 15.73 68.91 15.73ZM73.19 78.56C73.19 80.54 70.87 82.87 68.91 82.87H41.67C39.71 82.87 37.39 80.53 37.39 78.56V74.24H73.19V78.56ZM37.39 23.95V22.38C37.39 20 39.31 18.07 41.67 18.07H68.91C71.27 18.07 73.19 20.01 73.19 22.38V23.95H37.39Z" fill="white"/>
<path d="M58.01 77.39H51.2V79.72H58.01V77.39Z" fill="white"/>
<path d="M40.04 37.29H21.63C19.08 37.29 17 35.21 17 32.64V13.71C17 11.11 19.1 9 21.69 9H52.19C54.77 9 56.88 11.11 56.88 13.71V32.57C56.88 35.18 54.77 37.3 52.17 37.3H51.01H40.04V37.29Z" fill="#3665AD"/>
<path d="M33.77 22.2101L30.37 18.8501L33.02 16.2301C33.02 16.2301 33.37 15.8401 33.77 15.8401C34.17 15.8401 34.52 16.2301 34.52 16.2301L37.17 18.8501L33.77 22.2101ZM30.37 24.2801V18.8501H37.17V24.2801C37.17 26.4201 36.04 27.4901 33.77 27.4901C31.5 27.4901 30.37 26.4201 30.37 24.2801Z" fill="#67922F"/>
<path d="M28.41 19.0201L28.25 20.4201C27.7 20.1801 27.14 20.0501 26.56 20.0501C26.21 20.0501 25.92 20.1301 25.69 20.2901C25.4 20.4901 25.25 20.8101 25.25 21.2301C25.25 21.6101 25.56 21.9401 26.19 22.2201C27.2 22.6501 27.79 22.9201 27.96 23.0401C28.59 23.4901 28.9 24.1201 28.9 24.9401C28.9 25.8201 28.59 26.4801 27.97 26.9201C27.42 27.3101 26.69 27.5001 25.78 27.5001C25.23 27.5001 24.52 27.3901 23.65 27.1701L23.81 25.6401C24.44 25.9901 25.07 26.1601 25.69 26.1601C26.06 26.1601 26.38 26.0701 26.67 25.9001C27 25.6901 27.17 25.4101 27.17 25.0601C27.17 24.6301 26.86 24.2701 26.23 23.9901C25.14 23.4901 24.55 23.2201 24.46 23.1601C23.83 22.7201 23.52 22.1001 23.52 21.3001C23.52 20.4201 23.82 19.7501 24.43 19.2901C24.95 18.9001 25.61 18.7101 26.43 18.7101C27.16 18.7101 27.83 18.8101 28.42 19.0101L28.41 19.0201Z" fill="white"/>
<path d="M30.36 24.2901V18.8601H32.03V23.7701C32.03 25.3701 32.61 26.1701 33.76 26.1701C34.91 26.1701 35.49 25.3701 35.49 23.7701V18.8601H37.16V24.2901C37.16 26.4301 36.03 27.5001 33.76 27.5001C31.49 27.5001 30.36 26.4301 30.36 24.2901Z" fill="white"/>
<path d="M40.71 23.5601V26.0201H41.5C42.65 26.0201 43.22 25.6301 43.22 24.8401C43.22 23.9901 42.65 23.5601 41.5 23.5601H40.71ZM40.71 20.2001V22.2901H41.39C42.44 22.2901 42.96 21.9501 42.96 21.2601C42.96 20.8201 42.79 20.5201 42.45 20.3601C42.21 20.2501 41.85 20.2001 41.35 20.2001H40.71ZM39.04 27.3601V18.8601H41.95C42.67 18.8601 43.25 18.9901 43.69 19.2501C44.32 19.6201 44.63 20.2101 44.63 21.0401C44.63 21.5401 44.48 21.9501 44.18 22.2901C43.88 22.6301 43.48 22.8501 42.98 22.9401V22.9601C43.54 23.0201 44 23.2201 44.36 23.5801C44.71 23.9401 44.89 24.3801 44.89 24.8901C44.89 25.8301 44.53 26.5101 43.82 26.9201C43.33 27.2001 42.71 27.3501 41.96 27.3501H39.05L39.04 27.3601Z" fill="white"/>
<path d="M46.33 27.3601V18.8601H51.24V20.2001H48V22.2901H50.97V23.6301H48V26.0201H51.27V27.3601H46.33Z" fill="white"/>
</svg>
