<svg width="92" height="96" viewBox="0 0 92 96" fill="none" xmlns="http://www.w3.org/2000/svg">
<path d="M71.06 47.2199H74.91C76.12 47.2199 77.1 48.1199 77.1 49.2299H80.41C80.41 46.4599 77.94 44.2 74.91 44.2H74.64V40.4299H71.33V44.2H71.06C68.03 44.2 65.56 46.4599 65.56 49.2299V50.2099C65.56 52.3799 67.07 54.2999 69.32 54.9799L75.6 56.8999C76.5 57.1699 77.1 57.9399 77.1 58.8099V59.7899C77.1 60.8999 76.12 61.7999 74.91 61.7999H71.06C69.85 61.7999 68.87 60.8999 68.87 59.7899H65.56C65.56 62.5599 68.03 64.8199 71.06 64.8199H71.33V68.5899H74.64V64.8199H74.91C77.94 64.8199 80.41 62.5599 80.41 59.7899V58.8099C80.41 56.6399 78.9 54.7199 76.65 54.0399L70.38 52.1199C69.48 51.8399 68.88 51.0799 68.88 50.2099V49.2299C68.88 48.1199 69.86 47.2199 71.07 47.2199H71.06Z" fill="white"/>
<path d="M27.86 48.8699H49.3C50.15 48.8699 50.83 48.7699 50.83 47.9999C50.83 47.2299 50.14 47.1299 49.3 47.1299H27.86C27.01 47.1299 26.33 47.2299 26.33 47.9999C26.33 48.7699 27.01 48.8699 27.86 48.8699Z" fill="white"/>
<path d="M27.86 55.8099H49.3C50.15 55.8099 50.83 55.7099 50.83 54.9399C50.83 54.1699 50.14 54.0699 49.3 54.0699H27.86C27.01 54.0699 26.33 54.1699 26.33 54.9399C26.33 55.7099 27.01 55.8099 27.86 55.8099Z" fill="white"/>
<path d="M50.83 61.88C50.83 61.12 50.14 61.01 49.3 61.01H27.86C27.01 61.01 26.33 61.11 26.33 61.88C26.33 62.65 27.01 62.75 27.86 62.75H49.3C50.15 62.75 50.83 62.65 50.83 61.88Z" fill="white"/>
<path d="M91.9 53.9899C91.9 44.0599 84.21 35.9099 74.48 35.1399V14.1599H64.76L63.27 15.9099H72.73V35.0699C62.42 35.2099 54.08 43.6299 54.08 53.9799C54.08 64.3299 62.42 72.7399 72.73 72.8899V83.8899H19.75V15.9099H51.03L52.83 14.1599H18V85.6399H74.47V72.8299C84.2 72.0699 91.89 63.9099 91.89 53.9799L91.9 53.9899ZM72.99 70.2699C64.01 70.2699 56.71 62.9699 56.71 53.9899C56.71 45.0099 64.01 37.7099 72.99 37.7099C81.97 37.7099 89.26 45.0099 89.26 53.9899C89.26 62.9699 81.96 70.2699 72.99 70.2699Z" fill="white"/>
<path d="M35.65 20.22C35.15 19.72 34.33 19.71 33.82 20.21L29.82 24.13C29.3 24.64 29.3 25.47 29.81 25.98L41.53 37.7L65.11 12.66L59.94 7.76001L42.13 26.98L35.64 20.22H35.65Z" fill="white"/>
<path d="M27.98 66.2H27.52V72.92H27.98V66.2Z" fill="white"/>
<path d="M29.64 66.2H28.96V72.92H29.64V66.2Z" fill="white"/>
<path d="M30.58 66.2H30.46V72.92H30.58V66.2Z" fill="white"/>
<path d="M38.42 66.2H38.3V72.92H38.42V66.2Z" fill="white"/>
<path d="M45.43 66.2H45.31V72.92H45.43V66.2Z" fill="white"/>
<path d="M28.46 66.2H28.39V72.92H28.46V66.2Z" fill="white"/>
<path d="M39.77 66.2H39.7V72.92H39.77V66.2Z" fill="white"/>
<path d="M44.05 66.2H43.98V72.92H44.05V66.2Z" fill="white"/>
<path d="M31.79 66.2H31.24V72.92H31.79V66.2Z" fill="white"/>
<path d="M34.04 66.2H32.76V72.92H34.04V66.2Z" fill="white"/>
<path d="M35.92 66.2H34.64V72.92H35.92V66.2Z" fill="white"/>
<path d="M37.8 66.2H36.52V72.92H37.8V66.2Z" fill="white"/>
<path d="M39.17 66.2H38.92V72.92H39.17V66.2Z" fill="white"/>
<path d="M41.57 66.2H40.29V72.92H41.57V66.2Z" fill="white"/>
<path d="M43.45 66.2H42.17V72.92H43.45V66.2Z" fill="white"/>
<path d="M44.81 66.2H44.58V72.92H44.81V66.2Z" fill="white"/>
<path d="M47.22 66.2H45.94V72.92H47.22V66.2Z" fill="white"/>
<path d="M49.1 66.2H47.82V72.92H49.1V66.2Z" fill="white"/>
<path d="M50.98 66.2H49.7V72.92H50.98V66.2Z" fill="white"/>
</svg>
