<svg width="92" height="96" viewBox="0 0 92 96" fill="none" xmlns="http://www.w3.org/2000/svg">
<path d="M59.4 59.4099H51.33V62.1599H59.4V59.4099Z" fill="white"/>
<path d="M80.5 45.6199L80.2 45.3599C80.06 45.2399 79.9 45.1399 79.75 45.0399L81.09 43.4699C82.87 41.3699 82.61 38.1599 80.5 36.3099L80.2 36.0499C79.73 35.6299 79.19 35.3199 78.62 35.1099L80.06 33.7299C82.62 31.2499 83.06 27.4799 81.04 25.3099L80.75 24.9899C79.89 24.0599 78.66 23.5299 77.3 23.4999C76.27 23.4399 75.23 23.7299 74.26 24.2299V12.8799H74.25V11.5099C74.25 7.73993 71.22 4.66992 67.49 4.66992H43.27C41.46 4.66992 39.76 5.38993 38.48 6.67993C37.21 7.96993 36.51 9.68993 36.51 11.5099V22.3699C36.28 22.3699 36.05 22.3499 35.81 22.3899C34.22 22.6399 32.97 23.6799 32.53 25.0999C31.56 28.2699 30.86 30.6299 30.29 32.5499C29.23 36.1299 28.65 38.0999 27.56 40.9799C26.36 44.1599 26.27 47.9399 26.19 50.9799C26.15 52.7099 26.1 54.5099 25.88 55.0099C25.68 55.3399 24 57.5799 22.52 59.5599C22.37 59.7599 22.21 59.9699 22.06 60.1799L21.23 59.3299L12 68.7199L34.63 91.7599L43.86 82.3699L41.94 80.4099C43.03 79.2699 44.04 78.2899 45.11 77.2599C56.43 77.8699 62.85 71.2199 65.72 67.6399H67.5C68.96 67.6399 70.34 67.1499 71.5 66.2899C72.58 67.1399 73.83 67.6399 74.97 67.6399C75.07 67.6399 75.16 67.6399 75.26 67.6299C76.15 67.5599 76.91 67.1999 77.43 66.5799L80.96 62.4499C82.72 60.3799 82.46 57.1999 80.38 55.3799L80.08 55.1199C79.9 54.9599 79.69 54.8299 79.49 54.6999L81.12 52.7899C82.9 50.6899 82.63 47.4799 80.53 45.6299L80.5 45.6199ZM78.68 38.3699C79.67 39.2399 79.81 40.7199 78.99 41.6799L75.4 45.8799C75.4 45.8799 75.24 45.9699 75.1 45.9799C74.65 46.0099 73.84 45.7999 73.02 45.0799L72.72 44.8199C71.61 43.8399 71.39 42.7099 71.58 42.4799L75.17 38.2799C75.54 37.8399 76.07 37.5699 76.66 37.5299C77.28 37.4899 77.89 37.6899 78.37 38.1099L78.67 38.3699H78.68ZM74.26 27.5099C75.09 26.7099 76.16 26.2299 77.13 26.2299C77.16 26.2299 77.18 26.2299 77.21 26.2299C77.65 26.2399 78.27 26.3599 78.73 26.8499L79.02 27.1699C80.01 28.2299 79.61 30.3199 78.15 31.7299L74.13 35.5999C73.75 35.8499 73.4 36.1399 73.1 36.4899L72.61 37.0699L72.58 37.0999C72.22 37.4499 71.76 37.5199 71.43 37.4999C70.72 37.4799 69.97 37.1099 69.4 36.5099L69.11 36.1899C68.12 35.1299 67.93 33.6099 68.69 32.8699L74.27 27.5099H74.26ZM71.47 26.3699L66.76 30.8899C64.91 32.6799 65.05 35.8999 67.07 38.0699L67.36 38.3899C68.11 39.1999 69.05 39.7499 70.04 40.0399L69.48 40.6999C68.13 42.2899 68.76 45.0099 70.9 46.8899L71.2 47.1499C71.34 47.2799 71.5 47.3699 71.65 47.4799L69.49 50.0199C68.63 51.0399 68.58 52.5099 69.21 53.9399H43.98C43.32 49.8599 41.83 46.4499 40.13 44.0499C41.37 40.1199 41.94 37.1099 42.4 32.1199C42.65 29.4299 41.83 26.7199 39.97 24.0699C39.76 23.7699 39.51 23.5199 39.24 23.2999V15.6299H71.46V26.3899L71.47 26.3699ZM39.24 11.4899C39.24 10.3899 39.66 9.35992 40.42 8.58992C41.18 7.81992 42.18 7.39993 43.24 7.39993H67.46C69.67 7.39993 71.47 9.22993 71.47 11.4899V12.8599H39.24V11.4899ZM34.61 87.8199L15.84 68.6999L21.21 63.2299L39.98 82.3499L34.6 87.8099L34.61 87.8199ZM44.67 74.4699L44.06 74.4199L43.44 75.0199C42.26 76.1499 41.18 77.1999 39.99 78.4399L24 62.1599C24.24 61.8399 24.48 61.5199 24.72 61.1999C27.9 56.9499 28.2 56.5299 28.33 56.2499C28.84 55.1299 28.89 53.3299 28.94 51.0399C29.01 48.2099 29.1 44.6799 30.13 41.9399C31.26 38.9599 31.88 36.8399 32.92 33.3099C33.48 31.3999 34.18 29.0499 35.15 25.8899C35.34 25.2799 36.03 25.1199 36.23 25.0899C36.72 25.0099 37.37 25.1199 37.74 25.6399C39.22 27.7399 39.87 29.8399 39.68 31.8599C39.21 36.8999 38.64 39.8199 37.32 43.8699L37.09 44.5599L37.54 45.1399C40.82 49.3499 43.43 57.7999 40.02 67.7199L42.62 68.6199C42.74 68.2799 42.83 67.9399 42.94 67.5999C43.05 67.5999 43.15 67.6399 43.27 67.6399H62.06C58.94 70.9299 53.38 75.1199 44.69 74.4699H44.67ZM69.58 64.2599C68.95 64.6599 68.23 64.8799 67.47 64.8799H43.65C44.28 61.9799 44.45 59.2299 44.29 56.6799H71.51C71.63 56.7599 71.74 56.8599 71.86 56.9399L69.51 59.6999C68.52 60.8699 68.61 62.6599 69.59 64.2699L69.58 64.2599ZM78.83 60.6699L75.3 64.7999C75.3 64.7999 75.16 64.8799 75.02 64.8899C74.58 64.9199 73.79 64.7099 72.99 64.0099L72.69 63.7499C71.55 62.7499 71.42 61.6699 71.57 61.4799L74.54 57.9999C74.69 58.0199 74.85 58.0499 75 58.0499C75.1 58.0499 75.19 58.0499 75.29 58.0499C76.19 57.9799 76.95 57.6199 77.48 56.9899L77.61 56.8399C77.82 56.9299 78.03 57.0299 78.21 57.1899L78.51 57.4499C79.45 58.2799 79.59 59.7599 78.81 60.6699H78.83ZM79 50.9999L75.41 55.1999C75.41 55.1999 75.25 55.2899 75.11 55.2999C74.65 55.3299 73.85 55.1199 73.03 54.3999L72.73 54.1399C71.62 53.1599 71.39 52.0299 71.59 51.7999L74.28 48.6499C74.53 48.6899 74.78 48.7299 75.02 48.7299C75.12 48.7299 75.21 48.7299 75.31 48.7199C76.21 48.6499 76.97 48.2899 77.5 47.6599L77.93 47.1599C78.08 47.2399 78.25 47.2999 78.38 47.4199L78.68 47.6799C79.67 48.5499 79.81 50.0299 78.99 50.9899L79 50.9999Z" fill="white"/>
<path d="M48.44 25.9499V29.7199C48.44 30.6399 49.18 31.3799 50.1 31.3799H53.87C54.79 31.3799 55.53 30.6299 55.53 29.7199V25.9499C55.53 25.0299 54.79 24.2899 53.87 24.2899H50.1C49.18 24.2899 48.44 25.0399 48.44 25.9499ZM49.88 25.9499C49.88 25.8299 49.98 25.7299 50.1 25.7299H53.87C53.99 25.7299 54.09 25.8299 54.09 25.9499V29.7199C54.09 29.8399 53.99 29.9399 53.87 29.9399H50.1C49.98 29.9399 49.88 29.8399 49.88 29.7199V25.9499Z" fill="white"/>
<path d="M58.15 31.3799H61.92C62.84 31.3799 63.58 30.6299 63.58 29.7199V25.9499C63.58 25.0299 62.83 24.2899 61.92 24.2899H58.15C57.23 24.2899 56.49 25.0399 56.49 25.9499V29.7199C56.49 30.6399 57.23 31.3799 58.15 31.3799ZM57.93 25.9499C57.93 25.8299 58.03 25.7299 58.15 25.7299H61.92C62.04 25.7299 62.14 25.8299 62.14 25.9499V29.7199C62.14 29.8399 62.04 29.9399 61.92 29.9399H58.15C58.03 29.9399 57.93 29.8399 57.93 29.7199V25.9499Z" fill="white"/>
<path d="M53.87 32.2999H50.1C49.18 32.2999 48.44 33.0499 48.44 33.9599V37.7299C48.44 38.6499 49.18 39.3899 50.1 39.3899H53.87C54.79 39.3899 55.53 38.6399 55.53 37.7299V33.9599C55.53 33.0399 54.79 32.2999 53.87 32.2999ZM54.09 37.7299C54.09 37.8499 53.99 37.9499 53.87 37.9499H50.1C49.98 37.9499 49.88 37.8499 49.88 37.7299V33.9599C49.88 33.8399 49.98 33.7399 50.1 33.7399H53.87C53.99 33.7399 54.09 33.8399 54.09 33.9599V37.7299Z" fill="white"/>
<path d="M61.21 33.0199H58.86C57.9487 33.0199 57.21 33.7586 57.21 34.6699V37.0199C57.21 37.9312 57.9487 38.6699 58.86 38.6699H61.21C62.1212 38.6699 62.86 37.9312 62.86 37.0199V34.6699C62.86 33.7586 62.1212 33.0199 61.21 33.0199Z" fill="white"/>
<path d="M65.07 23.4199V25.0599H67.2V23.4199C67.2 21.6599 65.77 20.2299 64.01 20.2299H61.37V22.3599H64.01C64.6 22.3599 65.07 22.8399 65.07 23.4199Z" fill="white"/>
<path d="M46.41 23.4199C46.41 22.8299 46.89 22.3599 47.47 22.3599H49.27V20.2299H47.47C45.71 20.2299 44.28 21.6599 44.28 23.4199V25.5799H46.41V23.4199Z" fill="white"/>
<path d="M47.48 43.14H50.21V41.01H47.48C46.89 41.01 46.42 40.53 46.42 39.95V38.21H44.29V39.95C44.29 41.71 45.72 43.14 47.48 43.14Z" fill="white"/>
<path d="M65.07 39.9499C65.07 40.5399 64.59 41.0099 64.01 41.0099V43.1399C65.77 43.1399 67.2 41.7099 67.2 39.9499V38.6699H65.07V39.9499Z" fill="white"/>
</svg>
