<svg width="269" height="354" viewBox="0 0 269 354" fill="none" xmlns="http://www.w3.org/2000/svg">
<g clip-path="url(#clip0_1_635)">
<path d="M202.054 209.931V168.23C202.054 165.573 199.9 163.426 197.249 163.426H71.7514C69.0941 163.426 66.9463 165.579 66.9463 168.23V209.931C66.9463 212.588 64.7922 214.735 62.1412 214.735H4.81741C0.533927 214.735 -1.60781 219.913 1.41762 222.938L131.1 352.589C132.978 354.466 136.022 354.466 137.9 352.589L267.582 222.938C270.614 219.907 268.466 214.735 264.183 214.735H206.865C204.208 214.735 202.06 212.582 202.06 209.931H202.054Z" fill="#1D1D1B"/>
<path d="M197.255 97.3118H71.7513C69.0975 97.3118 66.9462 99.4626 66.9462 102.116V132.074C66.9462 134.727 69.0975 136.878 71.7513 136.878H197.255C199.909 136.878 202.06 134.727 202.06 132.074V102.116C202.06 99.4626 199.909 97.3118 197.255 97.3118Z" fill="#1D1D1B"/>
<path d="M197.255 32.8484H71.7513C69.0975 32.8484 66.9462 34.9992 66.9462 37.6523V64.3347C66.9462 66.9878 69.0975 69.1386 71.7513 69.1386H197.255C199.909 69.1386 202.06 66.9878 202.06 64.3347V37.6523C202.06 34.9992 199.909 32.8484 197.255 32.8484Z" fill="#1D1D1B"/>
<path d="M197.255 0H71.7513C69.0975 0 66.9462 2.15079 66.9462 4.80393V11.4239C66.9462 14.077 69.0975 16.2278 71.7513 16.2278H197.255C199.909 16.2278 202.06 14.077 202.06 11.4239V4.80393C202.06 2.15079 199.909 0 197.255 0Z" fill="#1D1D1B"/>
</g>
<defs>
<clipPath id="clip0_1_635">
<rect width="269" height="354" fill="white"/>
</clipPath>
</defs>
</svg>
