<svg width="110" height="96" viewBox="0 0 110 96" fill="none" xmlns="http://www.w3.org/2000/svg">
<path d="M100.67 19.6H73.64C69.74 19.6 66.56 22.8 66.56 26.73V37.72H69.9V31.13H104.4V75.61H69.9V69.64H66.56V82.75C66.56 86.28 70.13 89.88 73.64 89.88H100.67C104.18 89.88 107.75 86.28 107.75 82.75V26.74C107.75 22.81 104.58 19.61 100.67 19.61V19.6ZM104.41 82.75C104.41 84.45 102.35 86.54 100.67 86.54H73.64C71.96 86.54 69.9 84.45 69.9 82.75V78.96H104.4V82.75H104.41ZM69.9 27.8V26.74C69.9 24.65 71.58 22.95 73.64 22.95H100.67C102.73 22.95 104.41 24.65 104.41 26.74V27.8H69.91H69.9Z" fill="white"/>
<path d="M90.54 81.08H83.78V84.42H90.54V81.08Z" fill="white"/>
<path d="M25.98 81.08H19.22V84.42H25.98V81.08Z" fill="white"/>
<path d="M49.2 66.6H74.13V75.43L96.18 53.38L74.13 31.33V40.16H48.33C46.86 38.48 45.13 37.05 43.19 35.93V31.15V26.75C43.19 22.82 40.02 19.62 36.11 19.62H9.08002C5.18002 19.62 2 22.82 2 26.75V31.15V75.63V82.76C2 86.29 5.57002 89.89 9.08002 89.89H36.11C39.61 89.89 43.19 86.29 43.19 82.76V75.63V71.91C45.52 70.56 47.56 68.76 49.2 66.62V66.6ZM9.08002 22.94H36.11C38.17 22.94 39.85 24.64 39.85 26.73V27.79H5.35004V26.73C5.35004 24.64 7.03003 22.94 9.09003 22.94H9.08002ZM76.91 42.93V38.04L92.2401 53.37L76.91 68.7V63.81H51.02C52.61 60.86 53.52 57.48 53.52 53.9C53.52 49.87 52.36 46.12 50.39 42.93H76.91ZM50.17 53.9C50.17 63.48 42.51 71.28 33.09 71.28C23.67 71.28 16.01 63.48 16.01 53.9C16.01 44.32 23.67 36.52 33.09 36.52C42.51 36.52 50.17 44.32 50.17 53.9ZM39.85 82.75C39.85 84.45 37.79 86.54 36.11 86.54H9.08002C7.40002 86.54 5.34003 84.45 5.34003 82.75V78.96H39.84V82.75H39.85ZM39.85 75.62H5.35004V31.14H39.85V34.38C37.73 33.62 35.46 33.19 33.09 33.19C21.83 33.19 12.67 42.48 12.67 53.91C12.67 65.34 21.83 74.63 33.09 74.63C35.46 74.63 37.73 74.2 39.85 73.44V75.62Z" fill="white"/>
<path d="M77.69 15.84H81.03V12.09H84.73V8.75H81.03V5H77.69V8.75H73.9901V12.09H77.69V15.84Z" fill="white"/>
<path d="M55.81 33.8999H59.15V30.1499H62.85V26.8099H59.15V23.0599H55.81V26.8099H52.11V30.1499H55.81V33.8999Z" fill="white"/>
<path d="M41.19 17.3899H44.53V13.6499H48.23V10.3099H44.53V6.55994H41.19V10.3099H37.48V13.6499H41.19V17.3899Z" fill="white"/>
<path d="M31.9 42.5699V45.63H31.68C29.46 45.63 27.65 47.4399 27.65 49.6499V50.44C27.65 52.17 28.76 53.7099 30.4 54.2599L35.03 55.8C35.7 56.02 36.16 56.65 36.16 57.36V58.1499C36.16 59.0599 35.42 59.7899 34.52 59.7899H31.69C30.78 59.7899 30.05 59.0499 30.05 58.1499H27.67C27.67 60.3699 29.48 62.17 31.7 62.17H31.92V65.2299H34.3V62.17H34.53C36.75 62.17 38.55 60.3699 38.55 58.1499V57.36C38.55 55.63 37.45 54.0899 35.8 53.5399L31.17 52C30.5 51.78 30.05 51.15 30.05 50.44V49.6499C30.05 48.7399 30.79 48.0099 31.69 48.0099H34.52C35.43 48.0099 36.16 48.7499 36.16 49.6499H38.54C38.54 47.4299 36.74 45.63 34.52 45.63H34.29V42.5699H31.91H31.9Z" fill="white"/>
</svg>
