<svg width="92" height="96" viewBox="0 0 92 96" fill="none" xmlns="http://www.w3.org/2000/svg">
<path d="M8.46 34.1501H6.08V37.2701H3V39.6501H6.08V42.7801H8.46V39.6501H11.54V37.2701H8.46V34.1501Z" fill="white"/>
<path d="M24.28 25.7201H26.65V22.5901H29.73V20.2101H26.65V17.0901H24.28V20.2101H21.19V22.5901H24.28V25.7201Z" fill="white"/>
<path d="M68.72 14H41.58C37.93 14 34.96 17 34.96 20.68V37.7C33.22 37.1 31.37 36.76 29.43 36.76C20.04 36.76 12.41 44.4 12.41 53.79C12.41 63.18 20.05 70.82 29.43 70.82C31.37 70.82 33.22 70.48 34.96 69.88V76.99C34.96 80.3 38.3 83.67 41.58 83.67H68.72C70.27 83.67 71.92 82.9 73.25 81.55C74.57 80.21 75.33 78.54 75.34 76.98V20.68C75.34 17 72.37 14 68.72 14ZM72.96 22.24H37.34V20.68C37.34 18.3 39.24 16.37 41.58 16.37H68.72C71.06 16.37 72.96 18.3 72.96 20.68V22.24ZM29.44 68.45C21.36 68.45 14.79 61.88 14.79 53.8C14.79 45.72 21.36 39.15 29.44 39.15C31.4 39.15 33.26 39.54 34.97 40.24C35.8 40.58 36.6 41 37.35 41.48C41.4 44.09 44.1 48.63 44.1 53.8C44.1 58.97 41.4 63.51 37.35 66.12C36.6 66.6 35.81 67.02 34.97 67.36C33.26 68.06 31.4 68.45 29.44 68.45ZM72.96 77C72.96 77.93 72.44 79.01 71.56 79.9C70.69 80.78 69.63 81.31 68.72 81.31H41.58C39.64 81.31 37.34 78.98 37.34 77V72.69H72.96V77ZM72.96 70.32H37.34V68.87C42.76 66.02 46.46 60.34 46.46 53.8C46.46 47.26 42.75 41.58 37.34 38.73V24.62H72.96V70.32Z" fill="white"/>
<path d="M57.87 75.8101H51.08V78.1901H57.87V75.8101Z" fill="white"/>
<path d="M35.61 48.48L26.8 58.16L23.87 55.23L23.24 54.6L22.28 55.56L23.87 57.15L26.73 60.01L36.56 49.43L35.61 48.48Z" fill="white"/>
<path d="M56.76 52.3H54.09C53.25 52.3 52.57 51.61 52.57 50.77H50.27C50.27 52.88 51.98 54.6 54.09 54.6H54.28V57.47H56.58V54.6H56.76C58.87 54.6 60.58 52.88 60.58 50.77V50.02C60.58 48.37 59.53 46.91 57.97 46.39L53.61 44.93C52.99 44.72 52.57 44.14 52.57 43.48V42.73C52.57 41.89 53.25 41.2 54.09 41.2H56.76C57.6 41.2 58.28 41.88 58.28 42.73H60.58C60.58 40.62 58.87 38.9 56.76 38.9H56.58V36.03H54.28V38.9H54.09C51.99 38.9 50.27 40.62 50.27 42.73V43.48C50.27 45.13 51.32 46.59 52.88 47.11L57.24 48.57C57.86 48.78 58.28 49.36 58.28 50.02V50.77C58.28 51.61 57.6 52.3 56.76 52.3Z" fill="white"/>
</svg>
