<svg width="113" height="41" viewBox="0 0 113 41" fill="none" xmlns="http://www.w3.org/2000/svg">
<g clip-path="url(#clip0_1_625)">
<path d="M105.991 2.70166L93.0547 15.7069L96.4546 19.1297L109.394 6.1167L105.991 2.70166Z" fill="white"/>
<path d="M87.3882 0H82.595V13.9487H87.3882V0Z" fill="white"/>
<path d="M84.3454 18.2993C81.3065 18.2993 78.675 19.3909 76.5132 21.6208C74.2932 23.8468 73.2142 26.5406 73.2142 29.6516C73.2142 32.7626 74.2932 35.4525 76.5132 37.6317C78.675 39.8655 81.3065 41 84.3454 41C87.3844 41 90.0624 39.8616 92.2785 37.6317C94.4442 35.4525 95.5231 32.7626 95.5231 29.6516C95.5231 26.5406 94.4442 23.8468 92.2785 21.6208C90.0624 19.3909 87.3882 18.2993 84.3454 18.2993ZM88.5177 33.8502C87.3882 35.0432 85.9949 35.6084 84.3454 35.6084C82.6959 35.6084 81.3569 35.0432 80.2236 33.8502C79.0864 32.6573 78.4693 31.2578 78.4693 29.6516C78.4693 27.9441 79.0864 26.5406 80.2236 25.4023C81.353 24.2133 82.7464 23.6402 84.3454 23.6909C85.9949 23.6402 87.3844 24.2094 88.5642 25.4023C89.651 26.5406 90.2137 27.9441 90.2681 29.6516C90.2137 31.2578 89.651 32.6573 88.5138 33.8502H88.5177Z" fill="white"/>
<path d="M13.8053 18.0966C15.4548 18.0966 16.949 18.5605 18.3928 19.4962C19.6814 20.3811 20.7138 21.6208 21.4357 23.071H27.0478C26.225 20.0653 24.626 17.5781 22.2041 15.664C19.7357 13.6914 16.9025 12.709 13.8092 12.7557C9.94742 12.7051 6.74934 14.05 4.07134 16.8491C1.33512 19.5975 0 22.8605 0 26.7473C0 30.634 1.33512 33.9555 4.06746 36.7C6.74546 39.3939 9.94742 40.7466 13.8053 40.7466C16.8986 40.7466 19.7318 39.811 22.2002 37.8929C24.626 35.9242 26.2211 33.4916 27.0439 30.482H21.4318C20.7099 31.9361 19.6775 33.1213 18.3889 34.0608C16.9451 34.9418 15.4548 35.4057 13.8014 35.4057C11.4339 35.4057 9.42346 34.5247 7.77008 32.864C6.07402 31.1564 5.24733 29.137 5.29778 26.7473C5.24733 24.3692 6.07402 22.342 7.77008 20.6384C9.41958 18.9777 11.43 18.0966 13.8014 18.0966H13.8053Z" fill="white"/>
<path d="M54.0452 19.6481C52.19 18.6657 50.1291 18.1979 47.812 18.2486C44.2064 18.194 41.6759 19.1803 40.236 21.0984C39.3084 22.2874 38.8427 23.8468 38.6913 25.8194H44.0512C44.1521 24.8876 44.4665 24.2639 44.8235 23.8507C45.394 23.1217 46.3139 22.7552 47.6606 22.8098C48.7939 22.7552 49.6711 22.9657 50.2843 23.3283C50.8975 23.6401 51.1576 24.2639 51.2119 25.141C51.2119 25.8662 50.7966 26.4392 49.9777 26.8057L45.852 27.4723C43.9464 27.7374 42.4017 28.1974 41.214 28.8758C39.2075 30.0687 38.2294 31.9828 38.2838 34.7351C38.2333 36.6454 38.8465 38.2048 40.0846 39.3431C41.1675 40.2787 42.6578 40.7933 44.4703 40.8479C47.4006 40.7933 49.7215 40.0682 51.3672 38.6141V40.8479H56.7309V24.9851C56.7309 22.3926 55.7956 20.5838 54.0452 19.6481ZM51.1071 32.0374C51.1071 33.9009 50.5909 35.1952 49.6168 35.9203C48.5844 36.6454 47.5054 37.0079 46.2673 37.0079C45.495 37.0079 44.874 36.8013 44.3617 36.3881C43.8493 35.9203 43.5893 35.2497 43.5893 34.2634C43.5893 33.1758 44.0046 32.3961 44.8779 31.823C45.3979 31.5111 46.2712 31.2538 47.4045 31.0979L50.0864 30.4195L51.1149 29.8543V32.0296L51.1071 32.0374Z" fill="white"/>
<path d="M35.14 12.7557H29.7802V40.848H35.14V12.7557Z" fill="white"/>
<path d="M71.3124 18.4552L69.2477 19.0283C67.8078 19.6014 66.5231 20.5838 65.4364 22.0847V19.3363L60.3326 19.2895V40.8518H65.6382V30.5404C65.6382 28.7744 65.8478 27.5347 66.3135 26.7511C66.6706 25.9247 67.342 25.2541 68.1687 24.6811C69.0924 24.0573 70.0705 23.7454 71.1067 23.7454L72.7524 23.8507L72.7019 18.3539L71.3124 18.4591V18.4552Z" fill="white"/>
<path d="M113 25.9403V24.5212H98.826V29.3397H113V25.952" fill="white"/>
</g>
<defs>
<clipPath id="clip0_1_625">
<rect width="113" height="41" fill="white"/>
</clipPath>
</defs>
</svg>
