<svg width="140" height="29" viewBox="0 0 140 29" fill="none" xmlns="http://www.w3.org/2000/svg">
<g clip-path="url(#clip0_1_4)">
<path d="M73.8018 1.854L64.7969 10.782L67.1639 13.1296L76.1727 4.20163L73.8018 1.854Z" fill="#EA3B2F"/>
<path d="M60.8479 0H57.5113V9.57319H60.8479V0Z" fill="#EA3B2F"/>
<path d="M58.7321 12.5621C56.6163 12.5621 54.7831 13.3123 53.2797 14.8398C51.7331 16.3673 50.9833 18.2174 50.9833 20.3513C50.9833 22.4851 51.737 24.3353 53.2797 25.8278C54.7831 27.3592 56.6163 28.1404 58.7321 28.1404C60.8479 28.1404 62.7125 27.3592 64.2552 25.8278C65.7625 24.3314 66.5162 22.4851 66.5162 20.3513C66.5162 18.2174 65.7665 16.3673 64.2552 14.8398C62.7125 13.3084 60.8479 12.5621 58.7321 12.5621ZM61.6369 23.2353C60.8518 24.0554 59.8783 24.4441 58.7321 24.4441C57.5859 24.4441 56.6516 24.0554 55.8626 23.2353C55.0697 22.4152 54.6418 21.4551 54.6418 20.3513C54.6418 19.1814 55.0736 18.2135 55.8626 17.4362C56.6477 16.62 57.6173 16.2274 58.7321 16.2624C59.8783 16.2274 60.8479 16.62 61.6722 17.4362C62.4299 18.2174 62.8224 19.1814 62.8577 20.3513C62.8224 21.4512 62.4259 22.4152 61.6369 23.2353Z" fill="#EA3B2F"/>
<path d="M9.61335 12.4222C10.7635 12.4222 11.8037 12.7409 12.8047 13.3822C13.7036 13.9885 14.4181 14.8398 14.9244 15.8348H18.8342C18.261 13.7709 17.1501 12.0646 15.4583 10.7508C13.739 9.39435 11.7645 8.72193 9.61335 8.75691C6.92444 8.72193 4.6948 9.64699 2.83023 11.5671C0.930324 13.4522 0 15.691 0 18.3612C0 21.0314 0.930324 23.3091 2.83023 25.1942C4.6948 27.0443 6.92444 27.9694 9.61335 27.9694C11.7684 27.9694 13.739 27.328 15.4583 26.0104C17.1462 24.6578 18.2571 22.9904 18.8342 20.9226H14.9244C14.422 21.9215 13.7036 22.7339 12.8047 23.3791C11.7998 23.9854 10.7596 24.3041 9.61335 24.3041C7.96467 24.3041 6.5633 23.6978 5.41315 22.5589C4.2316 21.3851 3.65849 20.0014 3.69382 18.3612C3.65849 16.7287 4.23553 15.3373 5.41315 14.1673C6.5633 13.0285 7.96075 12.4222 9.61335 12.4222Z" fill="#EA3B2F"/>
<path d="M37.633 13.4871C36.3415 12.8147 34.9087 12.4921 33.2954 12.5271C30.7831 12.4921 29.0245 13.1684 28.0196 14.4822C27.3758 15.2984 27.05 16.3712 26.9441 17.7199H30.6732C30.7439 17.0824 30.9637 16.651 31.211 16.3673C31.6074 15.8659 32.2512 15.6171 33.1855 15.6521C33.9745 15.6132 34.5829 15.757 35.0147 16.0058C35.4426 16.2196 35.6231 16.6471 35.6585 17.2496C35.6585 17.7471 35.368 18.1396 34.7988 18.3923L31.9254 18.8509C30.5986 19.0336 29.5231 19.3484 28.6948 19.8149C27.2973 20.635 26.6182 21.9487 26.6536 23.8377C26.6182 25.1514 27.0461 26.2203 27.9058 27.0016C28.6595 27.6429 29.6997 27.9966 30.9598 28.0354C33.001 28.0005 34.6143 27.4991 35.7645 26.504V28.0354H39.5015V17.1485C39.5015 15.3684 38.8498 14.1246 37.633 13.4833V13.4871ZM35.5878 21.9915C35.5878 23.2702 35.2306 24.1603 34.5476 24.6578C33.8292 25.1553 33.0756 25.4041 32.2159 25.4041C31.6781 25.4041 31.2463 25.2603 30.8891 24.9804C30.5319 24.6578 30.3513 24.1992 30.3513 23.5229C30.3513 22.7766 30.6418 22.2402 31.2463 21.8477C31.6074 21.6339 32.2159 21.4551 33.0049 21.3501L34.8734 20.8876L35.5878 20.4989V21.9915Z" fill="#EA3B2F"/>
<path d="M24.4632 8.75696H20.7341V28.0394H24.4632V8.75696Z" fill="#EA3B2F"/>
<path d="M49.6565 12.667L48.2159 13.0596C47.2149 13.4522 46.316 14.1285 45.5623 15.1585V13.2734L42.0098 13.2423V28.0432H45.7036V20.9653C45.7036 19.7527 45.8489 18.9015 46.1747 18.3651C46.422 17.7976 46.8891 17.3351 47.4662 16.9425C48.1099 16.515 48.789 16.3012 49.5113 16.3012L50.6575 16.375L50.6222 12.601L49.6565 12.6709V12.667Z" fill="#EA3B2F"/>
<path d="M78.6811 17.8054V16.8337H68.8126V20.1414H78.6811V17.8132" fill="#EA3B2F"/>
<path d="M115.341 27.3981H103.576C102.41 27.3981 101.637 26.2048 102.12 25.1554L104.55 19.9004C104.809 19.3368 105.378 18.9754 106.006 18.9754H115.961C116.31 18.9754 116.624 18.7732 116.769 18.4623L116.966 18.0348C117.123 17.6966 116.871 17.3118 116.495 17.3118H106.544C106.167 17.3118 105.92 16.927 106.073 16.5889L106.866 14.8787C107.125 14.3151 107.694 13.9536 108.322 13.9536H121.778C122.155 13.9536 122.402 14.3384 122.249 14.6766L116.801 26.4769C116.542 27.0405 115.973 27.4019 115.344 27.4019L115.341 27.3981ZM107.168 24.036H113.617C113.963 24.036 114.277 23.8377 114.422 23.5229L114.638 23.0526C114.795 22.7145 114.544 22.3297 114.167 22.3297H107.478C107.278 22.3297 107.093 22.4463 107.007 22.629L106.689 23.313C106.532 23.6512 106.783 24.036 107.16 24.036H107.168Z" fill="#141414"/>
<path d="M102.544 13.9497C103.286 13.9497 103.776 14.7115 103.462 15.3762L101.527 19.4923C100.385 21.9643 97.896 23.5462 95.1521 23.5462H88.3926C88.2238 23.5462 88.0707 23.6434 88.0039 23.795L86.7635 26.4808C86.5044 27.0443 85.9353 27.4058 85.3072 27.4058H82.791C82.7086 27.4058 82.6575 27.3242 82.6889 27.2503L88.3651 14.9292C88.6399 14.3306 89.2444 13.9497 89.9078 13.9497H102.544ZM89.8371 20.188H95.6821C96.7733 20.188 97.7625 19.5584 98.2179 18.575L98.4691 18.0308C98.6261 17.6927 98.3749 17.3079 97.9981 17.3079H91.3248C91.1207 17.3079 90.9402 17.4245 90.8538 17.6072L89.7351 20.0326C89.6997 20.1064 89.7547 20.188 89.8371 20.188Z" fill="#141414"/>
<path d="M139.482 13.9419H135.674C135.352 13.9419 135.034 14.0391 134.767 14.2218L129.943 17.4984L128.024 14.6454C127.729 14.2062 127.231 13.9419 126.701 13.9381L124.432 13.9264C124.02 13.9264 123.772 14.3811 124 14.7193L127.843 20.429L124.695 27.2426C124.659 27.3164 124.714 27.398 124.797 27.398H127.325C127.953 27.398 128.522 27.0405 128.781 26.473L131.568 20.4912L139.776 14.867C140.192 14.5833 139.988 13.9342 139.482 13.9342V13.9419Z" fill="#141414"/>
</g>
<defs>
<clipPath id="clip0_1_4">
<rect width="140" height="28.1443" fill="white"/>
</clipPath>
</defs>
</svg>
