<svg width="285" height="135" viewBox="0 0 285 135" fill="none" xmlns="http://www.w3.org/2000/svg">
<path d="M61.732 49.6224C67.6503 54.7541 70.6121 61.8941 70.6121 71.0423C70.6121 83.747 64.9483 93.2255 53.6153 99.4777C42.2822 105.73 25.7456 108.853 4 108.853V86.2912C16.9629 86.2912 26.3791 85.1761 32.2541 82.9351C38.1237 80.6994 41.0585 77.3974 41.0585 73.0235C41.0585 69.9759 39.759 67.6862 37.1545 66.1651C34.55 64.644 30.9004 63.8807 26.2059 63.8807C23.3469 63.8807 19.7731 64.1351 15.4847 64.644C11.1962 65.1528 7.36797 65.7645 4 66.4736V1.82959H67.3958V25.0034H28.0415V42.5366C30.7976 42.1306 33.7053 41.9249 36.77 41.9249C47.4912 41.9249 55.8082 44.4908 61.732 49.6224Z" fill="white"/>
<path d="M81.7124 94.6763C73.8014 85.2249 69.8433 71.8057 69.8433 54.4294C69.8433 37.0531 73.796 23.6339 81.7124 14.1825C89.6233 4.72569 100.572 0 114.558 0C128.544 0 139.466 4.75276 147.328 14.2529C155.19 23.7584 159.122 37.1451 159.122 54.424C159.122 71.7028 155.19 85.095 147.328 94.5951C139.466 104.101 128.544 108.848 114.558 108.848C100.572 108.848 89.6233 104.122 81.7124 94.6709V94.6763ZM103.382 78.361C105.624 83.6497 109.3 86.2913 114.407 86.2913C119.513 86.2913 123.211 83.6497 125.507 78.361C127.803 73.0777 128.951 65.0987 128.951 54.424C128.951 43.7492 127.803 35.7756 125.507 30.487C123.211 25.2037 119.507 22.5621 114.407 22.5621C109.306 22.5621 105.624 25.2037 103.382 30.487C101.135 35.7756 100.014 43.7492 100.014 54.424C100.014 65.0987 101.135 73.0777 103.382 78.361Z" fill="white"/>
<path d="M176.958 52.0422C172.924 49.6387 169.783 46.3692 167.541 42.2281C165.294 38.0924 164.173 33.4154 164.173 28.2026C164.173 22.9897 165.294 18.3181 167.541 14.1771C169.789 10.036 172.924 6.79349 176.958 4.43877C180.992 2.08945 185.659 0.914795 190.971 0.914795C196.283 0.914795 200.95 2.08945 204.984 4.43877C209.018 6.78808 212.153 10.036 214.401 14.1771C216.642 18.3181 217.769 22.9897 217.769 28.2026C217.769 33.4154 216.642 38.0924 214.401 42.2281C212.153 46.3692 209.013 49.6387 204.984 52.0422C200.95 54.4456 196.277 55.6419 190.971 55.6419C185.665 55.6419 180.992 54.4402 176.958 52.0422ZM258.038 2.44131H275.186L189.13 107.024H171.982L258.038 2.44131ZM183.845 38.1411C185.426 40.864 187.798 42.2227 190.966 42.2227C194.133 42.2227 196.656 40.864 198.238 38.1411C199.819 35.4183 200.609 32.1055 200.609 28.2026C200.609 24.2997 199.819 21.0085 198.238 18.3398C196.651 15.6711 194.231 14.334 190.966 14.334C187.701 14.334 185.302 15.6711 183.769 18.3398C182.237 21.0139 181.474 24.2997 181.474 28.2026C181.474 32.1055 182.264 35.4183 183.845 38.1411ZM232.773 66.9338C235.02 62.8414 238.155 59.6314 242.189 57.3092C246.223 54.9869 250.891 53.8231 256.202 53.8231C261.514 53.8231 266.182 54.9869 270.216 57.3092C274.25 59.6314 277.385 62.8414 279.632 66.9338C281.874 71.0261 283 75.649 283 80.8023C283 85.9556 281.874 90.5785 279.632 94.6708C277.385 98.7632 274.244 102 270.216 104.371C266.182 106.748 261.509 107.933 256.202 107.933C250.896 107.933 246.223 106.748 242.189 104.371C238.155 101.995 235.015 98.7632 232.773 94.6708C230.526 90.5785 229.405 85.9556 229.405 80.8023C229.405 75.649 230.526 71.0261 232.773 66.9338ZM249.001 90.6056C250.533 93.2201 252.932 94.5247 256.197 94.5247C259.462 94.5247 261.888 93.1931 263.469 90.5298C265.05 87.8665 265.841 84.6294 265.841 80.8077C265.841 76.986 265.05 73.776 263.469 71.1615C261.882 68.5469 259.462 67.2423 256.197 67.2423C252.932 67.2423 250.533 68.5253 249.001 71.0857C247.468 73.6515 246.705 76.8886 246.705 80.8077C246.705 84.7269 247.468 87.9964 249.001 90.6056Z" fill="white"/>
<path d="M13.6166 119.23V122.522H8.37511V124.968H12.0788V128.26H8.37511V130.88H13.6166V134.171H4.15161V119.23H13.6166Z" fill="white"/>
<path d="M14.9594 119.317H19.0746L23.8396 128.779H23.9912C23.6609 126.879 23.493 125.142 23.493 123.566V119.317H27.305V134.171H23.1898L18.4032 124.752H18.2732C18.5927 126.554 18.7497 128.276 18.7497 129.921V134.171H14.9594V119.317Z" fill="white"/>
<path d="M42.9428 122.716H39.3041V134.171H35.0373V122.716H31.4202V119.317H42.9428V122.716Z" fill="white"/>
<path d="M55.2776 131.865C54.7957 132.682 54.0972 133.31 53.1875 133.759C52.2778 134.209 51.2003 134.431 49.9603 134.431C48.7203 134.431 47.6212 134.209 46.7115 133.77C45.8018 133.332 45.1033 132.698 44.6214 131.876C44.1395 131.053 43.8958 130.095 43.8958 128.996V119.317H48.1626V128.801C48.1626 130.246 48.7637 130.966 49.9603 130.966C51.157 130.966 51.7364 130.246 51.7364 128.801V119.317H56.0032V128.996C56.0032 130.095 55.7595 131.047 55.2776 131.865Z" fill="white"/>
<path d="M58.1908 121.212C58.6943 120.481 59.3982 119.929 60.2917 119.544C61.1851 119.16 62.2193 118.971 63.3889 118.971C64.7155 118.971 66.0584 119.187 67.4175 119.62V123.128C66.6107 122.911 65.8039 122.733 65.0025 122.587C64.2011 122.44 63.5622 122.37 63.0857 122.37C62.1598 122.37 61.6995 122.695 61.6995 123.344C61.6995 123.664 61.8132 123.913 62.0461 124.102C62.2789 124.292 62.6525 124.476 63.1723 124.665L64.97 125.336C67.1792 126.176 68.2838 127.605 68.2838 129.624C68.2838 130.603 68.0402 131.459 67.5474 132.19C67.0547 132.92 66.3724 133.472 65.4898 133.857C64.6072 134.241 63.5838 134.431 62.4143 134.431C61.5641 134.431 60.6545 134.339 59.6852 134.16C58.716 133.981 57.9309 133.754 57.3244 133.478V129.775C58.1474 130.149 59.0463 130.452 60.0209 130.685C60.9956 130.917 61.8241 131.031 62.5009 131.031C62.9611 131.031 63.3293 130.955 63.6055 130.804C63.8817 130.652 64.017 130.409 64.017 130.078C64.017 129.792 63.8925 129.542 63.6488 129.342C63.4052 129.142 62.9936 128.936 62.4143 128.736L60.8332 128.151C59.7664 127.745 58.9326 127.204 58.3315 126.517C57.7305 125.829 57.4327 124.93 57.4327 123.821C57.4327 122.809 57.6872 121.942 58.1908 121.212Z" fill="white"/>
<path d="M72.816 119.23H79.7035C81.0626 119.23 82.1348 119.604 82.9199 120.356C83.705 121.109 84.1003 122.159 84.1003 123.518C84.1003 124.454 83.9108 125.244 83.5263 125.878C83.1419 126.511 82.6329 127.02 81.9994 127.393V127.523L84.9233 134.171H80.3316L78.4906 129.256H77.0611V134.171H72.816V119.23ZM78.4257 126.268C79.5357 126.268 80.0934 125.596 80.0934 124.254C80.0934 122.911 79.5357 122.24 78.4257 122.24H77.0611V126.268H78.4257Z" fill="white"/>
<path d="M95.5579 119.23V122.522H90.3164V124.968H94.0201V128.26H90.3164V130.88H95.5579V134.171H86.0929V119.23H95.5579Z" fill="white"/>
<path d="M104.947 122.684C104.389 122.549 103.87 122.478 103.377 122.478C102.278 122.478 101.465 122.846 100.929 123.583C100.393 124.319 100.128 125.358 100.128 126.701C100.128 128.043 100.399 129.099 100.94 129.829C101.482 130.56 102.315 130.923 103.442 130.923C103.859 130.923 104.368 130.874 104.958 130.782C105.548 130.69 106.025 130.56 106.387 130.403V134.041C105.938 134.171 105.44 134.268 104.882 134.333C104.324 134.398 103.805 134.431 103.312 134.431C101.736 134.431 100.382 134.117 99.2508 133.489C98.1191 132.861 97.2581 131.968 96.6733 130.804C96.0885 129.64 95.7961 128.281 95.7961 126.722C95.7961 125.163 96.094 123.783 96.6842 122.619C97.2744 121.455 98.1299 120.557 99.2399 119.923C100.35 119.29 101.671 118.971 103.204 118.971C104.357 118.971 105.418 119.16 106.387 119.534V123.171C105.981 122.982 105.505 122.819 104.947 122.684Z" fill="white"/>
<path d="M116.805 134.171L116.026 131.307H111.824L111.044 134.171H106.929L110.957 119.317H117.065L121.094 134.171H116.805ZM115.354 127.994L114.033 123.15H113.816L112.495 127.994H115.354Z" fill="white"/>
<path d="M121.938 119.23H128.826C130.185 119.23 131.257 119.604 132.042 120.356C132.828 121.109 133.223 122.159 133.223 123.518C133.223 124.454 133.033 125.244 132.649 125.878C132.264 126.511 131.755 127.02 131.122 127.393V127.523L134.046 134.171H129.454L127.613 129.256H126.184V134.171H121.938V119.23ZM127.548 126.268C128.658 126.268 129.216 125.596 129.216 124.254C129.216 122.911 128.658 122.24 127.548 122.24H126.184V126.268H127.548Z" fill="white"/>
<path d="M143.706 122.619C142.969 122.495 142.325 122.435 141.778 122.435C140.565 122.435 139.672 122.798 139.103 123.518C138.535 124.238 138.248 125.299 138.248 126.701C138.248 128.103 138.524 129.164 139.071 129.884C139.618 130.603 140.495 130.966 141.691 130.966H142.06V126.895H146.088V133.824C145.379 134.014 144.599 134.16 143.738 134.268C142.877 134.376 142.119 134.431 141.453 134.431C139.867 134.431 138.502 134.117 137.371 133.489C136.239 132.861 135.378 131.968 134.793 130.804C134.208 129.64 133.916 128.281 133.916 126.722C133.916 125.163 134.214 123.761 134.815 122.597C135.416 121.434 136.293 120.54 137.457 119.912C138.621 119.285 140.018 118.971 141.648 118.971C142.282 118.971 142.937 119.019 143.608 119.111C144.28 119.203 144.913 119.344 145.503 119.534V123.041C145.043 122.884 144.442 122.744 143.706 122.619Z" fill="white"/>
<path d="M156.679 134.171L155.9 131.307H151.698L150.918 134.171H146.803L150.832 119.317H156.939L160.968 134.171H156.679ZM155.228 127.994L153.907 123.15H153.691L152.369 127.994H155.228Z" fill="white"/>
<path d="M161.856 121.212C162.36 120.481 163.063 119.929 163.957 119.544C164.85 119.16 165.885 118.971 167.054 118.971C168.381 118.971 169.724 119.187 171.083 119.62V123.128C170.276 122.911 169.469 122.733 168.668 122.587C167.866 122.44 167.227 122.37 166.751 122.37C165.825 122.37 165.365 122.695 165.365 123.344C165.365 123.664 165.478 123.913 165.711 124.102C165.944 124.292 166.318 124.476 166.838 124.665L168.635 125.336C170.844 126.176 171.949 127.605 171.949 129.624C171.949 130.603 171.705 131.459 171.213 132.19C170.72 132.92 170.038 133.472 169.155 133.857C168.272 134.241 167.249 134.431 166.079 134.431C165.229 134.431 164.32 134.339 163.35 134.16C162.381 133.981 161.596 133.754 160.99 133.478V129.775C161.813 130.149 162.712 130.452 163.686 130.685C164.661 130.917 165.489 131.031 166.166 131.031C166.626 131.031 166.995 130.955 167.271 130.804C167.547 130.652 167.682 130.409 167.682 130.078C167.682 129.792 167.558 129.542 167.314 129.342C167.07 129.142 166.659 128.936 166.079 128.736L164.498 128.151C163.432 127.745 162.598 127.204 161.997 126.517C161.396 125.829 161.098 124.93 161.098 123.821C161.098 122.809 161.352 121.942 161.856 121.212Z" fill="white"/>
</svg>
