<svg width="285" height="157" viewBox="0 0 285 157" fill="none" xmlns="http://www.w3.org/2000/svg">
<path d="M61.732 49.6079C67.6503 54.7395 70.6121 61.8795 70.6121 71.0278C70.6121 83.7325 64.9483 93.2109 53.6153 99.4631C42.2822 105.715 25.7456 108.839 4 108.839V86.2766C16.9629 86.2766 26.3791 85.1615 32.2541 82.9205C38.1237 80.6849 41.0585 77.3828 41.0585 73.009C41.0585 69.9614 39.759 67.6716 37.1545 66.1505C34.55 64.6294 30.9004 63.8661 26.2059 63.8661C23.3469 63.8661 19.7731 64.1205 15.4847 64.6294C11.1962 65.1382 7.36797 65.7499 4 66.459V1.82043H67.3958V24.9942H28.0415V42.5274C30.7976 42.1214 33.7053 41.9157 36.77 41.9157C47.4912 41.9157 55.8082 44.4816 61.732 49.6133V49.6079Z" fill="white"/>
<path d="M81.7124 94.6617C73.8014 85.2103 69.8433 71.791 69.8433 54.4148C69.8433 37.0385 73.796 23.6193 81.7124 14.1679C89.6233 4.71648 100.572 -0.00921631 114.558 -0.00921631C128.544 -0.00921631 139.466 4.74354 147.328 14.2436C155.19 23.7492 159.122 37.1359 159.122 54.4148C159.122 71.6936 155.19 85.0858 147.328 94.5859C139.466 104.091 128.544 108.839 114.558 108.839C100.572 108.839 89.6233 104.113 81.7124 94.6617ZM103.382 78.3464C105.624 83.635 109.3 86.2766 114.407 86.2766C119.513 86.2766 123.211 83.635 125.507 78.3464C127.803 73.0631 128.951 65.0841 128.951 54.4093C128.951 43.7346 127.803 35.761 125.507 30.4723C123.211 25.1891 119.507 22.5474 114.407 22.5474C109.306 22.5474 105.624 25.1891 103.382 30.4723C101.135 35.761 100.014 43.7346 100.014 54.4093C100.014 65.0841 101.135 73.0631 103.382 78.3464Z" fill="white"/>
<path d="M176.958 52.0275C172.924 49.6241 169.783 46.3545 167.541 42.2134C165.294 38.0778 164.173 33.4008 164.173 28.1879C164.173 22.975 165.294 18.3035 167.541 14.1624C169.789 10.0213 172.924 6.77885 176.958 4.42412C180.992 2.07481 185.659 0.900146 190.971 0.900146C196.283 0.900146 200.95 2.07481 204.984 4.42412C209.018 6.77344 212.153 10.0213 214.401 14.1624C216.642 18.3035 217.769 22.975 217.769 28.1879C217.769 33.4008 216.642 38.0778 214.401 42.2134C212.153 46.3545 209.013 49.6241 204.984 52.0275C200.95 54.431 196.277 55.6273 190.971 55.6273C185.665 55.6273 180.992 54.4255 176.958 52.0275ZM258.038 2.42666H275.186L189.13 107.009H171.982L258.038 2.42666ZM183.845 38.1265C185.426 40.8493 187.798 42.208 190.966 42.208C194.133 42.208 196.656 40.8493 198.238 38.1265C199.819 35.4037 200.609 32.0908 200.609 28.1879C200.609 24.285 199.819 20.9938 198.238 18.3251C196.651 15.6564 194.231 14.3194 190.966 14.3194C187.701 14.3194 185.302 15.6564 183.769 18.3251C182.237 20.9992 181.474 24.285 181.474 28.1879C181.474 32.0908 182.264 35.4037 183.845 38.1265ZM232.773 66.9191C235.02 62.8268 238.155 59.6168 242.189 57.2945C246.223 54.9723 250.891 53.8084 256.202 53.8084C261.514 53.8084 266.182 54.9723 270.216 57.2945C274.25 59.6168 277.385 62.8268 279.632 66.9191C281.874 71.0115 283 75.6343 283 80.7877C283 85.941 281.874 90.5638 279.632 94.6562C277.385 98.7485 274.244 101.986 270.216 104.357C266.182 106.733 261.509 107.918 256.202 107.918C250.896 107.918 246.223 106.733 242.189 104.357C238.155 101.98 235.015 98.7485 232.773 94.6562C230.526 90.5638 229.405 85.941 229.405 80.7877C229.405 75.6343 230.526 71.0115 232.773 66.9191ZM249.001 90.5909C250.533 93.2055 252.932 94.51 256.197 94.51C259.462 94.51 261.888 93.1784 263.469 90.5151C265.05 87.8518 265.841 84.6148 265.841 80.7931C265.841 76.9714 265.05 73.7614 263.469 71.1468C261.882 68.5323 259.462 67.2277 256.197 67.2277C252.932 67.2277 250.533 68.5106 249.001 71.071C247.468 73.6369 246.705 76.8739 246.705 80.7931C246.705 84.7122 247.468 87.9818 249.001 90.5909Z" fill="white"/>
<path d="M14.6616 119.216V122.507H9.42015V124.954H13.1238V128.245H9.42015V130.865H14.6616V134.156H5.19666V119.216H14.6616Z" fill="white"/>
<path d="M16.0045 119.302H20.1197L24.8846 128.765H25.0362C24.7059 126.865 24.5381 125.127 24.5381 123.552V119.302H28.3501V134.156H24.2349L19.4482 124.737H19.3183C19.6377 126.54 19.7948 128.261 19.7948 129.907V134.156H16.0045V119.302Z" fill="white"/>
<path d="M37.9288 119.302V130.757H42.867V134.156H33.662V119.302H37.9288Z" fill="white"/>
<path d="M52.9601 134.156L52.1804 131.293H47.9785L47.1988 134.156H43.0836L47.1122 119.302H53.22L57.2486 134.156H52.9601ZM51.509 127.98L50.1878 123.135H49.9712L48.65 127.98H51.509Z" fill="white"/>
<path d="M69.5833 122.669C69.0256 122.534 68.5058 122.464 68.0131 122.464C66.9139 122.464 66.1017 122.832 65.5656 123.568C65.0295 124.304 64.7642 125.343 64.7642 126.686C64.7642 128.028 65.035 129.084 65.5764 129.815C66.1179 130.546 66.9518 130.908 68.078 130.908C68.495 130.908 69.004 130.859 69.5942 130.767C70.1844 130.675 70.6609 130.546 71.0237 130.389V134.026C70.5742 134.156 70.0761 134.254 69.5184 134.318C68.9607 134.383 68.4408 134.416 67.9481 134.416C66.3724 134.416 65.0187 134.102 63.887 133.474C62.7554 132.846 61.8944 131.953 61.3096 130.789C60.7248 129.625 60.4324 128.267 60.4324 126.708C60.4324 125.149 60.7302 123.768 61.3205 122.604C61.9107 121.441 62.7662 120.542 63.8762 119.909C64.9862 119.275 66.3074 118.956 67.8398 118.956C68.9931 118.956 70.0544 119.145 71.0237 119.519V123.157C70.6176 122.967 70.1411 122.805 69.5833 122.669Z" fill="white"/>
<path d="M74.6732 133.474C73.6282 132.846 72.8322 131.953 72.2907 130.789C71.7493 129.625 71.4785 128.261 71.4785 126.686C71.4785 125.111 71.7493 123.747 72.2907 122.583C72.8322 121.419 73.6282 120.526 74.6732 119.898C75.7183 119.27 76.9745 118.956 78.431 118.956C79.8876 118.956 81.133 119.27 82.1672 119.898C83.2014 120.526 83.9866 121.419 84.528 122.583C85.0695 123.747 85.3403 125.111 85.3403 126.686C85.3403 128.261 85.0695 129.625 84.528 130.789C83.9866 131.953 83.2014 132.846 82.1672 133.474C81.133 134.102 79.8876 134.416 78.431 134.416C76.9745 134.416 75.7183 134.102 74.6732 133.474ZM76.3843 129.826C76.7795 130.578 77.4564 130.951 78.4094 130.951C79.3624 130.951 80.0392 130.578 80.4345 129.826C80.8298 129.073 81.0301 128.028 81.0301 126.686C81.0301 125.343 80.8298 124.299 80.4345 123.546C80.0392 122.794 79.3624 122.42 78.4094 122.42C77.4564 122.42 76.7795 122.794 76.3843 123.546C75.989 124.299 75.7886 125.343 75.7886 126.686C75.7886 128.028 75.989 129.073 76.3843 129.826Z" fill="white"/>
<path d="M96.1914 130.15H96.4297L99.0504 119.302H104.812L106.479 134.156H102.148L101.693 127.308C101.606 126.047 101.557 124.992 101.541 124.131H101.325L98.7472 134.156H93.4407L90.82 124.131H90.6034C90.5872 125.132 90.533 126.172 90.4301 127.244L89.8886 134.156H86.0983L87.7444 119.302H93.5923L96.1914 130.15Z" fill="white"/>
<path d="M108.104 119.216H114.082C115.165 119.216 116.112 119.443 116.919 119.898C117.726 120.353 118.343 120.991 118.771 121.814C119.199 122.637 119.41 123.59 119.41 124.672C119.41 125.755 119.199 126.708 118.771 127.53C118.343 128.353 117.726 128.992 116.919 129.447C116.112 129.901 115.165 130.129 114.082 130.129H112.371V134.156H108.104V119.216ZM113.41 126.838C114.076 126.838 114.564 126.659 114.872 126.307C115.181 125.955 115.338 125.408 115.338 124.672C115.338 123.936 115.181 123.389 114.872 123.037C114.564 122.686 114.076 122.507 113.41 122.507H112.371V126.838H113.41Z" fill="white"/>
<path d="M120.579 119.216H127.467C128.826 119.216 129.898 119.589 130.683 120.342C131.468 121.094 131.864 122.144 131.864 123.503C131.864 124.439 131.674 125.23 131.29 125.863C130.905 126.496 130.396 127.005 129.763 127.379V127.509L132.687 134.156H128.095L126.254 129.241H124.825V134.156H120.579V119.216ZM126.189 126.253C127.299 126.253 127.857 125.582 127.857 124.239C127.857 122.897 127.299 122.225 126.189 122.225H124.825V126.253H126.189Z" fill="white"/>
<path d="M142.504 134.156L141.724 131.293H137.522L136.742 134.156H132.627L136.656 119.302H142.764L146.792 134.156H142.504ZM141.047 127.98L139.726 123.135H139.509L138.188 127.98H141.047Z" fill="white"/>
<path d="M11.2178 140.868C12.6744 140.868 13.9306 141.172 14.9757 141.778C16.0207 142.384 16.8167 143.245 17.3582 144.365C17.8996 145.486 18.1704 146.807 18.1704 148.339C18.1704 149.87 17.8996 151.191 17.3582 152.312C16.8167 153.432 16.0207 154.293 14.9757 154.899C13.9306 155.506 12.6744 155.809 11.2178 155.809H5.19666V140.868H11.2178ZM11.2395 152.344C12.1925 152.344 12.8693 151.992 13.2646 151.294C13.6599 150.596 13.8602 149.611 13.8602 148.339C13.8602 147.066 13.6599 146.081 13.2646 145.383C12.8693 144.685 12.1925 144.333 11.2395 144.333H9.44181V152.344H11.2395Z" fill="white"/>
<path d="M28.832 140.868V144.16H23.5906V146.606H27.2942V149.898H23.5906V152.518H28.832V155.809H19.3671V140.868H28.832Z" fill="white"/>
<path d="M33.402 140.868H39.3799C40.4629 140.868 41.4104 141.096 42.2172 141.55C43.024 142.005 43.6413 142.644 44.0691 143.467C44.4968 144.29 44.708 145.242 44.708 146.325C44.708 147.408 44.4968 148.36 44.0691 149.183C43.6413 150.006 43.024 150.645 42.2172 151.099C41.4104 151.554 40.4629 151.781 39.3799 151.781H37.6689V155.809H33.402V140.868ZM38.7085 148.49C39.3745 148.49 39.8618 148.311 40.1705 147.96C40.4791 147.608 40.6361 147.061 40.6361 146.325C40.6361 145.589 40.4791 145.042 40.1705 144.69C39.8618 144.338 39.3745 144.16 38.7085 144.16H37.6689V148.49H38.7085Z" fill="white"/>
<path d="M53.2417 155.809L52.4619 152.945H48.2601L47.4804 155.809H43.3652L47.3937 140.955H53.5016L57.5301 155.809H53.2417ZM51.7905 149.632L50.4693 144.788H50.2527L48.9315 149.632H51.7905Z" fill="white"/>
<path d="M66.1179 144.322C65.5602 144.187 65.0404 144.116 64.5476 144.116C63.4484 144.116 62.6362 144.484 62.1002 145.221C61.5641 145.957 61.2988 146.996 61.2988 148.339C61.2988 149.681 61.5695 150.737 62.111 151.467C62.6525 152.198 63.4863 152.561 64.6126 152.561C65.0295 152.561 65.5385 152.512 66.1287 152.42C66.7189 152.328 67.1954 152.198 67.5582 152.041V155.679C67.1088 155.809 66.6106 155.906 66.0529 155.971C65.4952 156.036 64.9754 156.069 64.4826 156.069C62.907 156.069 61.5533 155.755 60.4216 155.127C59.2899 154.499 58.429 153.606 57.8442 152.442C57.2594 151.278 56.967 149.919 56.967 148.36C56.967 146.801 57.2648 145.421 57.855 144.257C58.4452 143.093 59.3007 142.195 60.4108 141.561C61.5208 140.928 62.842 140.609 64.3743 140.609C65.5277 140.609 66.589 140.798 67.5582 141.172V144.809C67.1521 144.62 66.6756 144.457 66.1179 144.322Z" fill="white"/>
<path d="M73.6011 140.955V147.083H73.7527L77.4564 140.955H81.8315L78.2794 146.774L81.9831 155.814H77.3914L75.1389 149.703H75.0089L73.6011 152.074V155.82H69.3343V140.966H73.6011V140.955Z" fill="white"/>
<path d="M92.2061 140.868C93.6627 140.868 94.9189 141.172 95.964 141.778C97.009 142.384 97.805 143.245 98.3465 144.365C98.8879 145.486 99.1587 146.807 99.1587 148.339C99.1587 149.87 98.8879 151.191 98.3465 152.312C97.805 153.432 97.009 154.293 95.964 154.899C94.9189 155.506 93.6627 155.809 92.2061 155.809H86.1849V140.868H92.2061ZM92.2278 152.344C93.1808 152.344 93.8576 151.992 94.2529 151.294C94.6482 150.596 94.8485 149.611 94.8485 148.339C94.8485 147.066 94.6482 146.081 94.2529 145.383C93.8576 144.685 93.1808 144.333 92.2278 144.333H90.4301V152.344H92.2278Z" fill="white"/>
<path d="M109.815 140.868V144.16H104.573V146.606H108.277V149.898H104.573V152.518H109.815V155.809H100.35V140.868H109.815Z" fill="white"/>
<path d="M118.652 140.955V155.809H114.385V140.955H118.652Z" fill="white"/>
<path d="M120.731 140.955H124.846L129.611 150.417H129.763C129.433 148.517 129.265 146.78 129.265 145.204V140.955H133.077V155.809H128.961L124.175 146.39H124.045C124.364 148.192 124.521 149.914 124.521 151.559V155.809H120.731V140.955Z" fill="white"/>
<path d="M145.493 144.355H141.854V155.809H137.587V144.355H133.97V140.955H145.493V144.355Z" fill="white"/>
<path d="M155.846 140.868V144.16H150.604V146.606H154.308V149.898H150.604V152.518H155.846V155.809H146.381V140.868H155.846Z" fill="white"/>
<path d="M157.188 140.868H164.076C165.435 140.868 166.507 141.242 167.292 141.994C168.078 142.747 168.473 143.797 168.473 145.156C168.473 146.092 168.283 146.882 167.899 147.516C167.514 148.149 167.005 148.658 166.372 149.031V149.161L169.296 155.809H164.704L162.863 150.894H161.434V155.809H157.188V140.868ZM162.798 147.906C163.908 147.906 164.466 147.234 164.466 145.892C164.466 144.549 163.908 143.878 162.798 143.878H161.434V147.906H162.798Z" fill="white"/>
<path d="M170.465 140.955H174.581L179.346 150.417H179.497C179.167 148.517 178.999 146.78 178.999 145.204V140.955H182.811V155.809H178.696L173.909 146.39H173.779C174.099 148.192 174.256 149.914 174.256 151.559V155.809H170.465V140.955Z" fill="white"/>
<path d="M194.355 140.868V144.16H189.114V146.606H192.817V149.898H189.114V152.518H194.355V155.809H184.89V140.868H194.355Z" fill="white"/>
<path d="M206.029 144.355H202.391V155.809H198.124V144.355H194.507V140.955H206.029V144.355Z" fill="white"/>
</svg>
