<svg width="285" height="135" viewBox="0 0 285 135" fill="none" xmlns="http://www.w3.org/2000/svg">
<path d="M25.7456 28.6205L4 39.2952V16.7332L31.8697 3.0108H55.6025V107.593H25.7402V28.6205H25.7456Z" fill="white"/>
<path d="M70.2277 95.2457C62.3168 85.7943 58.3586 72.3751 58.3586 54.9988C58.3586 37.6225 62.3113 24.2033 70.2277 14.7519C78.1386 5.30053 89.0872 0.574829 103.074 0.574829C117.06 0.574829 127.981 5.3276 135.844 14.8277C143.706 24.3332 147.637 37.72 147.637 54.9988C147.637 72.2776 143.706 85.6698 135.844 95.1699C127.981 104.675 117.06 109.423 103.074 109.423C89.0872 109.423 78.1386 104.697 70.2277 95.2457ZM91.8921 78.9304C94.1338 84.2191 97.8104 86.8607 102.916 86.8607C108.023 86.8607 111.721 84.2191 114.017 78.9304C116.313 73.6472 117.46 65.6681 117.46 54.9934C117.46 44.3186 116.313 36.345 114.017 31.0564C111.721 25.7731 108.017 23.1315 102.916 23.1315C97.8158 23.1315 94.1338 25.7731 91.8921 31.0564C89.645 36.345 88.5241 44.3186 88.5241 54.9934C88.5241 65.6681 89.645 73.6472 91.8921 78.9304Z" fill="white"/>
<path d="M170.065 52.6116C166.031 50.2082 162.89 46.9386 160.648 42.7975C158.401 38.6619 157.281 33.9849 157.281 28.772C157.281 23.5591 158.401 18.8876 160.648 14.7465C162.896 10.6054 166.031 7.36296 170.065 5.00823C174.099 2.65892 178.766 1.48425 184.078 1.48425C189.39 1.48425 194.057 2.65892 198.091 5.00823C202.125 7.35754 205.261 10.6054 207.508 14.7465C209.749 18.8876 210.876 23.5591 210.876 28.772C210.876 33.9849 209.749 38.6619 207.508 42.7975C205.261 46.9386 202.12 50.2082 198.091 52.6116C194.057 55.0151 189.385 56.2114 184.078 56.2114C178.772 56.2114 174.099 55.0096 170.065 52.6116ZM251.145 3.01077H268.294L182.237 107.593H165.089L251.145 3.01077ZM176.958 38.7106C178.539 41.4334 180.91 42.7921 184.078 42.7921C187.246 42.7921 189.769 41.4334 191.35 38.7106C192.931 35.9878 193.722 32.6749 193.722 28.772C193.722 24.8691 192.931 21.5779 191.35 18.9092C189.764 16.2405 187.343 14.9035 184.078 14.9035C180.813 14.9035 178.414 16.2405 176.882 18.9092C175.35 21.5833 174.586 24.8691 174.586 28.772C174.586 32.6749 175.377 35.9878 176.958 38.7106ZM225.88 67.5032C228.127 63.4109 231.262 60.2009 235.296 57.8786C239.33 55.5564 243.998 54.3925 249.309 54.3925C254.621 54.3925 259.289 55.5564 263.323 57.8786C267.357 60.2009 270.492 63.4109 272.739 67.5032C274.981 71.5956 276.107 76.2184 276.107 81.3718C276.107 86.5251 274.981 91.1479 272.739 95.2403C270.492 99.3327 267.351 102.57 263.323 104.941C259.289 107.317 254.616 108.503 249.309 108.503C244.003 108.503 239.33 107.317 235.296 104.941C231.262 102.564 228.122 99.3327 225.88 95.2403C223.633 91.1479 222.512 86.5251 222.512 81.3718C222.512 76.2184 223.633 71.5956 225.88 67.5032ZM242.113 91.175C243.646 93.7896 246.044 95.0941 249.309 95.0941C252.575 95.0941 255 93.7625 256.581 91.0992C258.163 88.4359 258.953 85.1989 258.953 81.3772C258.953 77.5555 258.163 74.3455 256.581 71.7309C254.995 69.1164 252.575 67.8118 249.309 67.8118C246.044 67.8118 243.646 69.0947 242.113 71.6551C240.581 74.221 239.817 77.4581 239.817 81.3772C239.817 85.2963 240.581 88.5659 242.113 91.175Z" fill="white"/>
<path d="M16.703 119.8V123.091H11.4615V125.538H15.1652V128.829H11.4615V131.449H16.703V134.74H7.23804V119.8H16.703Z" fill="white"/>
<path d="M18.0458 119.886H22.161L26.926 129.349H27.0776C26.7473 127.449 26.5795 125.711 26.5795 124.136V119.886H30.3914V134.74H26.2762L21.4896 125.321H21.3597C21.6791 127.124 21.8362 128.845 21.8362 130.491V134.74H18.0458V119.886Z" fill="white"/>
<path d="M45.1683 119.8V123.091H39.9268V125.538H43.6305V128.829H39.9268V131.449H45.1683V134.74H35.7033V119.8H45.1683Z" fill="white"/>
<path d="M50.778 119.886V131.341H55.7162V134.74H46.5112V119.886H50.778Z" fill="white"/>
<path d="M60.3945 119.8H66.3724C67.4554 119.8 68.4029 120.027 69.2097 120.482C70.0165 120.937 70.6338 121.575 71.0616 122.398C71.4893 123.221 71.7005 124.174 71.7005 125.256C71.7005 126.339 71.4893 127.292 71.0616 128.114C70.6338 128.937 70.0165 129.576 69.2097 130.031C68.4029 130.485 67.4554 130.713 66.3724 130.713H64.6613V134.74H60.3945V119.8ZM65.701 127.422C66.367 127.422 66.8543 127.243 67.163 126.891C67.4716 126.539 67.6286 125.993 67.6286 125.256C67.6286 124.52 67.4716 123.973 67.163 123.622C66.8543 123.27 66.367 123.091 65.701 123.091H64.6613V127.422H65.701Z" fill="white"/>
<path d="M80.2341 134.74L79.4544 131.877H75.2526L74.4729 134.74H70.3577L74.3862 119.886H80.4941L84.5226 134.74H80.2341ZM78.783 128.564L77.4618 123.719H77.2452L75.924 128.564H78.783Z" fill="white"/>
<path d="M93.7493 123.189C93.0129 123.064 92.3686 123.004 91.8217 123.004C90.6088 123.004 89.7153 123.367 89.1468 124.087C88.5782 124.807 88.2913 125.868 88.2913 127.27C88.2913 128.672 88.5674 129.733 89.1143 130.453C89.6612 131.173 90.5384 131.536 91.735 131.536H92.1032V127.465H96.1318V134.394C95.4225 134.583 94.6428 134.729 93.7818 134.838C92.9209 134.946 92.1628 135 91.4968 135C89.9103 135 88.5458 134.686 87.4141 134.058C86.2824 133.43 85.4215 132.537 84.8367 131.373C84.2519 130.209 83.9595 128.851 83.9595 127.292C83.9595 125.733 84.2573 124.331 84.8583 123.167C85.4594 122.003 86.3365 121.11 87.5007 120.482C88.6649 119.854 90.0619 119.54 91.6917 119.54C92.3252 119.54 92.9804 119.589 93.6519 119.681C94.3233 119.773 94.9568 119.914 95.547 120.103V123.611C95.0868 123.454 94.4857 123.313 93.7493 123.189Z" fill="white"/>
<path d="M100.28 134.058C99.2345 133.43 98.4385 132.537 97.8971 131.373C97.3556 130.209 97.0848 128.845 97.0848 127.27C97.0848 125.695 97.3556 124.331 97.8971 123.167C98.4385 122.003 99.2345 121.11 100.28 120.482C101.325 119.854 102.581 119.54 104.037 119.54C105.494 119.54 106.739 119.854 107.774 120.482C108.808 121.11 109.593 122.003 110.134 123.167C110.676 124.331 110.947 125.695 110.947 127.27C110.947 128.845 110.676 130.209 110.134 131.373C109.593 132.537 108.808 133.43 107.774 134.058C106.739 134.686 105.494 135 104.037 135C102.581 135 101.325 134.686 100.28 134.058ZM101.991 130.41C102.386 131.162 103.063 131.536 104.016 131.536C104.969 131.536 105.646 131.162 106.041 130.41C106.436 129.657 106.636 128.613 106.636 127.27C106.636 125.928 106.436 124.883 106.041 124.13C105.646 123.378 104.969 123.004 104.016 123.004C103.063 123.004 102.386 123.378 101.991 124.13C101.595 124.883 101.395 125.928 101.395 127.27C101.395 128.613 101.595 129.657 101.991 130.41Z" fill="white"/>
<path d="M121.386 119.8C122.843 119.8 124.099 120.103 125.144 120.709C126.189 121.316 126.985 122.176 127.527 123.297C128.068 124.417 128.339 125.738 128.339 127.27C128.339 128.802 128.068 130.123 127.527 131.243C126.985 132.364 126.189 133.225 125.144 133.831C124.099 134.437 122.843 134.74 121.386 134.74H115.365V119.8H121.386ZM121.408 131.276C122.361 131.276 123.038 130.924 123.433 130.226C123.828 129.527 124.029 128.542 124.029 127.27C124.029 125.998 123.828 125.013 123.433 124.314C123.038 123.616 122.361 123.264 121.408 123.264H119.61V131.276H121.408Z" fill="white"/>
<path d="M138.995 119.8V123.091H133.753V125.538H137.457V128.829H133.753V131.449H138.995V134.74H129.53V119.8H138.995Z" fill="white"/>
<path d="M153.902 123.286H150.263V134.74H145.996V123.286H142.379V119.886H153.902V123.286Z" fill="white"/>
<path d="M166.237 132.434C165.755 133.252 165.056 133.879 164.146 134.329C163.237 134.778 162.159 135 160.919 135C159.679 135 158.58 134.778 157.67 134.34C156.761 133.901 156.062 133.268 155.58 132.445C155.098 131.622 154.855 130.664 154.855 129.565V119.886H159.122V129.37C159.122 130.816 159.723 131.536 160.919 131.536C162.116 131.536 162.695 130.816 162.695 129.37V119.886H166.962V129.565C166.962 130.664 166.718 131.617 166.237 132.434Z" fill="white"/>
<path d="M181.69 119.8V123.199H176.557V126.382H180.217V129.76H176.557V134.74H172.29V119.8H181.69Z" fill="white"/>
<path d="M190.159 134.74L189.379 131.877H185.177L184.398 134.74H180.282L184.311 119.886H190.419L194.447 134.74H190.159ZM188.708 128.564L187.386 123.719H187.17L185.849 128.564H188.708Z" fill="white"/>
<path d="M203.035 123.253C202.477 123.118 201.958 123.048 201.465 123.048C200.366 123.048 199.553 123.416 199.017 124.152C198.481 124.888 198.216 125.928 198.216 127.27C198.216 128.613 198.487 129.668 199.028 130.399C199.57 131.13 200.404 131.492 201.53 131.492C201.947 131.492 202.456 131.444 203.046 131.352C203.636 131.26 204.113 131.13 204.475 130.973V134.61C204.026 134.74 203.528 134.838 202.97 134.903C202.412 134.968 201.893 135 201.4 135C199.824 135 198.47 134.686 197.339 134.058C196.207 133.43 195.346 132.537 194.761 131.373C194.177 130.209 193.884 128.851 193.884 127.292C193.884 125.733 194.182 124.352 194.772 123.189C195.362 122.025 196.218 121.126 197.328 120.493C198.438 119.859 199.759 119.54 201.292 119.54C202.445 119.54 203.506 119.729 204.475 120.103V123.741C204.069 123.551 203.593 123.389 203.035 123.253Z" fill="white"/>
<path d="M216.583 123.286H212.944V134.74H208.677V123.286H205.06V119.886H216.583V123.286Z" fill="white"/>
<path d="M228.918 132.434C228.436 133.252 227.737 133.879 226.827 134.329C225.918 134.778 224.84 135 223.6 135C222.36 135 221.261 134.778 220.351 134.34C219.442 133.901 218.743 133.268 218.261 132.445C217.779 131.622 217.536 130.664 217.536 129.565V119.886H221.803V129.37C221.803 130.816 222.404 131.536 223.6 131.536C224.797 131.536 225.376 130.816 225.376 129.37V119.886H229.643V129.565C229.643 130.664 229.399 131.617 228.918 132.434Z" fill="white"/>
<path d="M231.744 119.8H238.632C239.991 119.8 241.063 120.173 241.848 120.926C242.633 121.678 243.028 122.728 243.028 124.087C243.028 125.024 242.839 125.814 242.454 126.447C242.07 127.081 241.561 127.589 240.927 127.963V128.093L243.851 134.74H239.26L237.419 129.825H235.989V134.74H231.744V119.8ZM237.354 126.837C238.464 126.837 239.021 126.166 239.021 124.823C239.021 123.481 238.464 122.81 237.354 122.81H235.989V126.837H237.354Z" fill="white"/>
<path d="M253.663 134.74L252.883 131.877H248.681L247.902 134.74H243.786L247.815 119.886H253.923L257.951 134.74H253.663ZM252.212 128.564L250.891 123.719H250.674L249.353 128.564H252.212Z" fill="white"/>
</svg>
